STARTFONT 2.1
COMMENT $Xorg: $
COMMENT ISO10646-1 extension by Markus Kuhn <mkuhn@acm.org>, 2001-03-20
COMMENT  (c) Copyright Bigelow & Holmes 1986, 1985. Lucida is a registered
COMMENT  trademark of Bigelow & Holmes. See LEGAL NOTICE file for terms 
COMMENT  of the license. 
FONT -B&H-LucidaBright-DemiBold-I-Normal--34-240-100-100-P-203-ISO10646-1
SIZE 24 100 100
FONTBOUNDINGBOX 63 54 -22 -16
STARTPROPERTIES 22
COMMENT Begin LogicalFontDescription
FONTNAME_REGISTRY ""
FOUNDRY "B&H"
FAMILY_NAME "LucidaBright"
WEIGHT_NAME "DemiBold"
SLANT "I"
SETWIDTH_NAME "Normal"
ADD_STYLE_NAME ""
PIXEL_SIZE 34
POINT_SIZE 240
RESOLUTION_X 100
RESOLUTION_Y 100
SPACING "P"
AVERAGE_WIDTH 203
CHARSET_REGISTRY "ISO10646"
CHARSET_ENCODING "1"
COMMENT END LogicalFontDescription
FONT_ASCENT 31
FONT_DESCENT 8
DEFAULT_CHAR 0
COPYRIGHT "Copyright Bigelow & Holmes 1986, 1985."
FACE_NAME "Lucida Bright Demibold Italic"
X_HEIGHT 18
CAP_HEIGHT 25
ENDPROPERTIES
CHARS 723
STARTCHAR char0
ENCODING 0
SWIDTH 827 0
DWIDTH 28 0
BBX 31 25 1 0
BITMAP
AAAAAAAA
00000000
80000002
00000000
80000002
00000000
80000002
00000000
80000002
00000000
80000002
00000000
80000002
00000000
80000002
00000000
80000002
00000000
80000002
00000000
80000002
00000000
80000002
00000000
AAAAAAAA
ENDCHAR
STARTCHAR space
ENCODING 32
SWIDTH 333 0
DWIDTH 11 0
BBX 1 1 0 0
BITMAP
00
ENDCHAR
STARTCHAR exclam
ENCODING 33
SWIDTH 265 0
DWIDTH 9 0
BBX 10 25 2 0
BITMAP
07C0
07C0
0F80
0F80
0F80
0F80
0F80
0F00
0F00
0F00
1E00
1E00
1E00
1E00
1C00
1C00
1C00
1800
0000
0000
0000
7C00
7C00
F800
F800
ENDCHAR
STARTCHAR quotedbl
ENCODING 34
SWIDTH 451 0
DWIDTH 15 0
BBX 12 10 6 16
BITMAP
F9F0
F8F0
F8F0
70F0
70F0
70E0
70E0
7060
7060
2060
ENDCHAR
STARTCHAR numbersign
ENCODING 35
SWIDTH 636 0
DWIDTH 22 0
BBX 21 25 3 0
BITMAP
000C38
001830
001870
003060
0030E0
0060C0
0061C0
3FFFF8
3FFFF8
01C300
018700
038600
030E00
070C00
060C00
FFFFE0
FFFFE0
0C3000
183000
186000
306000
30E000
70C000
60C000
E18000
ENDCHAR
STARTCHAR dollar
ENCODING 36
SWIDTH 636 0
DWIDTH 22 0
BBX 19 32 4 -4
BITMAP
000C00
000C00
001800
00FFC0
03FFE0
07D9E0
0798E0
0F10C0
0F10C0
0F3000
0F3000
0FB000
07E000
07E000
03F000
00F800
007E00
00FF00
00DF00
00CF00
008F00
018F00
618F00
619F00
619E00
F97C00
FFF800
7FE000
030000
030000
030000
020000
ENDCHAR
STARTCHAR percent
ENCODING 37
SWIDTH 772 0
DWIDTH 26 0
BBX 26 25 2 0
BITMAP
07C001C0
1FF00380
3C700700
38780E00
78781C00
78783800
70787000
7070F000
70F1E000
79E3C000
3FC78000
1F0F0000
000E3E00
001C7F80
0038F380
0071E3C0
00E3C3C0
01C3C3C0
0383C3C0
070383C0
0F038380
1E038780
3C03CF00
7801FE00
F000F800
ENDCHAR
STARTCHAR ampersand
ENCODING 38
SWIDTH 773 0
DWIDTH 26 0
BBX 26 25 2 0
BITMAP
000F8000
003FE000
00F8F000
00F0F000
01F0F000
01E0F000
01E0F000
01F1E000
01F3C000
00FF0000
01FC0000
07F83FC0
1E783FC0
3C7C0F00
783C0E00
783E0E00
F81F1C00
F81F1800
F80FB800
F80FF000
F807E000
7C07E000
7E07F000
1FFDFE00
07E1FE00
ENDCHAR
STARTCHAR quotesingle
ENCODING 39
SWIDTH 247 0
DWIDTH 8 0
BBX 5 11 6 15
BITMAP
F8
F8
F8
78
78
70
70
70
70
30
30
ENDCHAR
STARTCHAR parenleft
ENCODING 40
SWIDTH 336 0
DWIDTH 11 0
BBX 12 32 3 -6
BITMAP
0010
0030
0060
01C0
0380
0380
0700
0F00
1E00
1E00
3C00
3C00
7C00
7C00
7800
F800
F800
F800
F800
F800
F800
F800
F800
F800
7800
7800
7800
3800
3800
1C00
0C00
0400
ENDCHAR
STARTCHAR parenright
ENCODING 41
SWIDTH 336 0
DWIDTH 11 0
BBX 12 32 0 -6
BITMAP
0200
0300
0180
01C0
01C0
00E0
00E0
00F0
00F0
00F0
00F0
00F0
00F0
00F0
01F0
01F0
01F0
01F0
01E0
03E0
03E0
03C0
03C0
0780
0700
0F00
0E00
1C00
3800
7000
C000
8000
ENDCHAR
STARTCHAR asterisk
ENCODING 42
SWIDTH 434 0
DWIDTH 15 0
BBX 13 12 5 13
BITMAP
0380
0380
0300
6318
7B78
FCF8
0000
0B00
3D80
79C0
71E0
2100
ENDCHAR
STARTCHAR plus
ENCODING 43
SWIDTH 636 0
DWIDTH 21 0
BBX 20 21 3 0
BITMAP
001800
003800
003800
003800
003000
003000
003000
007000
007000
007000
FFFFF0
FFFFF0
00E000
00E000
00E000
00C000
00C000
00C000
01C000
01C000
018000
ENDCHAR
STARTCHAR comma
ENCODING 44
SWIDTH 265 0
DWIDTH 9 0
BBX 8 13 1 -7
BITMAP
3F
3F
3F
3E
7E
7E
1E
1E
1C
3C
38
F0
C0
ENDCHAR
STARTCHAR hyphen
ENCODING 45
SWIDTH 289 0
DWIDTH 10 0
BBX 8 3 3 10
BITMAP
7F
FF
FE
ENDCHAR
STARTCHAR period
ENCODING 46
SWIDTH 265 0
DWIDTH 9 0
BBX 6 5 2 0
BITMAP
7C
7C
FC
F8
F8
ENDCHAR
STARTCHAR slash
ENCODING 47
SWIDTH 515 0
DWIDTH 17 0
BBX 23 32 0 -6
BITMAP
00000E
00000C
000018
000038
000030
000060
0000E0
0000C0
000180
000380
000300
000700
000600
000C00
001C00
001800
003000
007000
006000
00E000
00C000
018000
038000
030000
060000
0E0000
0C0000
1C0000
380000
300000
700000
E00000
ENDCHAR
STARTCHAR zero
ENCODING 48
SWIDTH 623 0
DWIDTH 22 0
BBX 20 25 3 0
BITMAP
007E00
01FF80
03C3C0
0783E0
0F01E0
1F01E0
1E01F0
3E01F0
3E01F0
7C01F0
7C01F0
7C01F0
FC03F0
F803E0
F803E0
F803E0
F807C0
F807C0
F80780
F80F80
781F00
7C1E00
3C7C00
1FF800
07C000
ENDCHAR
STARTCHAR one
ENCODING 49
SWIDTH 636 0
DWIDTH 22 0
BBX 14 25 4 0
BITMAP
0FFC
0FFC
00FC
00F8
00F8
00F8
00F8
00F8
01F0
01F0
01F0
01F0
01F0
03E0
03E0
03E0
03E0
03E0
07C0
07C0
07C0
07C0
1FC0
FFFC
FFFC
ENDCHAR
STARTCHAR two
ENCODING 50
SWIDTH 636 0
DWIDTH 22 0
BBX 20 25 3 0
BITMAP
007F00
07FFC0
0787E0
0703F0
0601F0
0E01F0
0C01F0
0001F0
0003E0
0007E0
000780
000F00
003E00
007800
00E000
038000
070000
0E0000
1C0000
380000
380000
7FFF80
FFFF80
FFFF00
FFFF00
ENDCHAR
STARTCHAR three
ENCODING 51
SWIDTH 636 0
DWIDTH 22 0
BBX 19 25 3 0
BITMAP
01FE00
07FF80
070FC0
0603E0
0603E0
0E03E0
0003E0
0003C0
000780
000F00
003E00
07F000
07FE00
003F00
001F80
000F80
000F80
000F80
000F80
600F80
601F00
E03F00
F07E00
FFF800
3FE000
ENDCHAR
STARTCHAR four
ENCODING 52
SWIDTH 636 0
DWIDTH 22 0
BBX 19 25 3 0
BITMAP
0003E0
0007C0
000FC0
001FC0
001BC0
0037C0
006780
00C780
018780
038780
070F80
0E0F00
1C0F00
380F00
700F00
7FFFE0
FFFFE0
FFFFC0
001E00
001E00
003E00
003E00
007E00
01FF80
01FF80
ENDCHAR
STARTCHAR five
ENCODING 53
SWIDTH 636 0
DWIDTH 22 0
BBX 20 25 4 0
BITMAP
07FFF0
07FFF0
07FFF0
07FFE0
040000
0C0000
0C0000
0C0000
080000
0FC000
1FF800
00FE00
003F00
001F00
000F80
000F80
000F80
000F80
000F80
600F00
601F00
603E00
F07C00
FFF000
7F8000
ENDCHAR
STARTCHAR six
ENCODING 54
SWIDTH 636 0
DWIDTH 22 0
BBX 20 25 4 0
BITMAP
003FC0
00FFF0
01E0F0
07C070
0F8060
1F0060
1F0000
3E0000
3E0000
7C7E00
7DFF00
7F0F80
FE07C0
FC07C0
F807C0
F807C0
F807C0
F807C0
F807C0
F80780
780F80
7C1F00
3E3E00
1FF800
07E000
ENDCHAR
STARTCHAR seven
ENCODING 55
SWIDTH 636 0
DWIDTH 22 0
BBX 19 25 6 0
BITMAP
3FFFE0
3FFFE0
3FFFE0
7FFFC0
000180
000300
000700
000E00
001C00
003800
003000
007000
00E000
01C000
03C000
078000
0F0000
1F0000
3E0000
3E0000
7C0000
7C0000
FC0000
F80000
F80000
ENDCHAR
STARTCHAR eight
ENCODING 56
SWIDTH 636 0
DWIDTH 22 0
BBX 20 25 3 0
BITMAP
003F80
01FFC0
03E3E0
0781F0
0F80F0
0F00F0
0F81F0
0F81E0
0FC3C0
07F780
03FE00
01FE00
07FF00
1E7F80
3C1FC0
7C0FE0
7807E0
F803E0
F803E0
F803C0
FC03C0
FC0780
7E0F00
3FFC00
0FE000
ENDCHAR
STARTCHAR nine
ENCODING 57
SWIDTH 636 0
DWIDTH 22 0
BBX 20 25 3 0
BITMAP
007E00
01FF80
07C7C0
0F83E0
0F01E0
1E01F0
3E01F0
3E01F0
3E01F0
3E01F0
3E01F0
3E03F0
3E07F0
1F0FE0
0FFBE0
07E3E0
0007C0
0007C0
000F80
600F80
601F00
E03E00
F07800
FFF000
3FC000
ENDCHAR
STARTCHAR colon
ENCODING 58
SWIDTH 265 0
DWIDTH 9 0
BBX 9 18 2 0
BITMAP
0F80
0F80
1F00
1F00
1F00
0000
0000
0000
0000
0000
0000
0000
0000
7C00
7C00
7C00
F800
F800
ENDCHAR
STARTCHAR semicolon
ENCODING 59
SWIDTH 265 0
DWIDTH 9 0
BBX 10 25 1 -7
BITMAP
07C0
07C0
0F80
0F80
0F80
0000
0000
0000
0000
0000
0000
0000
0000
0000
3E00
3E00
3E00
7E00
1C00
1C00
1C00
3800
7800
F000
C000
ENDCHAR
STARTCHAR less
ENCODING 60
SWIDTH 636 0
DWIDTH 21 0
BBX 22 21 3 0
BITMAP
000004
00001C
00007C
0001F0
0007C0
001F00
007C00
03F000
0FC000
3E0000
F80000
3E0000
0F8000
07E000
01F000
007C00
003F00
000F80
0003E0
0000C0
000040
ENDCHAR
STARTCHAR equal
ENCODING 61
SWIDTH 636 0
DWIDTH 21 0
BBX 21 9 2 5
BITMAP
7FFFF8
7FFFF8
000000
000000
000000
000000
000000
FFFFF0
FFFFF0
ENDCHAR
STARTCHAR greater
ENCODING 62
SWIDTH 636 0
DWIDTH 21 0
BBX 22 21 1 0
BITMAP
080000
0C0000
1F0000
07C000
03F000
00F800
003E00
001F80
0007C0
0001F0
00007C
0001F0
000FC0
003F00
00F800
03E000
0F8000
3E0000
F80000
E00000
800000
ENDCHAR
STARTCHAR question
ENCODING 63
SWIDTH 493 0
DWIDTH 17 0
BBX 15 25 5 0
BITMAP
0FF0
7FF8
78FC
707E
603E
E03E
003E
003C
0078
0070
00E0
01C0
0380
0F00
1E00
1E00
3E00
7C00
0000
0000
0000
7C00
7800
F800
F800
ENDCHAR
STARTCHAR at
ENCODING 64
SWIDTH 861 0
DWIDTH 29 0
BBX 26 25 4 0
BITMAP
000FE000
007FF800
01F03E00
03800700
06000300
0C0F0180
183F8080
3071E0C0
30E0E0C0
61C0E0C0
4180E0C0
C381C0C0
C381C0C0
C383C0C0
C383C180
C3858180
C38D8300
C399CE00
43F1FC00
61C1F000
30000000
38000000
1E010000
07FF0000
01FC0000
ENDCHAR
STARTCHAR A
ENCODING 65
SWIDTH 765 0
DWIDTH 26 0
BBX 26 25 0 0
BITMAP
0000E000
0001E000
0001F000
0003F000
0003F000
0007F000
000FF000
000CF800
0018F800
0038F800
0030F800
00607C00
00607C00
00C07C00
01807C00
01FFFC00
03FFFE00
07003E00
06003E00
0C003E00
0C001F00
18001F00
38001F80
FE00FFC0
FE00FFC0
ENDCHAR
STARTCHAR B
ENCODING 66
SWIDTH 651 0
DWIDTH 22 0
BBX 22 25 1 0
BITMAP
07FFE0
07FFF8
01F1FC
01E07C
01E07C
01E07C
03E07C
03E078
03C0F8
03C1F0
07C7E0
07FF80
07FF00
0787C0
0783E0
0F81F0
0F81F0
0F80F8
0F01F8
0F01F8
1F01F0
1F03F0
3F0FE0
FFFFC0
FFFE00
ENDCHAR
STARTCHAR C
ENCODING 67
SWIDTH 740 0
DWIDTH 25 0
BBX 24 25 4 0
BITMAP
000FFC
007FFF
01F81F
03E00E
07C006
0F8006
1F000E
1E0000
3E0000
7E0000
7C0000
7C0000
FC0000
FC0000
FC0000
FC0000
FC0000
FC0000
FC0000
7C0000
7E0000
3F0000
1F8070
0FFFF0
03FF00
ENDCHAR
STARTCHAR D
ENCODING 68
SWIDTH 822 0
DWIDTH 28 0
BBX 28 25 1 0
BITMAP
07FFFC00
07FFFF00
01F01FC0
01F007E0
01F003E0
01F003F0
03F003F0
03E001F0
03E001F0
03E001F0
03E001F0
07E001F0
07C003F0
07C003E0
07C003E0
07C003E0
0FC007C0
0F8007C0
0F800F80
0F801F80
1F803F00
1F807E00
3F81F800
FFFFF000
FFFF8000
ENDCHAR
STARTCHAR E
ENCODING 69
SWIDTH 630 0
DWIDTH 21 0
BBX 23 25 1 0
BITMAP
07FFFE
07FFFE
01F00E
01F00C
01F00C
01F000
03E000
03E000
03E000
03E060
03E0C0
07FFC0
07FFC0
07C0C0
07C0C0
07C000
0F8000
0F8000
0F8000
0F8000
1F8070
1F0060
3F00E0
FFFFE0
FFFFE0
ENDCHAR
STARTCHAR F
ENCODING 70
SWIDTH 602 0
DWIDTH 20 0
BBX 23 25 1 0
BITMAP
07FFFE
07FFFE
01F00E
01F00C
01F00C
01F000
03E000
03E000
03E000
03E060
03E0C0
07FFC0
07FFC0
07C0C0
07C0C0
07C000
0F8000
0F8000
0F8000
0F8000
1F8000
1F8000
3F8000
FFE000
FFE000
ENDCHAR
STARTCHAR G
ENCODING 71
SWIDTH 780 0
DWIDTH 26 0
BBX 24 25 4 0
BITMAP
000FFC
007FFF
01F81F
03E00F
07C006
0F8006
1F000E
1F0000
3E0000
3E0000
7C0000
7C0000
FC0000
FC07FF
FC07FF
FC00FC
FC00F8
FC00F8
FC01F0
7C01F0
7E01F0
3E01F0
1F81F0
0FFFE0
03FE00
ENDCHAR
STARTCHAR H
ENCODING 72
SWIDTH 827 0
DWIDTH 28 0
BBX 31 25 1 0
BITMAP
07FF0FFE
07FE0FFE
01F803F8
01F003F0
01F003F0
01F003E0
03F003E0
03E003E0
03E007E0
03E007C0
03E007C0
07FFFFC0
07FFFFC0
07C00FC0
07C00F80
07C00F80
0FC00F80
0F800F80
0F801F80
0F801F00
1F801F00
1F801F00
3F803F00
FFE0FFC0
FFE1FFC0
ENDCHAR
STARTCHAR I
ENCODING 73
SWIDTH 372 0
DWIDTH 13 0
BBX 15 25 1 0
BITMAP
07FE
0FFE
01F8
01F0
03F0
03E0
03E0
03E0
03E0
03E0
07C0
07C0
07C0
07C0
07C0
0F80
0F80
0F80
0F80
0F80
1F00
1F00
3F00
FFE0
FFC0
ENDCHAR
STARTCHAR J
ENCODING 74
SWIDTH 478 0
DWIDTH 16 0
BBX 21 31 0 -6
BITMAP
003FF8
003FF8
000FE0
000FC0
000FC0
000F80
000F80
000F80
000F80
001F80
001F00
001F00
001F00
001F00
003F00
003E00
003E00
003E00
003E00
007E00
007C00
007C00
007C00
007C00
00FC00
70F800
60F800
60F000
E1E000
FFC000
FE0000
ENDCHAR
STARTCHAR K
ENCODING 75
SWIDTH 746 0
DWIDTH 25 0
BBX 26 25 1 0
BITMAP
07FE1FC0
07FE1FC0
01F80700
01F00C00
01E01800
03E07000
03E0E000
03E1C000
03E30000
03C60000
07DC0000
07FE0000
07FE0000
07FF0000
079F8000
0F9F8000
0F8FC000
0F87E000
0F87F000
0F03F000
1F01F800
1F01FC00
3F00FE00
FFC3FF00
FFC3FF00
ENDCHAR
STARTCHAR L
ENCODING 76
SWIDTH 611 0
DWIDTH 21 0
BBX 20 25 1 0
BITMAP
07FE00
07FE00
01F800
01F000
01F000
01F000
03E000
03E000
03E000
03E000
03E000
07C000
07C000
07C000
07C000
07C000
0F8000
0F8000
0F8000
0F8070
1F8070
1F8070
3F8060
FFFFE0
FFFFE0
ENDCHAR
STARTCHAR M
ENCODING 77
SWIDTH 926 0
DWIDTH 31 0
BBX 34 25 1 0
BITMAP
07F0003FC0
07F0003FC0
01F0007F00
01F8007E00
01F800FE00
01F801BC00
03F8017C00
03BC037C00
033C067C00
033C067800
033E0C7800
071E08F800
071E18F800
061E30F800
061F20F000
060F60F000
0E0FC1F000
0E0F81F000
0C0781F000
0C0701E000
1C0601E000
1C0003E000
3C0007E000
FF001FF800
FF001FF800
ENDCHAR
STARTCHAR N
ENCODING 78
SWIDTH 797 0
DWIDTH 27 0
BBX 30 25 1 0
BITMAP
07E003FC
07F003FC
01F000F0
01F800E0
01FC00E0
01FC00C0
03FE00C0
03BE01C0
03BF01C0
031F0180
031F8180
070F8180
0707C380
0707C380
0603E300
0603E300
0E01F700
0E01F700
0C00FF00
0C00FE00
1C007E00
1C003E00
3C003E00
FF001E00
FF001C00
ENDCHAR
STARTCHAR O
ENCODING 79
SWIDTH 831 0
DWIDTH 28 0
BBX 26 25 4 0
BITMAP
000FF000
007FFC00
00F83E00
03E01F00
07C00F80
0F800F80
1F000F80
1F000FC0
3E000FC0
7E000FC0
7C000FC0
7C000FC0
FC000F80
FC000F80
FC000F80
FC001F00
FC001F00
FC003E00
FC003C00
7C007C00
7C00F800
3E01E000
1F07C000
0FFF0000
03F80000
ENDCHAR
STARTCHAR P
ENCODING 80
SWIDTH 628 0
DWIDTH 21 0
BBX 23 25 1 0
BITMAP
07FFF0
07FFF8
01F07C
01F03E
01F03E
01E03E
03E03E
03E03E
03E07C
03E07C
03C0F8
07C1F0
07C3E0
07FFC0
07FE00
078000
0F8000
0F8000
0F8000
0F8000
1F0000
1F0000
3F0000
FFE000
FFE000
ENDCHAR
STARTCHAR Q
ENCODING 81
SWIDTH 835 0
DWIDTH 28 0
BBX 29 32 4 -7
BITMAP
000FF000
007FFC00
00F83E00
03E01F00
07C00F00
0F800F80
1F000F80
1F000FC0
3E000FC0
7E000FC0
7C000FC0
7C000FC0
FC000FC0
FC000F80
FC000F80
FC001F80
FC001F80
FC003F00
FC003F00
7C007E00
7C00FC00
3E01FC00
3F07F800
0FFFF000
03FFC000
001F8000
000E0000
00030000
0001C000
0000F800
00003FF8
00000FC0
ENDCHAR
STARTCHAR R
ENCODING 82
SWIDTH 711 0
DWIDTH 24 0
BBX 23 25 1 0
BITMAP
07FFF0
07FFFC
01F07E
01F03E
01F03E
03E03E
03E03E
03E03C
03E07C
03E078
07C0F0
07C3E0
07FFC0
07FF80
07CF80
0F8FC0
0F87C0
0F87E0
0F83E0
0F83F0
1F01F0
1F01F8
3F00F8
FFC0FE
FFC07E
ENDCHAR
STARTCHAR S
ENCODING 83
SWIDTH 587 0
DWIDTH 20 0
BBX 20 25 2 0
BITMAP
003FC0
01FFF0
03E0F0
078070
0F8060
0F8060
0F8000
0F8000
0FC000
0FE000
07F000
03FC00
01FE00
00FF00
007F80
001F80
000FC0
000FC0
000FC0
600F80
600F80
E01F00
F83E00
FFFC00
3FE000
ENDCHAR
STARTCHAR T
ENCODING 84
SWIDTH 716 0
DWIDTH 24 0
BBX 24 25 5 0
BITMAP
7FFFFF
7FFFFF
703E06
E07C06
E07C06
007C00
007C00
007C00
00F800
00F800
00F800
00F800
01F800
01F000
01F000
01F000
01F000
03F000
03E000
03E000
03E000
07E000
07E000
3FFC00
3FF800
ENDCHAR
STARTCHAR U
ENCODING 85
SWIDTH 775 0
DWIDTH 26 0
BBX 25 25 5 0
BITMAP
7FE07F80
FFE07F80
1F800E00
1F000C00
3F001C00
3E001800
3E001800
3E001800
3E001800
7E003800
7C003000
7C003000
7C003000
7C003000
FC007000
F8006000
F8006000
F8006000
F800C000
F800C000
FC018000
7C038000
3E070000
1FFE0000
07F00000
ENDCHAR
STARTCHAR V
ENCODING 86
SWIDTH 741 0
DWIDTH 25 0
BBX 26 25 4 0
BITMAP
FFC00FC0
FFC01FC0
3F000700
3F000600
1F000E00
1F000C00
1F001800
1F003800
1F803000
0F807000
0F806000
0F80C000
0FC1C000
0FC18000
07C30000
07C70000
07C60000
07EE0000
03FC0000
03F80000
03F80000
03F00000
01E00000
01E00000
01C00000
ENDCHAR
STARTCHAR W
ENCODING 87
SWIDTH 922 0
DWIDTH 31 0
BBX 32 25 4 0
BITMAP
FF80C03F
FF81C03F
7E01C01C
3E03C018
3E03E018
3E07E030
3E07E030
3E0FE060
3E0FE060
3E1BE0C0
3E1BE0C0
3E31E180
1E31E180
1E21E300
1E61E300
1E41F600
1EC1F600
1F81FC00
1F81FC00
1F01F800
1F01F800
1E01F000
1E01E000
1C00E000
1C00C000
ENDCHAR
STARTCHAR X
ENCODING 88
SWIDTH 672 0
DWIDTH 23 0
BBX 27 25 0 0
BITMAP
03FE07E0
07FE0FE0
01F80380
00F80700
00FC0E00
007C1C00
007C1800
007E3000
003E6000
003FC000
001F8000
001F8000
000F8000
001F8000
0037C000
0067C000
00C7E000
0183E000
0303F000
0701F000
0E01F000
1C00F800
3800FC00
FE03FE00
FC07FE00
ENDCHAR
STARTCHAR Y
ENCODING 89
SWIDTH 669 0
DWIDTH 23 0
BBX 23 25 5 0
BITMAP
FFC07E
FFC0FE
7E0038
3F0030
1F0060
1F00C0
1F8180
0F8380
0F8300
07C600
07CC00
07F800
03F800
03F000
03E000
03E000
03E000
03E000
07E000
07C000
07C000
07C000
0FC000
7FF800
7FF000
ENDCHAR
STARTCHAR Z
ENCODING 90
SWIDTH 684 0
DWIDTH 23 0
BBX 23 25 2 0
BITMAP
03FFFE
07FFFE
0700FC
0701F8
0601F8
0003F0
0007E0
000FC0
000FC0
001F80
003F00
007E00
00FC00
00FC00
01F800
03F000
07E000
07E000
0FC000
1F8000
3F0070
7F0060
7E00E0
FFFFE0
FFFFE0
ENDCHAR
STARTCHAR bracketleft
ENCODING 91
SWIDTH 336 0
DWIDTH 11 0
BBX 14 32 1 -6
BITMAP
03FC
03FC
03C0
03C0
07C0
0780
0780
0780
0780
0F80
0F00
0F00
0F00
0F00
1F00
1E00
1E00
1E00
1E00
3E00
3C00
3C00
3C00
3C00
7C00
7800
7800
7800
7800
F800
FF00
FF00
ENDCHAR
STARTCHAR backslash
ENCODING 92
SWIDTH 515 0
DWIDTH 17 0
BBX 10 32 6 -6
BITMAP
C000
6000
6000
6000
6000
3000
3000
3000
3000
3000
1800
1800
1800
1800
0C00
0C00
0C00
0C00
0600
0600
0600
0600
0300
0300
0300
0300
0300
0180
0180
0180
0180
00C0
ENDCHAR
STARTCHAR bracketright
ENCODING 93
SWIDTH 336 0
DWIDTH 11 0
BBX 14 32 0 -6
BITMAP
03FC
03FC
007C
0078
0078
0078
00F8
00F8
00F0
00F0
00F0
01F0
01F0
01E0
01E0
01E0
03E0
03E0
03C0
03C0
03C0
03C0
07C0
0780
0780
0780
0780
0F80
0F00
0F00
FF00
FF00
ENDCHAR
STARTCHAR asciicircum
ENCODING 94
SWIDTH 636 0
DWIDTH 21 0
BBX 20 21 2 4
BITMAP
000400
000400
000E00
000E00
001E00
003E00
003700
007700
00E300
00C380
01C380
038380
0301C0
0701C0
0E01C0
0C00C0
1C00E0
3800E0
300060
700070
E00070
ENDCHAR
STARTCHAR underscore
ENCODING 95
SWIDTH 500 0
DWIDTH 17 0
BBX 14 2 1 -4
BITMAP
FFFC
FFFC
ENDCHAR
STARTCHAR grave
ENCODING 96
SWIDTH 599 0
DWIDTH 20 0
BBX 7 5 11 21
BITMAP
F8
38
1C
0C
06
ENDCHAR
STARTCHAR a
ENCODING 97
SWIDTH 634 0
DWIDTH 22 0
BBX 20 18 2 0
BITMAP
003FF0
01FFF0
0383E0
0703E0
0E03E0
1E03E0
3C03E0
3C07C0
7C07C0
7C0FC0
F81FC0
F837C0
F87780
F8EF80
FFCF80
FF8F80
7F0FE0
3C1FE0
ENDCHAR
STARTCHAR b
ENCODING 98
SWIDTH 633 0
DWIDTH 21 0
BBX 20 26 3 0
BITMAP
1FC000
3FC000
07C000
07C000
0F8000
0F8000
0F8000
0F8000
0F83C0
1F0FE0
1F1FF0
1F3FF0
1F71F0
1FE1F0
3EC1F0
3F81E0
3F03E0
3E03E0
3E03C0
7C03C0
7C0780
7C0700
7C0E00
7C1C00
FFF000
FFC000
ENDCHAR
STARTCHAR c
ENCODING 99
SWIDTH 524 0
DWIDTH 18 0
BBX 17 18 3 0
BITMAP
007F00
01FF80
07C780
0F0380
1E0380
3E0300
3C0000
7C0000
7C0000
F80000
F80000
F80000
F80000
F80000
FC0000
7E0600
3FFC00
0FE000
ENDCHAR
STARTCHAR d
ENCODING 100
SWIDTH 634 0
DWIDTH 22 0
BBX 21 26 3 0
BITMAP
0007F8
0007F8
0000F8
0001F0
0001F0
0001F0
0001F0
0001F0
003FE0
01FFE0
0387E0
0703E0
0E03E0
1E03C0
3C07C0
3C07C0
7C0FC0
780FC0
F81F80
F83F80
F87F80
F8EF80
FFCF80
FF8F80
7F1FE0
3C1FE0
ENDCHAR
STARTCHAR e
ENCODING 101
SWIDTH 548 0
DWIDTH 19 0
BBX 17 18 3 0
BITMAP
007C00
01FF00
071F00
0E0F00
1E0F80
3C0F00
3C1F00
7C3E00
78FC00
FFF000
FFC000
F80000
F80000
F80000
FC0300
7E0F00
3FFE00
0FF000
ENDCHAR
STARTCHAR f
ENCODING 102
SWIDTH 415 0
DWIDTH 14 0
BBX 18 34 2 -7
BITMAP
001F80
007FC0
00F1C0
01E1C0
01E180
03C180
03C000
07C000
07C000
3FFE00
3FFC00
0F8000
0F8000
0F8000
0F8000
0F0000
1F0000
1F0000
1F0000
1F0000
1E0000
3E0000
3E0000
3E0000
3E0000
3C0000
7C0000
7C0000
7C0000
7C0000
780000
F80000
F80000
F80000
ENDCHAR
STARTCHAR g
ENCODING 103
SWIDTH 628 0
DWIDTH 21 0
BBX 21 25 1 -7
BITMAP
001FF8
00FFF8
01C1F8
0380F0
0781F0
0F01F0
1F01F0
1E03F0
3E07E0
3E07E0
3C0FE0
7C1FE0
7C3FE0
7E77C0
7FE7C0
7FC7C0
3F87C0
1E0F80
000F80
800F80
C00F00
F01E00
7C1C00
7FF800
3FC000
ENDCHAR
STARTCHAR h
ENCODING 104
SWIDTH 656 0
DWIDTH 22 0
BBX 19 26 3 0
BITMAP
3FC000
3FC000
0F8000
0F8000
0F8000
0F8000
0F8000
0F8000
1F03C0
1F0FE0
1F1FE0
1F3FE0
1F73E0
3EE3E0
3EC3C0
3F87C0
3F07C0
3E07C0
7E07C0
7C0780
7C0F80
7C0F80
7C0F80
F80F80
F80FE0
F81FE0
ENDCHAR
STARTCHAR i
ENCODING 105
SWIDTH 319 0
DWIDTH 11 0
BBX 10 25 3 0
BITMAP
07C0
07C0
0780
0F80
0000
0000
0000
7F80
7F00
1F00
1F00
1F00
1E00
3E00
3E00
3E00
3E00
3C00
7C00
7C00
7C00
7C00
7C00
FF00
FF00
ENDCHAR
STARTCHAR j
ENCODING 106
SWIDTH 381 0
DWIDTH 13 0
BBX 18 32 -2 -7
BITMAP
0007C0
0007C0
000780
000F80
000000
000000
000000
007F00
007F00
001F00
001F00
001F00
001E00
003E00
003E00
003E00
003E00
003C00
007C00
007C00
007C00
007C00
007800
00F800
00F800
00F800
60F000
61F000
E1E000
E3C000
FF8000
7E0000
ENDCHAR
STARTCHAR k
ENCODING 107
SWIDTH 626 0
DWIDTH 21 0
BBX 19 26 3 0
BITMAP
3FC000
3FC000
07C000
07C000
0F8000
0F8000
0F8000
0F8000
0F83E0
1F03E0
1F03C0
1F07C0
1F0780
1F1E00
3E3C00
3EF000
3FF000
3EF800
3CF800
7C7C00
7C7C00
7C3E00
7C3F00
781F80
F80FE0
F80FE0
ENDCHAR
STARTCHAR l
ENCODING 108
SWIDTH 319 0
DWIDTH 11 0
BBX 10 26 3 0
BITMAP
3FC0
3FC0
0FC0
0F80
0F80
0F80
0F80
0F80
1F00
1F00
1F00
1F00
1F00
3E00
3E00
3E00
3E00
3E00
7C00
7C00
7C00
7C00
7C00
FC00
FF00
FF00
ENDCHAR
STARTCHAR m
ENCODING 109
SWIDTH 969 0
DWIDTH 33 0
BBX 30 18 3 0
BITMAP
7F87C0F8
7F0FC3F8
1F1FE7FC
1F3FEFFC
1F63EE7C
1EC3DC7C
3E83F878
3F87F0F8
3F07E0F8
3E07E0F8
3C07C0F8
7C0F80F0
7C0F81F0
7C0F81F0
780F81F0
780F01F0
F81F01FC
F81F03FC
ENDCHAR
STARTCHAR n
ENCODING 110
SWIDTH 656 0
DWIDTH 22 0
BBX 19 18 3 0
BITMAP
7F07C0
7F0FE0
1F1FE0
1F3FE0
1F73E0
3EE3E0
3FC3C0
3F87C0
3F07C0
3F07C0
7E07C0
7C0780
7C0F80
7C0F80
7C0F80
F80F80
F80FE0
F81FE0
ENDCHAR
STARTCHAR o
ENCODING 111
SWIDTH 599 0
DWIDTH 20 0
BBX 19 18 3 0
BITMAP
007E00
01FF80
0787C0
0F07C0
1E03E0
3E03E0
3C03E0
7C03E0
7C03E0
FC07C0
F807C0
F80780
F80F80
FC0F00
FC1E00
7E3C00
3FF000
0FC000
ENDCHAR
STARTCHAR p
ENCODING 112
SWIDTH 639 0
DWIDTH 22 0
BBX 21 25 2 -7
BITMAP
3FC1E0
3FC7F0
0F8FF8
0F9FF8
0FB8F8
0FF0F8
1F60F8
1FC0F8
1F81F0
1F01F0
1F01E0
1E01E0
3E03C0
3E0380
3E0700
3F0E00
3FFC00
7FE000
7C0000
7C0000
7C0000
7C0000
F80000
F80000
F80000
ENDCHAR
STARTCHAR q
ENCODING 113
SWIDTH 630 0
DWIDTH 21 0
BBX 20 25 2 -7
BITMAP
003FF0
01FFF0
0383F0
0703E0
0E03E0
1E03E0
3C03E0
3C07E0
7C07C0
780FC0
F81FC0
F837C0
F877C0
F8EF80
FFCF80
FF8F80
7F0F80
3C0F80
001F00
001F00
001F00
001F00
001F00
003E00
003E00
ENDCHAR
STARTCHAR r
ENCODING 114
SWIDTH 496 0
DWIDTH 17 0
BBX 17 18 3 0
BITMAP
7F0780
7F0F80
1F3F00
1F7F00
1F7200
3EE000
3FC000
3F8000
3F0000
3E0000
7E0000
7C0000
7C0000
7C0000
7C0000
F80000
F80000
F80000
ENDCHAR
STARTCHAR s
ENCODING 115
SWIDTH 479 0
DWIDTH 16 0
BBX 16 18 2 0
BITMAP
01FE
07FF
0F07
0F06
1F06
1F06
0F80
0FC0
07F0
03F8
01F8
00FC
607C
607C
E07C
F0F8
FFF0
3FC0
ENDCHAR
STARTCHAR t
ENCODING 116
SWIDTH 375 0
DWIDTH 13 0
BBX 12 23 3 0
BITMAP
0380
0F00
1F00
1F00
1F00
FFF0
FFF0
1E00
3E00
3E00
3E00
3E00
7C00
7C00
7C00
7C00
7C00
F800
F800
F800
FC00
7F80
3F00
ENDCHAR
STARTCHAR u
ENCODING 117
SWIDTH 655 0
DWIDTH 22 0
BBX 19 18 4 0
BITMAP
FF1FE0
FF1FE0
3E07E0
3E07C0
3E07C0
3E07C0
3C07C0
7C07C0
7C0F80
7C1F80
7C3F80
786F80
F8EF80
F9CF00
FF9F00
FF1F00
FE1FC0
781FC0
ENDCHAR
STARTCHAR v
ENCODING 118
SWIDTH 584 0
DWIDTH 20 0
BBX 20 18 3 0
BITMAP
FE03F0
FE01F0
3F01F0
3F01F0
1F01E0
1F01C0
1F8380
0F8380
0F8700
0F8E00
0F9C00
07D800
07F000
07E000
07C000
078000
078000
070000
ENDCHAR
STARTCHAR w
ENCODING 119
SWIDTH 822 0
DWIDTH 28 0
BBX 28 18 3 0
BITMAP
FC0303F0
FE0301F0
3E0380F0
1E0781E0
1F0781E0
1F0FC1C0
0F0FC380
0F1FC380
0F9BC700
0FBBCE00
0FF3EC00
0FE1FC00
0FE1F800
07C1F000
0781E000
0701E000
0701C000
06018000
ENDCHAR
STARTCHAR x
ENCODING 120
SWIDTH 534 0
DWIDTH 18 0
BBX 18 18 1 0
BITMAP
3F07C0
3F83C0
0F83C0
07C380
07C380
03E600
03EC00
01F800
01F000
01F000
03F800
0EF800
1C7C00
387C00
703E00
F03E00
F01F80
F01F80
ENDCHAR
STARTCHAR y
ENCODING 121
SWIDTH 586 0
DWIDTH 20 0
BBX 23 25 0 -7
BITMAP
1FC07E
1FC03E
07E01E
03E01E
03E01C
01F03C
01F038
01F070
01F0E0
00F0C0
00F9C0
00FB80
00FF00
00FE00
00FC00
007800
007000
007000
006000
00C000
038000
070000
0F0000
1E0000
FE0000
ENDCHAR
STARTCHAR z
ENCODING 122
SWIDTH 567 0
DWIDTH 19 0
BBX 19 18 2 0
BITMAP
0FFFE0
0FFFE0
1C07C0
1C0F80
181F00
003E00
007E00
00FC00
01F800
03F000
07E000
0FC000
0F8000
1F0180
3F0180
7E0380
FFFF00
FFFF00
ENDCHAR
STARTCHAR braceleft
ENCODING 123
SWIDTH 361 0
DWIDTH 12 0
BBX 12 32 3 -6
BITMAP
00F0
03F0
07C0
0780
0F80
0F80
0F80
0F80
0F80
0F80
0F80
0F00
0F00
1E00
1E00
F800
F000
3800
1C00
1C00
1E00
3E00
3C00
7C00
7C00
F800
F800
F800
F800
F800
7C00
1C00
ENDCHAR
STARTCHAR bar
ENCODING 124
SWIDTH 253 0
DWIDTH 9 0
BBX 9 32 2 -6
BITMAP
0380
0380
0380
0300
0700
0700
0700
0700
0600
0E00
0E00
0E00
0E00
0C00
1C00
1C00
1C00
1C00
1800
3800
3800
3800
3800
3000
7000
7000
7000
7000
6000
E000
E000
E000
ENDCHAR
STARTCHAR braceright
ENCODING 125
SWIDTH 361 0
DWIDTH 12 0
BBX 12 32 1 -6
BITMAP
0380
03E0
00F0
00F0
00F0
01F0
01F0
03E0
03E0
03C0
07C0
07C0
0380
0380
01C0
00F0
01F0
0380
0780
0F00
0F00
1F00
1F00
1F00
1F00
1F00
1F00
1F00
1E00
3E00
FC00
F000
ENDCHAR
STARTCHAR asciitilde
ENCODING 126
SWIDTH 636 0
DWIDTH 21 0
BBX 21 7 2 6
BITMAP
0F8000
3FC018
31E010
60F830
403C20
C01FE0
C00F80
ENDCHAR
STARTCHAR space
ENCODING 160
SWIDTH 333 0
DWIDTH 11 0
BBX 1 1 0 0
BITMAP
00
ENDCHAR
STARTCHAR exclamdown
ENCODING 161
SWIDTH 265 0
DWIDTH 9 0
BBX 10 25 0 -7
BITMAP
07C0
07C0
0F80
0F80
0000
0000
0000
0700
0E00
0E00
0E00
1E00
1E00
1E00
3E00
3E00
3E00
3C00
7C00
7C00
7C00
7C00
FC00
F800
F800
ENDCHAR
STARTCHAR cent
ENCODING 162
SWIDTH 636 0
DWIDTH 22 0
BBX 18 25 5 0
BITMAP
001800
001800
001800
007F80
01FFC0
07B380
0F3180
1F3180
3E2380
3C2000
7C6000
7C6000
F86000
F84000
F84000
F84000
F8C000
F8C000
FC8000
7E8200
7FFE00
1FF800
078000
010000
010000
ENDCHAR
STARTCHAR sterling
ENCODING 163
SWIDTH 636 0
DWIDTH 22 0
BBX 20 25 4 0
BITMAP
000FC0
003FF0
0078F0
00F870
00F060
01F060
01F000
01E000
03E000
03E000
03E000
1FFE00
1FFC00
07C000
07C000
07C000
07C000
0F8000
0F0000
0E0000
380000
7FFF00
7FFF00
FFFE00
FFFE00
ENDCHAR
STARTCHAR currency
ENCODING 164
SWIDTH 636 0
DWIDTH 22 0
BBX 25 23 1 1
BITMAP
04000100
0C000380
06000600
07000C00
033F1800
01FFB000
01E1E000
01C0E000
03806000
03007000
07007000
07007000
06006000
0700E000
0700E000
0301C000
07878000
0FFFC000
1CFEC000
38006000
70003000
E0001800
40001000
ENDCHAR
STARTCHAR yen
ENCODING 165
SWIDTH 636 0
DWIDTH 22 0
BBX 23 25 4 0
BITMAP
FF807E
FF807E
7E0038
3F0070
1F0060
1F00C0
0F81C0
0F8380
07C700
07CE00
03FC00
03F800
03F000
3FFF00
3FFF00
03E000
03E000
3FFE00
7FFE00
07C000
07C000
07C000
0FC000
3FF000
3FF000
ENDCHAR
STARTCHAR brokenbar
ENCODING 166
SWIDTH 253 0
DWIDTH 9 0
BBX 9 32 2 -6
BITMAP
0380
0380
0380
0300
0700
0700
0700
0700
0600
0E00
0E00
0E00
0E00
0C00
1C00
0000
0000
1C00
1800
3800
3800
3800
3800
3000
7000
7000
7000
7000
6000
E000
E000
E000
ENDCHAR
STARTCHAR section
ENCODING 167
SWIDTH 636 0
DWIDTH 22 0
BBX 20 32 3 -7
BITMAP
003FC0
01FFF0
03E0F0
07C070
078060
0F8060
0F8000
0F8000
07E000
07F800
03FE00
03FF00
067F80
0E1FC0
1C07C0
1C03C0
3E03C0
3F0380
1FC380
1FF700
0FFE00
03FE00
00FF00
003F00
000F80
000F80
600F00
600F00
E01E00
F03C00
FFF800
1FE000
ENDCHAR
STARTCHAR dieresis
ENCODING 168
SWIDTH 599 0
DWIDTH 20 0
BBX 11 3 10 22
BITMAP
71E0
F1E0
F1C0
ENDCHAR
STARTCHAR copyright
ENCODING 169
SWIDTH 853 0
DWIDTH 29 0
BBX 26 25 4 0
BITMAP
003F8000
01FFE000
07C0F800
0E001C00
1C000E00
380FC300
307FF300
60F06180
41E06080
C1C000C0
C38000C0
C3800040
C3800040
C3800040
C38000C0
C38000C0
43C00080
61E08180
31FF8300
387F0300
1C000E00
0E001C00
07C0F800
01FFE000
003F8000
ENDCHAR
STARTCHAR ordfeminine
ENCODING 170
SWIDTH 468 0
DWIDTH 16 0
BBX 15 14 4 11
BITMAP
03FE
0FFC
1E3C
3C3C
383C
787C
70F8
F0F8
F1F8
F378
FE78
FEF8
FCFE
70FE
ENDCHAR
STARTCHAR guillemotleft
ENCODING 171
SWIDTH 527 0
DWIDTH 18 0
BBX 17 16 3 1
BITMAP
008100
01C380
038700
070F00
0F1E00
1E3C00
3C7800
78F000
F9F000
78F000
3C7800
3C7800
1E3C00
0E1C00
0E1C00
040800
ENDCHAR
STARTCHAR logicalnot
ENCODING 172
SWIDTH 636 0
DWIDTH 21 0
BBX 20 9 3 5
BITMAP
FFFFF0
FFFFF0
000070
000060
000060
0000E0
0000E0
0000E0
0000C0
ENDCHAR
STARTCHAR hyphen
ENCODING 173
SWIDTH 289 0
DWIDTH 10 0
BBX 8 3 3 10
BITMAP
7F
FF
FE
ENDCHAR
STARTCHAR registered
ENCODING 174
SWIDTH 636 0
DWIDTH 22 0
BBX 15 17 6 8
BITMAP
07C0
1FF0
3838
700C
67F6
C7F6
C632
C632
C7E2
C7C2
C4C2
CCE6
7C66
700C
3838
1FF0
07C0
ENDCHAR
STARTCHAR macron
ENCODING 175
SWIDTH 599 0
DWIDTH 20 0
BBX 11 2 10 23
BITMAP
FFE0
FFE0
ENDCHAR
STARTCHAR degree
ENCODING 176
SWIDTH 259 0
DWIDTH 9 0
BBX 6 6 7 19
BITMAP
70
F8
C8
CC
F8
70
ENDCHAR
STARTCHAR plusminus
ENCODING 177
SWIDTH 636 0
DWIDTH 21 0
BBX 22 21 1 0
BITMAP
000E00
000C00
000C00
000C00
001C00
001C00
001C00
1FFFFC
3FFFFC
001800
003800
003800
003000
003000
003000
007000
000000
000000
000000
FFFFF0
FFFFF0
ENDCHAR
STARTCHAR twosuperior
ENCODING 178
SWIDTH 381 0
DWIDTH 13 0
BBX 12 15 -21 10
BITMAP
0FC0
18E0
1070
1070
0070
00E0
00C0
0380
0600
0800
1000
2000
6000
FFC0
FFC0
ENDCHAR
STARTCHAR threesuperior
ENCODING 179
SWIDTH 381 0
DWIDTH 13 0
BBX 11 15 -21 10
BITMAP
1FC0
18E0
10E0
00E0
00E0
00C0
0300
1F80
03C0
01C0
01C0
01C0
C1C0
C380
FE00
ENDCHAR
STARTCHAR acute
ENCODING 180
SWIDTH 599 0
DWIDTH 20 0
BBX 9 5 12 21
BITMAP
0F80
1E00
3C00
7000
E000
ENDCHAR
STARTCHAR mu
ENCODING 181
SWIDTH 687 0
DWIDTH 23 0
BBX 21 24 2 -6
BITMAP
3FC7F8
3F87F8
0F81F8
0F81F0
0F81F0
0F01F0
1F01F0
1F01F0
1F03E0
1F07E0
1E07E0
3E0FE0
3E1BE0
3E7FC0
3FF7C0
3FE7C0
7FC7D0
7F8FF0
7C0000
7C0000
7C0000
F80000
F80000
F80000
ENDCHAR
STARTCHAR paragraph
ENCODING 182
SWIDTH 636 0
DWIDTH 22 0
BBX 15 31 6 -6
BITMAP
1FFE
3FFE
7F84
7F84
FF8C
FF8C
FF0C
FF0C
FF08
7F18
7F18
3E18
0E18
0610
0610
0630
0430
0430
0C20
0C20
0C60
0C60
0860
1840
1840
18C0
18C0
10C0
10C0
3080
3180
ENDCHAR
STARTCHAR periodcentered
ENCODING 183
SWIDTH 636 0
DWIDTH 21 0
BBX 5 4 10 8
BITMAP
78
78
F0
F0
ENDCHAR
STARTCHAR cedilla
ENCODING 184
SWIDTH 599 0
DWIDTH 20 0
BBX 6 8 6 -7
BITMAP
18
30
78
1C
1C
1C
FC
F8
ENDCHAR
STARTCHAR onesuperior
ENCODING 185
SWIDTH 381 0
DWIDTH 13 0
BBX 8 15 -22 10
BITMAP
3F
07
07
0E
0E
0E
0E
0E
0C
1C
1C
1C
1C
3C
FF
ENDCHAR
STARTCHAR ordmasculine
ENCODING 186
SWIDTH 468 0
DWIDTH 16 0
BBX 15 14 4 11
BITMAP
01F8
07FC
0E3E
1C1E
381E
781E
781E
F01C
F03C
F038
F870
F8E0
7FC0
1F00
ENDCHAR
STARTCHAR guillemotright
ENCODING 187
SWIDTH 527 0
DWIDTH 18 0
BBX 17 16 2 1
BITMAP
081000
1C3800
1C3800
1E3C00
0F1E00
0F1E00
078F00
07CF80
078F00
0F1E00
1E3C00
3C7800
787000
70E000
E1C000
408000
ENDCHAR
STARTCHAR onequarter
ENCODING 188
SWIDTH 818 0
DWIDTH 28 0
BBX 28 25 6 0
BITMAP
3F0000F0
070001C0
07000380
0E000780
0E000F00
0E001E00
0E001C00
0E003800
0C007000
1C00E000
1C01C1C0
1C0383C0
1C070580
3C0E0B80
FF1C1380
00382380
00706300
00E0C300
01C18300
0383FFC0
0783FFC0
0F000600
0E000600
1C000E00
78003F80
ENDCHAR
STARTCHAR onehalf
ENCODING 189
SWIDTH 818 0
DWIDTH 28 0
BBX 28 25 6 0
BITMAP
3F0000F0
070001C0
07000380
0E000780
0E000F00
0E001E00
0E001C00
0E003800
0C007000
1C00E000
1C01FF00
1C03E380
1C0741C0
3C0E41C0
FF1C01C0
00380380
00700300
00E00E00
01C01800
03802000
07804000
0F008000
0E018000
1C03FF00
7803FF00
ENDCHAR
STARTCHAR threequarters
ENCODING 190
SWIDTH 818 0
DWIDTH 28 0
BBX 28 25 6 0
BITMAP
1FC000F0
18E001C0
10E00380
00E00780
00E00F00
00C01E00
03001C00
1F803800
03C07000
01C0E000
01C1C1C0
01C383C0
C1C70580
C38E0B80
FE1C1380
00382380
00706300
00E0C300
01C18300
0383FFC0
0783FFC0
0F000600
0E000600
1C000E00
78003F80
ENDCHAR
STARTCHAR questiondown
ENCODING 191
SWIDTH 493 0
DWIDTH 17 0
BBX 15 25 1 -7
BITMAP
003E
003E
003C
007C
0000
0000
0000
007C
00F8
00F0
00F0
01E0
0180
0300
0E00
1C00
3C00
7800
F800
F80E
F80C
FC1C
7E1C
3FFC
1FE0
ENDCHAR
STARTCHAR Agrave
ENCODING 192
SWIDTH 765 0
DWIDTH 26 0
BBX 26 32 0 0
BITMAP
0003E000
0000E000
00007000
00003000
00001800
00000000
00000000
0000E000
0001E000
0001F000
0003F000
0003F000
0007F000
000FF000
000CF800
0018F800
0038F800
0030F800
00607C00
00607C00
00C07C00
01807C00
01FFFC00
03FFFE00
07003E00
06003E00
0C003E00
0C001F00
18001F00
38001F80
FE00FFC0
FE00FFC0
ENDCHAR
STARTCHAR Aacute
ENCODING 193
SWIDTH 765 0
DWIDTH 26 0
BBX 26 32 0 0
BITMAP
00001F00
00003C00
00007800
0000E000
0001C000
00000000
00000000
0000E000
0001E000
0001F000
0003F000
0003F000
0007F000
000FF000
000CF800
0018F800
0038F800
0030F800
00607C00
00607C00
00C07C00
01807C00
01FFFC00
03FFFE00
07003E00
06003E00
0C003E00
0C001F00
18001F00
38001F80
FE00FFC0
FE00FFC0
ENDCHAR
STARTCHAR Acircumflex
ENCODING 194
SWIDTH 765 0
DWIDTH 26 0
BBX 26 32 0 0
BITMAP
00007C00
0000FC00
0001FE00
00038E00
00070300
00000000
00000000
0000E000
0001E000
0001F000
0003F000
0003F000
0007F000
000FF000
000CF800
0018F800
0038F800
0030F800
00607C00
00607C00
00C07C00
01807C00
01FFFC00
03FFFE00
07003E00
06003E00
0C003E00
0C001F00
18001F00
38001F80
FE00FFC0
FE00FFC0
ENDCHAR
STARTCHAR Atilde
ENCODING 195
SWIDTH 765 0
DWIDTH 26 0
BBX 26 31 0 0
BITMAP
0001E180
0003FF00
0003FF00
00061E00
00000000
00000000
0000E000
0001E000
0001F000
0003F000
0003F000
0007F000
000FF000
000CF800
0018F800
0038F800
0030F800
00607C00
00607C00
00C07C00
01807C00
01FFFC00
03FFFE00
07003E00
06003E00
0C003E00
0C001F00
18001F00
38001F80
FE00FFC0
FE00FFC0
ENDCHAR
STARTCHAR Adieresis
ENCODING 196
SWIDTH 765 0
DWIDTH 26 0
BBX 26 30 0 0
BITMAP
00038F00
00078F00
00078E00
00000000
00000000
0000E000
0001E000
0001F000
0003F000
0003F000
0007F000
000FF000
000CF800
0018F800
0038F800
0030F800
00607C00
00607C00
00C07C00
01807C00
01FFFC00
03FFFE00
07003E00
06003E00
0C003E00
0C001F00
18001F00
38001F80
FE00FFC0
FE00FFC0
ENDCHAR
STARTCHAR Aring
ENCODING 197
SWIDTH 765 0
DWIDTH 26 0
BBX 26 32 0 0
BITMAP
00007000
0000D800
00008800
0000D800
00007000
00000000
00000000
0000E000
0001E000
0001F000
0003F000
0003F000
0007F000
000FF000
000CF800
0018F800
0038F800
0030F800
00607C00
00607C00
00C07C00
01807C00
01FFFC00
03FFFE00
07003E00
06003E00
0C003E00
0C001F00
18001F00
38001F80
FE00FFC0
FE00FFC0
ENDCHAR
STARTCHAR AE
ENCODING 198
SWIDTH 958 0
DWIDTH 33 0
BBX 35 25 0 0
BITMAP
00001FFFE0
00001FFFE0
00003F00E0
00007F00C0
0000DF00C0
0001DF0000
00019F0000
00033E0000
00063E0000
000E3E0600
000C3E0600
00183FFE00
00307FFE00
00607C0E00
00607C0C00
00C07C0000
01FFFC0000
03FFF80000
0600F80000
0600F80000
0C00F80700
1800F80700
3801F80E00
FC07FFFE00
FC0FFFFE00
ENDCHAR
STARTCHAR Ccedilla
ENCODING 199
SWIDTH 740 0
DWIDTH 25 0
BBX 24 32 4 -7
BITMAP
000FFC
007FFF
01F81F
03E00E
07C006
0F8006
1F000E
1E0000
3E0000
7E0000
7C0000
7C0000
FC0000
FC0000
FC0000
FC0000
FC0000
FC0000
FC0000
7C0000
7E0000
3F0000
1F8070
0FFFF0
03FF00
018000
03C000
00E000
00E000
00E000
07E000
07C000
ENDCHAR
STARTCHAR Egrave
ENCODING 200
SWIDTH 630 0
DWIDTH 21 0
BBX 23 32 1 0
BITMAP
001F00
000700
000380
000180
0000C0
000000
000000
07FFFE
07FFFE
01F00E
01F00C
01F00C
01F000
03E000
03E000
03E000
03E060
03E0C0
07FFC0
07FFC0
07C0C0
07C0C0
07C000
0F8000
0F8000
0F8000
0F8000
1F8070
1F0060
3F00E0
FFFFE0
FFFFE0
ENDCHAR
STARTCHAR Eacute
ENCODING 201
SWIDTH 630 0
DWIDTH 21 0
BBX 23 32 1 0
BITMAP
0000F8
0001E0
0003C0
000700
000E00
000000
000000
07FFFE
07FFFE
01F00E
01F00C
01F00C
01F000
03E000
03E000
03E000
03E060
03E0C0
07FFC0
07FFC0
07C0C0
07C0C0
07C000
0F8000
0F8000
0F8000
0F8000
1F8070
1F0060
3F00E0
FFFFE0
FFFFE0
ENDCHAR
STARTCHAR Ecircumflex
ENCODING 202
SWIDTH 630 0
DWIDTH 21 0
BBX 23 32 1 0
BITMAP
0007C0
000FC0
001FE0
0038E0
007030
000000
000000
07FFFE
07FFFE
01F00E
01F00C
01F00C
01F000
03E000
03E000
03E000
03E060
03E0C0
07FFC0
07FFC0
07C0C0
07C0C0
07C000
0F8000
0F8000
0F8000
0F8000
1F8070
1F0060
3F00E0
FFFFE0
FFFFE0
ENDCHAR
STARTCHAR Edieresis
ENCODING 203
SWIDTH 630 0
DWIDTH 21 0
BBX 23 30 1 0
BITMAP
001C78
003C78
003C70
000000
000000
07FFFE
07FFFE
01F00E
01F00C
01F00C
01F000
03E000
03E000
03E000
03E060
03E0C0
07FFC0
07FFC0
07C0C0
07C0C0
07C000
0F8000
0F8000
0F8000
0F8000
1F8070
1F0060
3F00E0
FFFFE0
FFFFE0
ENDCHAR
STARTCHAR Igrave
ENCODING 204
SWIDTH 372 0
DWIDTH 13 0
BBX 15 32 1 0
BITMAP
03E0
00E0
0070
0030
0018
0000
0000
07FE
0FFE
01F8
01F0
03F0
03E0
03E0
03E0
03E0
03E0
07C0
07C0
07C0
07C0
07C0
0F80
0F80
0F80
0F80
0F80
1F00
1F00
3F00
FFE0
FFC0
ENDCHAR
STARTCHAR Iacute
ENCODING 205
SWIDTH 372 0
DWIDTH 13 0
BBX 16 32 1 0
BITMAP
001F
003C
0078
00E0
01C0
0000
0000
07FE
0FFE
01F8
01F0
03F0
03E0
03E0
03E0
03E0
03E0
07C0
07C0
07C0
07C0
07C0
0F80
0F80
0F80
0F80
0F80
1F00
1F00
3F00
FFE0
FFC0
ENDCHAR
STARTCHAR Icircumflex
ENCODING 206
SWIDTH 372 0
DWIDTH 13 0
BBX 16 32 1 0
BITMAP
007C
00FC
01FE
038E
0703
0000
0000
07FE
0FFE
01F8
01F0
03F0
03E0
03E0
03E0
03E0
03E0
07C0
07C0
07C0
07C0
07C0
0F80
0F80
0F80
0F80
0F80
1F00
1F00
3F00
FFE0
FFC0
ENDCHAR
STARTCHAR Idieresis
ENCODING 207
SWIDTH 372 0
DWIDTH 13 0
BBX 16 30 1 0
BITMAP
038F
078F
078E
0000
0000
07FE
0FFE
01F8
01F0
03F0
03E0
03E0
03E0
03E0
03E0
07C0
07C0
07C0
07C0
07C0
0F80
0F80
0F80
0F80
0F80
1F00
1F00
3F00
FFE0
FFC0
ENDCHAR
STARTCHAR Eth
ENCODING 208
SWIDTH 822 0
DWIDTH 28 0
BBX 28 25 1 0
BITMAP
07FFFC00
07FFFF00
01F01FC0
01F007E0
01F003E0
01F003F0
03F003F0
03E001F0
03E001F0
03E001F0
07E001F0
3FFF01F0
3FFF03F0
07C003E0
07C003E0
0FC003E0
0FC007C0
0F8007C0
0F800F80
0F801F80
1F803F00
1F807E00
3F81F800
FFFFF000
FFFF8000
ENDCHAR
STARTCHAR Ntilde
ENCODING 209
SWIDTH 797 0
DWIDTH 27 0
BBX 30 31 1 0
BITMAP
0003C300
0007FE00
0007FE00
000C3C00
00000000
00000000
07E003FC
07F003FC
01F000F0
01F800E0
01FC00E0
01FC00C0
03FE00C0
03BE01C0
03BF01C0
031F0180
031F8180
070F8180
0707C380
0707C380
0603E300
0603E300
0E01F700
0E01F700
0C00FF00
0C00FE00
1C007E00
1C003E00
3C003E00
FF001E00
FF001C00
ENDCHAR
STARTCHAR Ograve
ENCODING 210
SWIDTH 831 0
DWIDTH 28 0
BBX 26 32 4 0
BITMAP
000F8000
00038000
0001C000
0000C000
00006000
00000000
00000000
000FF000
007FFC00
00F83E00
03E01F00
07C00F80
0F800F80
1F000F80
1F000FC0
3E000FC0
7E000FC0
7C000FC0
7C000FC0
FC000F80
FC000F80
FC000F80
FC001F00
FC001F00
FC003E00
FC003C00
7C007C00
7C00F800
3E01E000
1F07C000
0FFF0000
03F80000
ENDCHAR
STARTCHAR Oacute
ENCODING 211
SWIDTH 831 0
DWIDTH 28 0
BBX 26 32 4 0
BITMAP
00007C00
0000F000
0001E000
00038000
00070000
00000000
00000000
000FF000
007FFC00
00F83E00
03E01F00
07C00F80
0F800F80
1F000F80
1F000FC0
3E000FC0
7E000FC0
7C000FC0
7C000FC0
FC000F80
FC000F80
FC000F80
FC001F00
FC001F00
FC003E00
FC003C00
7C007C00
7C00F800
3E01E000
1F07C000
0FFF0000
03F80000
ENDCHAR
STARTCHAR Ocircumflex
ENCODING 212
SWIDTH 831 0
DWIDTH 28 0
BBX 26 32 4 0
BITMAP
0003E000
0007E000
000FF000
001C7000
00381800
00000000
00000000
000FF000
007FFC00
00F83E00
03E01F00
07C00F80
0F800F80
1F000F80
1F000FC0
3E000FC0
7E000FC0
7C000FC0
7C000FC0
FC000F80
FC000F80
FC000F80
FC001F00
FC001F00
FC003E00
FC003C00
7C007C00
7C00F800
3E01E000
1F07C000
0FFF0000
03F80000
ENDCHAR
STARTCHAR Otilde
ENCODING 213
SWIDTH 831 0
DWIDTH 28 0
BBX 26 31 4 0
BITMAP
000F0C00
001FF800
001FF800
0030F000
00000000
00000000
000FF000
007FFC00
00F83E00
03E01F00
07C00F80
0F800F80
1F000F80
1F000FC0
3E000FC0
7E000FC0
7C000FC0
7C000FC0
FC000F80
FC000F80
FC000F80
FC001F00
FC001F00
FC003E00
FC003C00
7C007C00
7C00F800
3E01E000
1F07C000
0FFF0000
03F80000
ENDCHAR
STARTCHAR Odieresis
ENCODING 214
SWIDTH 831 0
DWIDTH 28 0
BBX 26 30 4 0
BITMAP
001C7800
003C7800
003C7000
00000000
00000000
000FF000
007FFC00
00F83E00
03E01F00
07C00F80
0F800F80
1F000F80
1F000FC0
3E000FC0
7E000FC0
7C000FC0
7C000FC0
FC000F80
FC000F80
FC000F80
FC001F00
FC001F00
FC003E00
FC003C00
7C007C00
7C00F800
3E01E000
1F07C000
0FFF0000
03F80000
ENDCHAR
STARTCHAR multiply
ENCODING 215
SWIDTH 636 0
DWIDTH 21 0
BBX 23 21 1 0
BITMAP
040004
1C000E
0E001C
070038
078070
0381E0
01C3C0
00E780
00FE00
007C00
003800
007C00
00FE00
03CE00
078700
0F0380
1C03C0
3801C0
7000E0
E00070
400040
ENDCHAR
STARTCHAR Oslash
ENCODING 216
SWIDTH 831 0
DWIDTH 28 0
BBX 30 25 2 0
BITMAP
0003FC1C
001FFF38
003E0FF0
00F807E0
01F003E0
03E003E0
07C007F0
07C01FF0
0F8039F0
1F8073F0
1F00E3F0
1F01C3F0
3F0383F0
3F0703E0
3F1C03E0
3F3807E0
3F7007C0
3FE00F80
3FC00F80
1F801F00
1F003E00
0F807C00
1FC1F000
33FFE000
E0FF0000
ENDCHAR
STARTCHAR Ugrave
ENCODING 217
SWIDTH 775 0
DWIDTH 26 0
BBX 25 32 5 0
BITMAP
007C0000
001C0000
000E0000
00060000
00030000
00000000
00000000
7FE07F80
FFE07F80
1F800E00
1F000C00
3F001C00
3E001800
3E001800
3E001800
3E001800
7E003800
7C003000
7C003000
7C003000
7C003000
FC007000
F8006000
F8006000
F8006000
F800C000
F800C000
FC018000
7C038000
3E070000
1FFE0000
07F00000
ENDCHAR
STARTCHAR Uacute
ENCODING 218
SWIDTH 775 0
DWIDTH 26 0
BBX 25 32 5 0
BITMAP
0001F000
0003C000
00078000
000E0000
001C0000
00000000
00000000
7FE07F80
FFE07F80
1F800E00
1F000C00
3F001C00
3E001800
3E001800
3E001800
3E001800
7E003800
7C003000
7C003000
7C003000
7C003000
FC007000
F8006000
F8006000
F8006000
F800C000
F800C000
FC018000
7C038000
3E070000
1FFE0000
07F00000
ENDCHAR
STARTCHAR Ucircumflex
ENCODING 219
SWIDTH 775 0
DWIDTH 26 0
BBX 25 32 5 0
BITMAP
000F8000
001F8000
003FC000
0071C000
00E06000
00000000
00000000
7FE07F80
FFE07F80
1F800E00
1F000C00
3F001C00
3E001800
3E001800
3E001800
3E001800
7E003800
7C003000
7C003000
7C003000
7C003000
FC007000
F8006000
F8006000
F8006000
F800C000
F800C000
FC018000
7C038000
3E070000
1FFE0000
07F00000
ENDCHAR
STARTCHAR Udieresis
ENCODING 220
SWIDTH 775 0
DWIDTH 26 0
BBX 25 30 5 0
BITMAP
0071E000
00F1E000
00F1C000
00000000
00000000
7FE07F80
FFE07F80
1F800E00
1F000C00
3F001C00
3E001800
3E001800
3E001800
3E001800
7E003800
7C003000
7C003000
7C003000
7C003000
FC007000
F8006000
F8006000
F8006000
F800C000
F800C000
FC018000
7C038000
3E070000
1FFE0000
07F00000
ENDCHAR
STARTCHAR Yacute
ENCODING 221
SWIDTH 669 0
DWIDTH 23 0
BBX 23 32 5 0
BITMAP
0007C0
000F00
001E00
003800
007000
000000
000000
FFC07E
FFC0FE
7E0038
3F0030
1F0060
1F00C0
1F8180
0F8380
0F8300
07C600
07CC00
07F800
03F800
03F000
03E000
03E000
03E000
03E000
07E000
07C000
07C000
07C000
0FC000
7FF800
7FF000
ENDCHAR
STARTCHAR Thorn
ENCODING 222
SWIDTH 628 0
DWIDTH 21 0
BBX 22 25 1 0
BITMAP
07FE00
07FE00
01F800
01F000
01F000
01FFE0
03FFF8
03E1F8
03E0FC
03E07C
07C07C
07C07C
07C07C
07C0F8
07C0F8
0F81F0
0F81F0
0F87C0
0FFF80
0FFE00
1F0000
1F0000
3F0000
FFE000
FFC000
ENDCHAR
STARTCHAR germandbls
ENCODING 223
SWIDTH 656 0
DWIDTH 22 0
BBX 21 34 2 -7
BITMAP
001F80
007FE0
00F1F0
01E0F0
03E0F0
03E0F0
03E0E0
07C1C0
07C180
07C300
07C600
07CE00
0F9E00
0F9F00
0F9F80
0F8FC0
0F87E0
1F03F0
1F01F0
1F00F8
1F0078
1F0078
3E3078
3E3070
3E70F0
3E7FE0
3E3F80
7C0000
7C0000
7C0000
7C0000
7C0000
F80000
F80000
ENDCHAR
STARTCHAR agrave
ENCODING 224
SWIDTH 634 0
DWIDTH 22 0
BBX 20 25 2 0
BITMAP
003E00
000E00
000700
000300
000180
000000
000000
003FF0
01FFF0
0383E0
0703E0
0E03E0
1E03E0
3C03E0
3C07C0
7C07C0
7C0FC0
F81FC0
F837C0
F87780
F8EF80
FFCF80
FF8F80
7F0FE0
3C1FE0
ENDCHAR
STARTCHAR aacute
ENCODING 225
SWIDTH 634 0
DWIDTH 22 0
BBX 20 25 2 0
BITMAP
0001F0
0003C0
000780
000E00
001C00
000000
000000
003FF0
01FFF0
0383E0
0703E0
0E03E0
1E03E0
3C03E0
3C07C0
7C07C0
7C0FC0
F81FC0
F837C0
F87780
F8EF80
FFCF80
FF8F80
7F0FE0
3C1FE0
ENDCHAR
STARTCHAR acircumflex
ENCODING 226
SWIDTH 634 0
DWIDTH 22 0
BBX 20 25 2 0
BITMAP
000F80
001F80
003FC0
0071C0
00E060
000000
000000
003FF0
01FFF0
0383E0
0703E0
0E03E0
1E03E0
3C03E0
3C07C0
7C07C0
7C0FC0
F81FC0
F837C0
F87780
F8EF80
FFCF80
FF8F80
7F0FE0
3C1FE0
ENDCHAR
STARTCHAR atilde
ENCODING 227
SWIDTH 634 0
DWIDTH 22 0
BBX 20 24 2 0
BITMAP
003C30
007FE0
007FE0
00C3C0
000000
000000
003FF0
01FFF0
0383E0
0703E0
0E03E0
1E03E0
3C03E0
3C07C0
7C07C0
7C0FC0
F81FC0
F837C0
F87780
F8EF80
FFCF80
FF8F80
7F0FE0
3C1FE0
ENDCHAR
STARTCHAR adieresis
ENCODING 228
SWIDTH 634 0
DWIDTH 22 0
BBX 20 23 2 0
BITMAP
0071E0
00F1E0
00F1C0
000000
000000
003FF0
01FFF0
0383E0
0703E0
0E03E0
1E03E0
3C03E0
3C07C0
7C07C0
7C0FC0
F81FC0
F837C0
F87780
F8EF80
FFCF80
FF8F80
7F0FE0
3C1FE0
ENDCHAR
STARTCHAR aring
ENCODING 229
SWIDTH 634 0
DWIDTH 22 0
BBX 20 25 2 0
BITMAP
000700
000D80
000880
000D80
000700
000000
000000
003FF0
01FFF0
0383E0
0703E0
0E03E0
1E03E0
3C03E0
3C07C0
7C07C0
7C0FC0
F81FC0
F837C0
F87780
F8EF80
FFCF80
FF8F80
7F0FE0
3C1FE0
ENDCHAR
STARTCHAR ae
ENCODING 230
SWIDTH 905 0
DWIDTH 31 0
BBX 29 18 2 0
BITMAP
007FF3E0
01FFFFF0
0387F8F8
0703F0F8
0E03E0F8
1E03E0F8
3E03C0F0
3C03C0E0
7C07C1C0
7C0FC780
F81FFE00
F81F8000
F8378000
F867C000
F8C7C018
FF83E0F8
7F01FFE0
3C00FF00
ENDCHAR
STARTCHAR ccedilla
ENCODING 231
SWIDTH 524 0
DWIDTH 18 0
BBX 17 25 3 -7
BITMAP
007F00
01FF80
07C780
0F0380
1E0380
3E0300
3C0000
7C0000
7C0000
F80000
F80000
F80000
F80000
F80000
FC0000
7E0600
3FFC00
0FE000
0C0000
1E0000
070000
070000
070000
3F0000
3E0000
ENDCHAR
STARTCHAR egrave
ENCODING 232
SWIDTH 548 0
DWIDTH 19 0
BBX 17 25 3 0
BITMAP
00F800
003800
001C00
000C00
000600
000000
000000
007C00
01FF00
071F00
0E0F00
1E0F80
3C0F00
3C1F00
7C3E00
78FC00
FFF000
FFC000
F80000
F80000
F80000
FC0300
7E0F00
3FFE00
0FF000
ENDCHAR
STARTCHAR eacute
ENCODING 233
SWIDTH 548 0
DWIDTH 19 0
BBX 18 25 3 0
BITMAP
0007C0
000F00
001E00
003800
007000
000000
000000
007C00
01FF00
071F00
0E0F00
1E0F80
3C0F00
3C1F00
7C3E00
78FC00
FFF000
FFC000
F80000
F80000
F80000
FC0300
7E0F00
3FFE00
0FF000
ENDCHAR
STARTCHAR ecircumflex
ENCODING 234
SWIDTH 548 0
DWIDTH 19 0
BBX 17 25 3 0
BITMAP
003E00
007E00
00FF00
01C700
038180
000000
000000
007C00
01FF00
071F00
0E0F00
1E0F80
3C0F00
3C1F00
7C3E00
78FC00
FFF000
FFC000
F80000
F80000
F80000
FC0300
7E0F00
3FFE00
0FF000
ENDCHAR
STARTCHAR edieresis
ENCODING 235
SWIDTH 548 0
DWIDTH 19 0
BBX 17 23 3 0
BITMAP
01C780
03C780
03C700
000000
000000
007C00
01FF00
071F00
0E0F00
1E0F80
3C0F00
3C1F00
7C3E00
78FC00
FFF000
FFC000
F80000
F80000
F80000
FC0300
7E0F00
3FFE00
0FF000
ENDCHAR
STARTCHAR igrave
ENCODING 236
SWIDTH 319 0
DWIDTH 11 0
BBX 11 25 3 0
BITMAP
0F80
0380
01C0
00C0
0060
0000
0000
7F80
7F80
1F00
1F00
1F00
1F00
1E00
3E00
3E00
3E00
3E00
3C00
7C00
7C00
7C00
7C00
FF00
FF00
ENDCHAR
STARTCHAR iacute
ENCODING 237
SWIDTH 319 0
DWIDTH 11 0
BBX 14 25 3 0
BITMAP
007C
00F0
01E0
0380
0700
0000
0000
7F80
7F80
1F00
1F00
1F00
1F00
1E00
3E00
3E00
3E00
3E00
3C00
7C00
7C00
7C00
7C00
FF00
FF00
ENDCHAR
STARTCHAR icircumflex
ENCODING 238
SWIDTH 319 0
DWIDTH 11 0
BBX 13 25 3 0
BITMAP
03E0
07E0
0FF0
1C70
3818
0000
0000
7F80
7F80
1F00
1F00
1F00
1F00
1E00
3E00
3E00
3E00
3E00
3C00
7C00
7C00
7C00
7C00
FF00
FF00
ENDCHAR
STARTCHAR idieresis
ENCODING 239
SWIDTH 319 0
DWIDTH 11 0
BBX 13 23 3 0
BITMAP
1C78
3C78
3C70
0000
0000
7F80
7F80
1F00
1F00
1F00
1F00
1E00
3E00
3E00
3E00
3E00
3C00
7C00
7C00
7C00
7C00
FF00
FF00
ENDCHAR
STARTCHAR eth
ENCODING 240
SWIDTH 617 0
DWIDTH 21 0
BBX 18 27 3 0
BITMAP
000080
0FC380
0FFE00
01FC00
007E00
007F00
03CF80
010F80
0007C0
007FC0
01FFC0
078FC0
0F07C0
1E07C0
3C03C0
3C03C0
7C03C0
7803C0
F807C0
F80780
F80780
F80F00
FC0F00
FC1E00
7E3C00
3FF000
0FC000
ENDCHAR
STARTCHAR ntilde
ENCODING 241
SWIDTH 656 0
DWIDTH 22 0
BBX 19 24 3 0
BITMAP
007860
00FFC0
00FFC0
018780
000000
000000
7F07C0
7F0FE0
1F1FE0
1F3FE0
1F73E0
3EE3E0
3FC3C0
3F87C0
3F07C0
3F07C0
7E07C0
7C0780
7C0F80
7C0F80
7C0F80
F80F80
F80FE0
F81FE0
ENDCHAR
STARTCHAR ograve
ENCODING 242
SWIDTH 599 0
DWIDTH 20 0
BBX 19 25 3 0
BITMAP
007C00
001C00
000E00
000600
000300
000000
000000
007E00
01FF80
0787C0
0F07C0
1E03E0
3E03E0
3C03E0
7C03E0
7C03E0
FC07C0
F807C0
F80780
F80F80
FC0F00
FC1E00
7E3C00
3FF000
0FC000
ENDCHAR
STARTCHAR oacute
ENCODING 243
SWIDTH 599 0
DWIDTH 20 0
BBX 19 25 3 0
BITMAP
0003E0
000780
000F00
001C00
003800
000000
000000
007E00
01FF80
0787C0
0F07C0
1E03E0
3E03E0
3C03E0
7C03E0
7C03E0
FC07C0
F807C0
F80780
F80F80
FC0F00
FC1E00
7E3C00
3FF000
0FC000
ENDCHAR
STARTCHAR ocircumflex
ENCODING 244
SWIDTH 599 0
DWIDTH 20 0
BBX 19 25 3 0
BITMAP
001F00
003F00
007F80
00E380
01C0C0
000000
000000
007E00
01FF80
0787C0
0F07C0
1E03E0
3E03E0
3C03E0
7C03E0
7C03E0
FC07C0
F807C0
F80780
F80F80
FC0F00
FC1E00
7E3C00
3FF000
0FC000
ENDCHAR
STARTCHAR otilde
ENCODING 245
SWIDTH 599 0
DWIDTH 20 0
BBX 19 24 3 0
BITMAP
007860
00FFC0
00FFC0
018780
000000
000000
007E00
01FF80
0787C0
0F07C0
1E03E0
3E03E0
3C03E0
7C03E0
7C03E0
FC07C0
F807C0
F80780
F80F80
FC0F00
FC1E00
7E3C00
3FF000
0FC000
ENDCHAR
STARTCHAR odieresis
ENCODING 246
SWIDTH 599 0
DWIDTH 20 0
BBX 19 23 3 0
BITMAP
00E3C0
01E3C0
01E380
000000
000000
007E00
01FF80
0787C0
0F07C0
1E03E0
3E03E0
3C03E0
7C03E0
7C03E0
FC07C0
F807C0
F80780
F80F80
FC0F00
FC1E00
7E3C00
3FF000
0FC000
ENDCHAR
STARTCHAR divide
ENCODING 247
SWIDTH 636 0
DWIDTH 21 0
BBX 20 18 3 0
BITMAP
003C00
003800
007800
007800
000000
000000
000000
000000
FFFFF0
FFFFF0
000000
000000
000000
000000
01E000
01E000
01C000
03C000
ENDCHAR
STARTCHAR oslash
ENCODING 248
SWIDTH 599 0
DWIDTH 20 0
BBX 22 18 1 0
BITMAP
003F9C
00FFF0
01E3E0
0781F0
0F81F0
0F03F0
1F07F0
3E1DF0
3E39F0
3E71F0
3EC1E0
7F83E0
7F03C0
7E0780
3E0700
3F1E00
3FFC00
E7E000
ENDCHAR
STARTCHAR ugrave
ENCODING 249
SWIDTH 655 0
DWIDTH 22 0
BBX 19 25 4 0
BITMAP
007C00
001C00
000E00
000600
000300
000000
000000
FF1FE0
FF1FE0
3E07E0
3E07C0
3E07C0
3E07C0
3C07C0
7C07C0
7C0F80
7C1F80
7C3F80
786F80
F8EF80
F9CF00
FF9F00
FF1F00
FE1FC0
781FC0
ENDCHAR
STARTCHAR uacute
ENCODING 250
SWIDTH 655 0
DWIDTH 22 0
BBX 19 25 4 0
BITMAP
0003E0
000780
000F00
001C00
003800
000000
000000
FF1FE0
FF1FE0
3E07E0
3E07C0
3E07C0
3E07C0
3C07C0
7C07C0
7C0F80
7C1F80
7C3F80
786F80
F8EF80
F9CF00
FF9F00
FF1F00
FE1FC0
781FC0
ENDCHAR
STARTCHAR ucircumflex
ENCODING 251
SWIDTH 655 0
DWIDTH 22 0
BBX 19 25 4 0
BITMAP
001F00
003F00
007F80
00E380
01C0C0
000000
000000
FF1FE0
FF1FE0
3E07E0
3E07C0
3E07C0
3E07C0
3C07C0
7C07C0
7C0F80
7C1F80
7C3F80
786F80
F8EF80
F9CF00
FF9F00
FF1F00
FE1FC0
781FC0
ENDCHAR
STARTCHAR udieresis
ENCODING 252
SWIDTH 655 0
DWIDTH 22 0
BBX 19 23 4 0
BITMAP
00E3C0
01E3C0
01E380
000000
000000
FF1FE0
FF1FE0
3E07E0
3E07C0
3E07C0
3E07C0
3C07C0
7C07C0
7C0F80
7C1F80
7C3F80
786F80
F8EF80
F9CF00
FF9F00
FF1F00
FE1FC0
781FC0
ENDCHAR
STARTCHAR yacute
ENCODING 253
SWIDTH 586 0
DWIDTH 20 0
BBX 23 32 0 -7
BITMAP
00007C
0000F0
0001E0
000380
000700
000000
000000
1FC07E
1FC03E
07E01E
03E01E
03E01C
01F03C
01F038
01F070
01F0E0
00F0C0
00F9C0
00FB80
00FF00
00FE00
00FC00
007800
007000
007000
006000
00C000
038000
070000
0F0000
1E0000
FE0000
ENDCHAR
STARTCHAR thorn
ENCODING 254
SWIDTH 639 0
DWIDTH 22 0
BBX 21 31 2 -7
BITMAP
1FE000
1FC000
07C000
07C000
07C000
07C000
07C1E0
0F87F0
0F8FF8
0F9FF8
0FB8F8
0FF0F8
1F60F8
1FC0F8
1F81F0
1F81F0
1F01E0
3E01E0
3E03C0
3E0380
3E0700
3F0E00
3FFC00
7FE000
7C0000
7C0000
7C0000
7C0000
F80000
F80000
F80000
ENDCHAR
STARTCHAR ydieresis
ENCODING 255
SWIDTH 586 0
DWIDTH 20 0
BBX 23 30 0 -7
BITMAP
001C78
003C78
003C70
000000
000000
1FC07E
1FC03E
07E01E
03E01E
03E01C
01F03C
01F038
01F070
01F0E0
00F0C0
00F9C0
00FB80
00FF00
00FE00
00FC00
007800
007000
007000
006000
00C000
038000
070000
0F0000
1E0000
FE0000
ENDCHAR
STARTCHAR Amacron
ENCODING 256
SWIDTH 765 0
DWIDTH 26 0
BBX 26 28 0 0
BITMAP
003FF800
003FF800
00000000
0000E000
0001E000
0001F000
0003F000
0003F000
0007F000
000FF000
000CF800
0018F800
0038F800
0030F800
00607C00
00607C00
00C07C00
01807C00
01FFFC00
03FFFE00
07003E00
06003E00
0C003E00
0C001F00
18001F00
38001F80
FE00FFC0
FE00FFC0
ENDCHAR
STARTCHAR amacron
ENCODING 257
SWIDTH 634 0
DWIDTH 22 0
BBX 20 21 2 0
BITMAP
01FFC0
01FFC0
000000
003FF0
01FFF0
0383E0
0703E0
0E03E0
1E03E0
3C03E0
3C07C0
7C07C0
7C0FC0
F81FC0
F837C0
F87780
F8EF80
FFCF80
FF8F80
7F0FE0
3C1FE0
ENDCHAR
STARTCHAR Abreve
ENCODING 258
SWIDTH 765 0
DWIDTH 26 0
BBX 26 31 0 0
BITMAP
00300C00
00381800
001FF000
001FE000
0007C000
00000000
0000E000
0001E000
0001F000
0003F000
0003F000
0007F000
000FF000
000CF800
0018F800
0038F800
0030F800
00607C00
00607C00
00C07C00
01807C00
01FFFC00
03FFFE00
07003E00
06003E00
0C003E00
0C001F00
18001F00
38001F80
FE00FFC0
FE00FFC0
ENDCHAR
STARTCHAR abreve
ENCODING 259
SWIDTH 634 0
DWIDTH 22 0
BBX 20 24 2 0
BITMAP
018060
01C0C0
00FF80
00FF00
003E00
000000
003FF0
01FFF0
0383E0
0703E0
0E03E0
1E03E0
3C03E0
3C07C0
7C07C0
7C0FC0
F81FC0
F837C0
F87780
F8EF80
FFCF80
FF8F80
7F0FE0
3C1FE0
ENDCHAR
STARTCHAR Aogonek
ENCODING 260
SWIDTH 765 0
DWIDTH 26 0
BBX 26 31 0 -6
BITMAP
0000E000
0001E000
0001F000
0003F000
0003F000
0007F000
000FF000
000CF800
0018F800
0038F800
0030F800
00607C00
00607C00
00C07C00
01807C00
01FFFC00
03FFFE00
07003E00
06003E00
0C003E00
0C001F00
18001F00
38001F80
FE00FFC0
FE00FFC0
00000000
00070000
000C0000
001C0000
001F8000
000F8000
ENDCHAR
STARTCHAR aogonek
ENCODING 261
SWIDTH 634 0
DWIDTH 22 0
BBX 20 24 2 -6
BITMAP
003FF0
01FFF0
0383E0
0703E0
0E03E0
1E03E0
3C03E0
3C07C0
7C07C0
7C0FC0
F81FC0
F837C0
F87780
F8EF80
FFCF80
FF8F80
7F0FE0
3C1FE0
000000
007000
00C000
01C000
01F800
00F800
ENDCHAR
STARTCHAR Cacute
ENCODING 262
SWIDTH 740 0
DWIDTH 25 0
BBX 24 31 4 0
BITMAP
0001F0
0003C0
000780
000E00
001C00
000000
000FFC
007FFF
01F81F
03E00E
07C006
0F8006
1F000E
1E0000
3E0000
7E0000
7C0000
7C0000
FC0000
FC0000
FC0000
FC0000
FC0000
FC0000
FC0000
7C0000
7E0000
3F0000
1F8070
0FFFF0
03FF00
ENDCHAR
STARTCHAR cacute
ENCODING 263
SWIDTH 524 0
DWIDTH 18 0
BBX 17 24 3 0
BITMAP
001F00
003C00
007800
00E000
01C000
000000
007F00
01FF80
07C780
0F0380
1E0380
3E0300
3C0000
7C0000
7C0000
F80000
F80000
F80000
F80000
F80000
FC0000
7E0600
3FFC00
0FE000
ENDCHAR
STARTCHAR Ccircumflex
ENCODING 264
SWIDTH 740 0
DWIDTH 25 0
BBX 24 31 4 0
BITMAP
000F80
001F80
003FC0
0071C0
00E060
000000
000FFC
007FFF
01F81F
03E00E
07C006
0F8006
1F000E
1E0000
3E0000
7E0000
7C0000
7C0000
FC0000
FC0000
FC0000
FC0000
FC0000
FC0000
FC0000
7C0000
7E0000
3F0000
1F8070
0FFFF0
03FF00
ENDCHAR
STARTCHAR ccircumflex
ENCODING 265
SWIDTH 524 0
DWIDTH 18 0
BBX 17 24 3 0
BITMAP
007C00
00FC00
01FE00
038E00
070300
000000
007F00
01FF80
07C780
0F0380
1E0380
3E0300
3C0000
7C0000
7C0000
F80000
F80000
F80000
F80000
F80000
FC0000
7E0600
3FFC00
0FE000
ENDCHAR
STARTCHAR Cdotaccent
ENCODING 266
SWIDTH 740 0
DWIDTH 25 0
BBX 24 30 4 0
BITMAP
000F00
000F00
001E00
001E00
000000
000FFC
007FFF
01F81F
03E00E
07C006
0F8006
1F000E
1E0000
3E0000
7E0000
7C0000
7C0000
FC0000
FC0000
FC0000
FC0000
FC0000
FC0000
FC0000
7C0000
7E0000
3F0000
1F8070
0FFFF0
03FF00
ENDCHAR
STARTCHAR cdotaccent
ENCODING 267
SWIDTH 524 0
DWIDTH 18 0
BBX 17 23 3 0
BITMAP
007800
007800
00F000
00F000
000000
007F00
01FF80
07C780
0F0380
1E0380
3E0300
3C0000
7C0000
7C0000
F80000
F80000
F80000
F80000
F80000
FC0000
7E0600
3FFC00
0FE000
ENDCHAR
STARTCHAR Ccaron
ENCODING 268
SWIDTH 740 0
DWIDTH 25 0
BBX 24 31 4 0
BITMAP
006070
0030E0
003BC0
001F80
001F00
000000
000FFC
007FFF
01F81F
03E00E
07C006
0F8006
1F000E
1E0000
3E0000
7E0000
7C0000
7C0000
FC0000
FC0000
FC0000
FC0000
FC0000
FC0000
FC0000
7C0000
7E0000
3F0000
1F8070
0FFFF0
03FF00
ENDCHAR
STARTCHAR ccaron
ENCODING 269
SWIDTH 524 0
DWIDTH 18 0
BBX 17 24 3 0
BITMAP
060700
030E00
03BC00
01F800
01F000
000000
007F00
01FF80
07C780
0F0380
1E0380
3E0300
3C0000
7C0000
7C0000
F80000
F80000
F80000
F80000
F80000
FC0000
7E0600
3FFC00
0FE000
ENDCHAR
STARTCHAR Dcaron
ENCODING 270
SWIDTH 822 0
DWIDTH 28 0
BBX 28 31 1 0
BITMAP
00303800
00187000
001DE000
000FC000
000F8000
00000000
07FFFC00
07FFFF00
01F01FC0
01F007E0
01F003E0
01F003F0
03F003F0
03E001F0
03E001F0
03E001F0
03E001F0
07E001F0
07C003F0
07C003E0
07C003E0
07C003E0
0FC007C0
0F8007C0
0F800F80
0F801F80
1F803F00
1F807E00
3F81F800
FFFFF000
FFFF8000
ENDCHAR
STARTCHAR dcaron
ENCODING 271
SWIDTH 867 0
DWIDTH 30 0
BBX 31 26 3 0
BITMAP
0007F87E
0007F87E
0000F87C
0001F07C
0001F0FC
0001F03C
0001F038
0001F038
003FE070
01FFE1E0
0387E180
0703E000
0E03E000
1E03C000
3C07C000
3C07C000
7C0FC000
780FC000
F81F8000
F83F8000
F87F8000
F8EF8000
FFCF8000
FF8F8000
7F1FE000
3C1FE000
ENDCHAR
STARTCHAR Dcroat
ENCODING 272
SWIDTH 822 0
DWIDTH 28 0
BBX 28 25 1 0
BITMAP
07FFFC00
07FFFF00
01F01FC0
01F007E0
01F003E0
01F003F0
03F003F0
03E001F0
03E001F0
03E001F0
07E001F0
3FFF01F0
3FFF03F0
07C003E0
07C003E0
0FC003E0
0FC007C0
0F8007C0
0F800F80
0F801F80
1F803F00
1F807E00
3F81F800
FFFFF000
FFFF8000
ENDCHAR
STARTCHAR dcroat
ENCODING 273
SWIDTH 634 0
DWIDTH 22 0
BBX 24 26 3 0
BITMAP
0007F8
0007F8
0000F8
0001F0
0001F0
0001F0
007FFF
007FFF
003FE0
01FFE0
0387E0
0703E0
0E03E0
1E03C0
3C07C0
3C07C0
7C0FC0
780FC0
F81F80
F83F80
F87F80
F8EF80
FFCF80
FF8F80
7F1FE0
3C1FE0
ENDCHAR
STARTCHAR Emacron
ENCODING 274
SWIDTH 630 0
DWIDTH 21 0
BBX 23 28 1 0
BITMAP
01FFC0
01FFC0
000000
07FFFE
07FFFE
01F00E
01F00C
01F00C
01F000
03E000
03E000
03E000
03E060
03E0C0
07FFC0
07FFC0
07C0C0
07C0C0
07C000
0F8000
0F8000
0F8000
0F8000
1F8070
1F0060
3F00E0
FFFFE0
FFFFE0
ENDCHAR
STARTCHAR emacron
ENCODING 275
SWIDTH 548 0
DWIDTH 19 0
BBX 17 21 3 0
BITMAP
07FF00
07FF00
000000
007C00
01FF00
071F00
0E0F00
1E0F80
3C0F00
3C1F00
7C3E00
78FC00
FFF000
FFC000
F80000
F80000
F80000
FC0300
7E0F00
3FFE00
0FF000
ENDCHAR
STARTCHAR Ebreve
ENCODING 276
SWIDTH 630 0
DWIDTH 21 0
BBX 23 31 1 0
BITMAP
018060
01C0C0
00FF80
00FF00
003E00
000000
07FFFE
07FFFE
01F00E
01F00C
01F00C
01F000
03E000
03E000
03E000
03E060
03E0C0
07FFC0
07FFC0
07C0C0
07C0C0
07C000
0F8000
0F8000
0F8000
0F8000
1F8070
1F0060
3F00E0
FFFFE0
FFFFE0
ENDCHAR
STARTCHAR ebreve
ENCODING 277
SWIDTH 548 0
DWIDTH 19 0
BBX 17 24 3 0
BITMAP
060180
070300
03FE00
03FC00
00F800
000000
007C00
01FF00
071F00
0E0F00
1E0F80
3C0F00
3C1F00
7C3E00
78FC00
FFF000
FFC000
F80000
F80000
F80000
FC0300
7E0F00
3FFE00
0FF000
ENDCHAR
STARTCHAR Edotaccent
ENCODING 278
SWIDTH 630 0
DWIDTH 21 0
BBX 23 30 1 0
BITMAP
001E00
001E00
003C00
003C00
000000
07FFFE
07FFFE
01F00E
01F00C
01F00C
01F000
03E000
03E000
03E000
03E060
03E0C0
07FFC0
07FFC0
07C0C0
07C0C0
07C000
0F8000
0F8000
0F8000
0F8000
1F8070
1F0060
3F00E0
FFFFE0
FFFFE0
ENDCHAR
STARTCHAR edotaccent
ENCODING 279
SWIDTH 548 0
DWIDTH 19 0
BBX 17 23 3 0
BITMAP
007800
007800
00F000
00F000
000000
007C00
01FF00
071F00
0E0F00
1E0F80
3C0F00
3C1F00
7C3E00
78FC00
FFF000
FFC000
F80000
F80000
F80000
FC0300
7E0F00
3FFE00
0FF000
ENDCHAR
STARTCHAR Eogonek
ENCODING 280
SWIDTH 630 0
DWIDTH 21 0
BBX 23 31 1 -6
BITMAP
07FFFE
07FFFE
01F00E
01F00C
01F00C
01F000
03E000
03E000
03E000
03E060
03E0C0
07FFC0
07FFC0
07C0C0
07C0C0
07C000
0F8000
0F8000
0F8000
0F8000
1F8070
1F0060
3F00E0
FFFFE0
FFFFE0
000000
007000
00C000
01C000
01F800
00F800
ENDCHAR
STARTCHAR eogonek
ENCODING 281
SWIDTH 548 0
DWIDTH 19 0
BBX 17 24 3 -6
BITMAP
007C00
01FF00
071F00
0E0F00
1E0F80
3C0F00
3C1F00
7C3E00
78FC00
FFF000
FFC000
F80000
F80000
F80000
FC0300
7E0F00
3FFE00
0FF000
000000
01C000
030000
070000
07E000
03E000
ENDCHAR
STARTCHAR Ecaron
ENCODING 282
SWIDTH 630 0
DWIDTH 21 0
BBX 23 31 1 0
BITMAP
0181C0
00C380
00EF00
007E00
007C00
000000
07FFFE
07FFFE
01F00E
01F00C
01F00C
01F000
03E000
03E000
03E000
03E060
03E0C0
07FFC0
07FFC0
07C0C0
07C0C0
07C000
0F8000
0F8000
0F8000
0F8000
1F8070
1F0060
3F00E0
FFFFE0
FFFFE0
ENDCHAR
STARTCHAR ecaron
ENCODING 283
SWIDTH 548 0
DWIDTH 19 0
BBX 17 24 3 0
BITMAP
060700
030E00
03BC00
01F800
01F000
000000
007C00
01FF00
071F00
0E0F00
1E0F80
3C0F00
3C1F00
7C3E00
78FC00
FFF000
FFC000
F80000
F80000
F80000
FC0300
7E0F00
3FFE00
0FF000
ENDCHAR
STARTCHAR Gcircumflex
ENCODING 284
SWIDTH 780 0
DWIDTH 26 0
BBX 24 31 4 0
BITMAP
000F80
001F80
003FC0
0071C0
00E060
000000
000FFC
007FFF
01F81F
03E00F
07C006
0F8006
1F000E
1F0000
3E0000
3E0000
7C0000
7C0000
FC0000
FC07FF
FC07FF
FC00FC
FC00F8
FC00F8
FC01F0
7C01F0
7E01F0
3E01F0
1F81F0
0FFFE0
03FE00
ENDCHAR
STARTCHAR gcircumflex
ENCODING 285
SWIDTH 628 0
DWIDTH 21 0
BBX 21 31 1 -7
BITMAP
001F00
003F00
007F80
00E380
01C0C0
000000
001FF8
00FFF8
01C1F8
0380F0
0781F0
0F01F0
1F01F0
1E03F0
3E07E0
3E07E0
3C0FE0
7C1FE0
7C3FE0
7E77C0
7FE7C0
7FC7C0
3F87C0
1E0F80
000F80
800F80
C00F00
F01E00
7C1C00
7FF800
3FC000
ENDCHAR
STARTCHAR Gbreve
ENCODING 286
SWIDTH 780 0
DWIDTH 26 0
BBX 24 31 4 0
BITMAP
00C030
00E060
007FC0
007F80
001F00
000000
000FFC
007FFF
01F81F
03E00F
07C006
0F8006
1F000E
1F0000
3E0000
3E0000
7C0000
7C0000
FC0000
FC07FF
FC07FF
FC00FC
FC00F8
FC00F8
FC01F0
7C01F0
7E01F0
3E01F0
1F81F0
0FFFE0
03FE00
ENDCHAR
STARTCHAR gbreve
ENCODING 287
SWIDTH 628 0
DWIDTH 21 0
BBX 21 31 1 -7
BITMAP
018060
01C0C0
00FF80
00FF00
003E00
000000
001FF8
00FFF8
01C1F8
0380F0
0781F0
0F01F0
1F01F0
1E03F0
3E07E0
3E07E0
3C0FE0
7C1FE0
7C3FE0
7E77C0
7FE7C0
7FC7C0
3F87C0
1E0F80
000F80
800F80
C00F00
F01E00
7C1C00
7FF800
3FC000
ENDCHAR
STARTCHAR Gdotaccent
ENCODING 288
SWIDTH 780 0
DWIDTH 26 0
BBX 24 30 4 0
BITMAP
000F00
000F00
001E00
001E00
000000
000FFC
007FFF
01F81F
03E00F
07C006
0F8006
1F000E
1F0000
3E0000
3E0000
7C0000
7C0000
FC0000
FC07FF
FC07FF
FC00FC
FC00F8
FC00F8
FC01F0
7C01F0
7E01F0
3E01F0
1F81F0
0FFFE0
03FE00
ENDCHAR
STARTCHAR gdotaccent
ENCODING 289
SWIDTH 628 0
DWIDTH 21 0
BBX 21 30 1 -7
BITMAP
001E00
001E00
003C00
003C00
000000
001FF8
00FFF8
01C1F8
0380F0
0781F0
0F01F0
1F01F0
1E03F0
3E07E0
3E07E0
3C0FE0
7C1FE0
7C3FE0
7E77C0
7FE7C0
7FC7C0
3F87C0
1E0F80
000F80
800F80
C00F00
F01E00
7C1C00
7FF800
3FC000
ENDCHAR
STARTCHAR Gcommaaccent
ENCODING 290
SWIDTH 780 0
DWIDTH 26 0
BBX 24 39 4 -14
BITMAP
000FFC
007FFF
01F81F
03E00F
07C006
0F8006
1F000E
1F0000
3E0000
3E0000
7C0000
7C0000
FC0000
FC07FF
FC07FF
FC00FC
FC00F8
FC00F8
FC01F0
7C01F0
7E01F0
3E01F0
1F81F0
0FFFE0
03FE00
000000
007E00
007E00
007E00
007C00
00FC00
00FC00
003C00
003C00
003800
007800
007000
01E000
018000
ENDCHAR
STARTCHAR gcommaaccent
ENCODING 291
SWIDTH 628 0
DWIDTH 21 0
BBX 21 37 1 -7
BITMAP
000180
000780
000E00
001C00
001C00
003C00
003F00
003E00
003E00
007E00
007E00
000000
001FF8
00FFF8
01C1F8
0380F0
0781F0
0F01F0
1F01F0
1E03F0
3E07E0
3E07E0
3C0FE0
7C1FE0
7C3FE0
7E77C0
7FE7C0
7FC7C0
3F87C0
1E0F80
000F80
800F80
C00F00
F01E00
7C1C00
7FF800
3FC000
ENDCHAR
STARTCHAR Hcircumflex
ENCODING 292
SWIDTH 827 0
DWIDTH 28 0
BBX 31 31 1 0
BITMAP
0000F800
0001F800
0003FC00
00071C00
000E0600
00000000
07FF0FFE
07FE0FFE
01F803F8
01F003F0
01F003F0
01F003E0
03F003E0
03E003E0
03E007E0
03E007C0
03E007C0
07FFFFC0
07FFFFC0
07C00FC0
07C00F80
07C00F80
0FC00F80
0F800F80
0F801F80
0F801F00
1F801F00
1F801F00
3F803F00
FFE0FFC0
FFE1FFC0
ENDCHAR
STARTCHAR hcircumflex
ENCODING 293
SWIDTH 656 0
DWIDTH 22 0
BBX 19 32 3 0
BITMAP
03E000
07E000
0FF000
1C7000
381800
000000
3FC000
3FC000
0F8000
0F8000
0F8000
0F8000
0F8000
0F8000
1F03C0
1F0FE0
1F1FE0
1F3FE0
1F73E0
3EE3E0
3EC3C0
3F87C0
3F07C0
3E07C0
7E07C0
7C0780
7C0F80
7C0F80
7C0F80
F80F80
F80FE0
F81FE0
ENDCHAR
STARTCHAR Hbar
ENCODING 294
SWIDTH 827 0
DWIDTH 28 0
BBX 31 25 1 0
BITMAP
07FF0FFE
07FE0FFE
01F803F8
01F003F0
01F003F0
01F003E0
FFFFFFFE
FFFFFFFE
03E007E0
03E007C0
03E007C0
07FFFFC0
07FFFFC0
07C00FC0
07C00F80
07C00F80
0FC00F80
0F800F80
0F801F80
0F801F00
1F801F00
1F801F00
3F803F00
FFE0FFC0
FFE1FFC0
ENDCHAR
STARTCHAR hbar
ENCODING 295
SWIDTH 656 0
DWIDTH 22 0
BBX 21 26 1 0
BITMAP
0FF000
0FF000
03E000
03E000
03E000
03E000
FFFE00
FFFE00
07C0F0
07C3F8
07C7F8
07CFF8
07DCF8
0FB8F8
0FB0F0
0FE1F0
0FC1F0
0F81F0
1F81F0
1F01E0
1F03E0
1F03E0
1F03E0
3E03E0
3E03F8
3E07F8
ENDCHAR
STARTCHAR Itilde
ENCODING 296
SWIDTH 372 0
DWIDTH 13 0
BBX 15 30 1 0
BITMAP
0786
0FFC
0FFC
1878
0000
07FE
0FFE
01F8
01F0
03F0
03E0
03E0
03E0
03E0
03E0
07C0
07C0
07C0
07C0
07C0
0F80
0F80
0F80
0F80
0F80
1F00
1F00
3F00
FFE0
FFC0
ENDCHAR
STARTCHAR itilde
ENCODING 297
SWIDTH 319 0
DWIDTH 11 0
BBX 12 23 2 0
BITMAP
3C30
7FE0
7FE0
C3C0
0000
3FC0
3FC0
0F80
0F80
0F80
0F80
0F00
1F00
1F00
1F00
1F00
1E00
3E00
3E00
3E00
3E00
7F80
7F80
ENDCHAR
STARTCHAR Imacron
ENCODING 298
SWIDTH 372 0
DWIDTH 13 0
BBX 15 28 1 0
BITMAP
1FFC
1FFC
0000
07FE
0FFE
01F8
01F0
03F0
03E0
03E0
03E0
03E0
03E0
07C0
07C0
07C0
07C0
07C0
0F80
0F80
0F80
0F80
0F80
1F00
1F00
3F00
FFE0
FFC0
ENDCHAR
STARTCHAR imacron
ENCODING 299
SWIDTH 319 0
DWIDTH 11 0
BBX 11 21 2 0
BITMAP
FFE0
FFE0
0000
3FC0
3FC0
0F80
0F80
0F80
0F80
0F00
1F00
1F00
1F00
1F00
1E00
3E00
3E00
3E00
3E00
7F80
7F80
ENDCHAR
STARTCHAR Ibreve
ENCODING 300
SWIDTH 372 0
DWIDTH 13 0
BBX 15 31 1 0
BITMAP
1806
1C0C
0FF8
0FF0
03E0
0000
07FE
0FFE
01F8
01F0
03F0
03E0
03E0
03E0
03E0
03E0
07C0
07C0
07C0
07C0
07C0
0F80
0F80
0F80
0F80
0F80
1F00
1F00
3F00
FFE0
FFC0
ENDCHAR
STARTCHAR ibreve
ENCODING 301
SWIDTH 319 0
DWIDTH 11 0
BBX 12 24 3 0
BITMAP
C030
E060
7FC0
7F80
1F00
0000
7F80
7F80
1F00
1F00
1F00
1F00
1E00
3E00
3E00
3E00
3E00
3C00
7C00
7C00
7C00
7C00
FF00
FF00
ENDCHAR
STARTCHAR Iogonek
ENCODING 302
SWIDTH 372 0
DWIDTH 13 0
BBX 15 31 1 -6
BITMAP
07FE
0FFE
01F8
01F0
03F0
03E0
03E0
03E0
03E0
03E0
07C0
07C0
07C0
07C0
07C0
0F80
0F80
0F80
0F80
0F80
1F00
1F00
3F00
FFE0
FFC0
0000
0700
0C00
1C00
1F80
0F80
ENDCHAR
STARTCHAR iogonek
ENCODING 303
SWIDTH 319 0
DWIDTH 11 0
BBX 10 31 3 -6
BITMAP
07C0
07C0
0780
0F80
0000
0000
0000
7F80
7F00
1F00
1F00
1F00
1E00
3E00
3E00
3E00
3E00
3C00
7C00
7C00
7C00
7C00
7C00
FF00
FF00
0000
1C00
3000
7000
7E00
3E00
ENDCHAR
STARTCHAR Idotaccent
ENCODING 304
SWIDTH 372 0
DWIDTH 13 0
BBX 15 30 1 0
BITMAP
00F0
00F0
01E0
01E0
0000
07FE
0FFE
01F8
01F0
03F0
03E0
03E0
03E0
03E0
03E0
07C0
07C0
07C0
07C0
07C0
0F80
0F80
0F80
0F80
0F80
1F00
1F00
3F00
FFE0
FFC0
ENDCHAR
STARTCHAR dotlessi
ENCODING 305
SWIDTH 319 0
DWIDTH 11 0
BBX 9 18 3 0
BITMAP
7F80
7F80
1F00
1F00
1F00
1F00
1E00
3E00
3E00
3E00
3E00
3C00
7C00
7C00
7C00
7C00
FF00
FF00
ENDCHAR
STARTCHAR IJ
ENCODING 306
SWIDTH 831 0
DWIDTH 28 0
BBX 32 31 1 -6
BITMAP
07FE07FF
0FFE07FF
01F801FC
01F001F8
03F001F8
03E001F0
03E001F0
03E001F0
03E001F0
03E003F0
07C003E0
07C003E0
07C003E0
07C003E0
07C007E0
0F8007C0
0F8007C0
0F8007C0
0F8007C0
0F800FC0
1F000F80
1F000F80
3F000F80
FFE00F80
FFC01F80
000E1F00
000C1F00
000C1E00
001C3C00
001FF800
001FC000
ENDCHAR
STARTCHAR ij
ENCODING 307
SWIDTH 684 0
DWIDTH 23 0
BBX 23 32 3 -7
BITMAP
07C03E
07C03E
07803C
0F807C
000000
000000
000000
7F83F8
7F03F8
1F00F8
1F00F8
1F00F8
1E00F0
3E01F0
3E01F0
3E01F0
3E01F0
3C01E0
7C03E0
7C03E0
7C03E0
7C03E0
7C03C0
FF07C0
FF07C0
0007C0
030780
030F80
070F00
071E00
07FC00
03F000
ENDCHAR
STARTCHAR Jcircumflex
ENCODING 308
SWIDTH 478 0
DWIDTH 16 0
BBX 21 37 0 -6
BITMAP
000F80
001F80
003FC0
0071C0
00E060
000000
003FF8
003FF8
000FE0
000FC0
000FC0
000F80
000F80
000F80
000F80
001F80
001F00
001F00
001F00
001F00
003F00
003E00
003E00
003E00
003E00
007E00
007C00
007C00
007C00
007C00
00FC00
70F800
60F800
60F000
E1E000
FFC000
FE0000
ENDCHAR
STARTCHAR jcircumflex
ENCODING 309
SWIDTH 381 0
DWIDTH 13 0
BBX 18 31 -2 -7
BITMAP
003E00
007E00
00FF00
01C700
038180
000000
007F00
007F00
001F00
001F00
001F00
001E00
003E00
003E00
003E00
003E00
003C00
007C00
007C00
007C00
007C00
007800
00F800
00F800
00F800
60F000
61F000
E1E000
E3C000
FF8000
7E0000
ENDCHAR
STARTCHAR Kcommaaccent
ENCODING 310
SWIDTH 746 0
DWIDTH 25 0
BBX 26 39 1 -14
BITMAP
07FE1FC0
07FE1FC0
01F80700
01F00C00
01E01800
03E07000
03E0E000
03E1C000
03E30000
03C60000
07DC0000
07FE0000
07FE0000
07FF0000
079F8000
0F9F8000
0F8FC000
0F87E000
0F87F000
0F03F000
1F01F800
1F01FC00
3F00FE00
FFC3FF00
FFC3FF00
00000000
003F0000
003F0000
003F0000
003E0000
007E0000
007E0000
001E0000
001E0000
001C0000
003C0000
00380000
00F00000
00C00000
ENDCHAR
STARTCHAR kcommaaccent
ENCODING 311
SWIDTH 626 0
DWIDTH 21 0
BBX 19 40 3 -14
BITMAP
3FC000
3FC000
07C000
07C000
0F8000
0F8000
0F8000
0F8000
0F83E0
1F03E0
1F03C0
1F07C0
1F0780
1F1E00
3E3C00
3EF000
3FF000
3EF800
3CF800
7C7C00
7C7C00
7C3E00
7C3F00
781F80
F80FE0
F80FE0
000000
03F000
03F000
03F000
03E000
07E000
07E000
01E000
01E000
01C000
03C000
038000
0F0000
0C0000
ENDCHAR
STARTCHAR kgreenlandic
ENCODING 312
SWIDTH 626 0
DWIDTH 21 0
BBX 19 18 3 0
BITMAP
0F83E0
1F03E0
1F03C0
1F07C0
1F0780
1F1E00
3E3C00
3EF000
3FF000
3EF800
3CF800
7C7C00
7C7C00
7C3E00
7C3F00
781F80
F80FE0
F80FE0
ENDCHAR
STARTCHAR Lacute
ENCODING 313
SWIDTH 611 0
DWIDTH 21 0
BBX 20 31 1 0
BITMAP
001F00
003C00
007800
00E000
01C000
000000
07FE00
07FE00
01F800
01F000
01F000
01F000
03E000
03E000
03E000
03E000
03E000
07C000
07C000
07C000
07C000
07C000
0F8000
0F8000
0F8000
0F8070
1F8070
1F8070
3F8060
FFFFE0
FFFFE0
ENDCHAR
STARTCHAR lacute
ENCODING 314
SWIDTH 319 0
DWIDTH 11 0
BBX 12 32 3 0
BITMAP
01F0
03C0
0780
0E00
1C00
0000
3FC0
3FC0
0FC0
0F80
0F80
0F80
0F80
0F80
1F00
1F00
1F00
1F00
1F00
3E00
3E00
3E00
3E00
3E00
7C00
7C00
7C00
7C00
7C00
FC00
FF00
FF00
ENDCHAR
STARTCHAR Lcommaaccent
ENCODING 315
SWIDTH 611 0
DWIDTH 21 0
BBX 20 39 1 -14
BITMAP
07FE00
07FE00
01F800
01F000
01F000
01F000
03E000
03E000
03E000
03E000
03E000
07C000
07C000
07C000
07C000
07C000
0F8000
0F8000
0F8000
0F8070
1F8070
1F8070
3F8060
FFFFE0
FFFFE0
000000
01F800
01F800
01F800
01F000
03F000
03F000
00F000
00F000
00E000
01E000
01C000
078000
060000
ENDCHAR
STARTCHAR lcommaaccent
ENCODING 316
SWIDTH 319 0
DWIDTH 11 0
BBX 11 40 2 -14
BITMAP
1FE0
1FE0
07E0
07C0
07C0
07C0
07C0
07C0
0F80
0F80
0F80
0F80
0F80
1F00
1F00
1F00
1F00
1F00
3E00
3E00
3E00
3E00
3E00
7E00
7F80
7F80
0000
3F00
3F00
3F00
3E00
7E00
7E00
1E00
1E00
1C00
3C00
3800
F000
C000
ENDCHAR
STARTCHAR Lcaron
ENCODING 317
SWIDTH 845 0
DWIDTH 29 0
BBX 32 26 1 0
BITMAP
0000003F
07FE003F
07FE003E
01F8003E
01F0007E
01F0001E
01F0001C
03E0001C
03E00038
03E000F0
03E000C0
03E00000
07C00000
07C00000
07C00000
07C00000
07C00000
0F800000
0F800000
0F800000
0F807000
1F807000
1F807000
3F806000
FFFFE000
FFFFE000
ENDCHAR
STARTCHAR lcaron
ENCODING 318
SWIDTH 568 0
DWIDTH 19 0
BBX 20 26 3 0
BITMAP
3FC3F0
3FC3F0
0FC3E0
0F83E0
0F87E0
0F81E0
0F81C0
0F81C0
1F0380
1F0F00
1F0C00
1F0000
1F0000
3E0000
3E0000
3E0000
3E0000
3E0000
7C0000
7C0000
7C0000
7C0000
7C0000
FC0000
FF0000
FF0000
ENDCHAR
STARTCHAR Ldot
ENCODING 319
SWIDTH 1216 0
DWIDTH 41 0
BBX 34 25 1 0
BITMAP
07FE000000
07FE000000
01F8000000
01F0000000
01F0000000
01F0000000
03E0000000
03E0000000
03E0000000
03E0000000
03E0000000
07C0000000
07C0000000
07C00003C0
07C00003C0
07C0000780
0F80000780
0F80000000
0F80000000
0F80700000
1F80700000
1F80700000
3F80600000
FFFFE00000
FFFFE00000
ENDCHAR
STARTCHAR ldot
ENCODING 320
SWIDTH 939 0
DWIDTH 31 0
BBX 22 26 3 0
BITMAP
3FC000
3FC000
0FC000
0F8000
0F8000
0F8000
0F8000
0F8000
1F0000
1F0000
1F0000
1F0000
1F0000
3E0000
3E003C
3E003C
3E0078
3E0078
7C0000
7C0000
7C0000
7C0000
7C0000
FC0000
FF0000
FF0000
ENDCHAR
STARTCHAR Lslash
ENCODING 321
SWIDTH 611 0
DWIDTH 21 0
BBX 20 25 1 0
BITMAP
07FE00
07FE00
01F800
01F000
01F000
01F000
03F000
03E000
03E000
03EE00
03FC00
07F000
3FC000
7FC000
07C000
07C000
0F8000
0F8000
0F8000
0F8070
1F8070
1F8070
3F8060
FFFFE0
FFFFE0
ENDCHAR
STARTCHAR lslash
ENCODING 322
SWIDTH 319 0
DWIDTH 11 0
BBX 13 26 2 0
BITMAP
0FF0
0FE0
03E0
03E0
03E0
07C0
07C0
07C0
07C0
07C0
0F88
0FF8
0FE0
3F80
FF80
9F00
1F00
1F00
1F00
1F00
3E00
3E00
3E00
3E00
3F80
7F80
ENDCHAR
STARTCHAR Nacute
ENCODING 323
SWIDTH 797 0
DWIDTH 27 0
BBX 30 31 1 0
BITMAP
00007C00
0000F000
0001E000
00038000
00070000
00000000
07E003FC
07F003FC
01F000F0
01F800E0
01FC00E0
01FC00C0
03FE00C0
03BE01C0
03BF01C0
031F0180
031F8180
070F8180
0707C380
0707C380
0603E300
0603E300
0E01F700
0E01F700
0C00FF00
0C00FE00
1C007E00
1C003E00
3C003E00
FF001E00
FF001C00
ENDCHAR
STARTCHAR nacute
ENCODING 324
SWIDTH 656 0
DWIDTH 22 0
BBX 19 24 3 0
BITMAP
001F00
003C00
007800
00E000
01C000
000000
7F07C0
7F0FE0
1F1FE0
1F3FE0
1F73E0
3EE3E0
3FC3C0
3F87C0
3F07C0
3F07C0
7E07C0
7C0780
7C0F80
7C0F80
7C0F80
F80F80
F80FE0
F81FE0
ENDCHAR
STARTCHAR Ncommaaccent
ENCODING 325
SWIDTH 797 0
DWIDTH 27 0
BBX 30 39 1 -14
BITMAP
07E003FC
07F003FC
01F000F0
01F800E0
01FC00E0
01FC00C0
03FE00C0
03BE01C0
03BF01C0
031F0180
031F8180
070F8180
0707C380
0707C380
0603E300
0603E300
0E01F700
0E01F700
0C00FF00
0C00FE00
1C007E00
1C003E00
3C003E00
FF001E00
FF001C00
00000000
001F8000
001F8000
001F8000
001F0000
003F0000
003F0000
000F0000
000F0000
000E0000
001E0000
001C0000
00780000
00600000
ENDCHAR
STARTCHAR ncommaaccent
ENCODING 326
SWIDTH 656 0
DWIDTH 22 0
BBX 19 32 3 -14
BITMAP
7F07C0
7F0FE0
1F1FE0
1F3FE0
1F73E0
3EE3E0
3FC3C0
3F87C0
3F07C0
3F07C0
7E07C0
7C0780
7C0F80
7C0F80
7C0F80
F80F80
F80FE0
F81FE0
000000
01F800
01F800
01F800
01F000
03F000
03F000
00F000
00F000
00E000
01E000
01C000
078000
060000
ENDCHAR
STARTCHAR Ncaron
ENCODING 327
SWIDTH 797 0
DWIDTH 27 0
BBX 30 31 1 0
BITMAP
00181C00
000C3800
000EF000
0007E000
0007C000
00000000
07E003FC
07F003FC
01F000F0
01F800E0
01FC00E0
01FC00C0
03FE00C0
03BE01C0
03BF01C0
031F0180
031F8180
070F8180
0707C380
0707C380
0603E300
0603E300
0E01F700
0E01F700
0C00FF00
0C00FE00
1C007E00
1C003E00
3C003E00
FF001E00
FF001C00
ENDCHAR
STARTCHAR ncaron
ENCODING 328
SWIDTH 656 0
DWIDTH 22 0
BBX 19 24 3 0
BITMAP
060700
030E00
03BC00
01F800
01F000
000000
7F07C0
7F0FE0
1F1FE0
1F3FE0
1F73E0
3EE3E0
3FC3C0
3F87C0
3F07C0
3F07C0
7E07C0
7C0780
7C0F80
7C0F80
7C0F80
F80F80
F80FE0
F81FE0
ENDCHAR
STARTCHAR napostrophe
ENCODING 329
SWIDTH 908 0
DWIDTH 31 0
BBX 26 26 5 0
BITMAP
3F000000
3F000000
3E000000
3E000000
7E000000
1E000000
1C000000
1C000000
38FE0F80
F0FE1FC0
C03E3FC0
003E7FC0
003EE7C0
007DC7C0
007F8780
007F0F80
007E0F80
007E0F80
00FC0F80
00F80F00
00F81F00
00F81F00
00F81F00
01F01F00
01F01FC0
01F03FC0
ENDCHAR
STARTCHAR Eng
ENCODING 330
SWIDTH 797 0
DWIDTH 27 0
BBX 30 32 1 -7
BITMAP
07E003FC
07F003FC
01F000F0
01F800E0
01FC00E0
01FC00C0
03FE00C0
03BE01C0
03BF01C0
031F0180
031F8180
070F8180
0707C380
0707C380
0603E300
0603E300
0E01F700
0E01FF00
0C00FF00
0C00FF00
1C007F00
1C003F00
3C003E00
FF003E00
FF003E00
00003E00
00183C00
00187C00
00387800
0038F000
003FE000
001F8000
ENDCHAR
STARTCHAR eng
ENCODING 331
SWIDTH 656 0
DWIDTH 22 0
BBX 19 25 3 -7
BITMAP
7F07C0
7F0FE0
1F1FE0
1F3FE0
1F73E0
3EE3E0
3FC3C0
3F87C0
3F07C0
3F07C0
7E07C0
7C07C0
7C07C0
7C07C0
7C07C0
F80780
F80F80
F80F80
000F80
060F00
061F00
0E1E00
0E3C00
0FF800
07E000
ENDCHAR
STARTCHAR Omacron
ENCODING 332
SWIDTH 831 0
DWIDTH 28 0
BBX 26 28 4 0
BITMAP
007FF000
007FF000
00000000
000FF000
007FFC00
00F83E00
03E01F00
07C00F80
0F800F80
1F000F80
1F000FC0
3E000FC0
7E000FC0
7C000FC0
7C000FC0
FC000F80
FC000F80
FC000F80
FC001F00
FC001F00
FC003E00
FC003C00
7C007C00
7C00F800
3E01E000
1F07C000
0FFF0000
03F80000
ENDCHAR
STARTCHAR omacron
ENCODING 333
SWIDTH 599 0
DWIDTH 20 0
BBX 19 21 3 0
BITMAP
07FF00
07FF00
000000
007E00
01FF80
0787C0
0F07C0
1E03E0
3E03E0
3C03E0
7C03E0
7C03E0
FC07C0
F807C0
F80780
F80F80
FC0F00
FC1E00
7E3C00
3FF000
0FC000
ENDCHAR
STARTCHAR Obreve
ENCODING 334
SWIDTH 831 0
DWIDTH 28 0
BBX 26 31 4 0
BITMAP
00601800
00703000
003FE000
003FC000
000F8000
00000000
000FF000
007FFC00
00F83E00
03E01F00
07C00F80
0F800F80
1F000F80
1F000FC0
3E000FC0
7E000FC0
7C000FC0
7C000FC0
FC000F80
FC000F80
FC000F80
FC001F00
FC001F00
FC003E00
FC003C00
7C007C00
7C00F800
3E01E000
1F07C000
0FFF0000
03F80000
ENDCHAR
STARTCHAR obreve
ENCODING 335
SWIDTH 599 0
DWIDTH 20 0
BBX 19 24 3 0
BITMAP
060180
070300
03FE00
03FC00
00F800
000000
007E00
01FF80
0787C0
0F07C0
1E03E0
3E03E0
3C03E0
7C03E0
7C03E0
FC07C0
F807C0
F80780
F80F80
FC0F00
FC1E00
7E3C00
3FF000
0FC000
ENDCHAR
STARTCHAR Ohungarumlaut
ENCODING 336
SWIDTH 831 0
DWIDTH 28 0
BBX 26 31 4 0
BITMAP
0003DE00
00073800
000E7000
001CC000
00318000
00000000
000FF000
007FFC00
00F83E00
03E01F00
07C00F80
0F800F80
1F000F80
1F000FC0
3E000FC0
7E000FC0
7C000FC0
7C000FC0
FC000F80
FC000F80
FC000F80
FC001F00
FC001F00
FC003E00
FC003C00
7C007C00
7C00F800
3E01E000
1F07C000
0FFF0000
03F80000
ENDCHAR
STARTCHAR ohungarumlaut
ENCODING 337
SWIDTH 599 0
DWIDTH 20 0
BBX 19 24 3 0
BITMAP
003DE0
007380
00E700
01CC00
031800
000000
007E00
01FF80
0787C0
0F07C0
1E03E0
3E03E0
3C03E0
7C03E0
7C03E0
FC07C0
F807C0
F80780
F80F80
FC0F00
FC1E00
7E3C00
3FF000
0FC000
ENDCHAR
STARTCHAR OE
ENCODING 338
SWIDTH 1067 0
DWIDTH 36 0
BBX 35 25 4 0
BITMAP
000FCFFFE0
007FFFFFE0
01F07F00E0
03E03F00C0
07C01F00C0
0F801F0000
1F001F0000
1F003E0000
3E003E0000
7E003E0700
7C003E0600
7C003FFE00
FC007FFE00
FC007C0E00
FC007C0E00
FC007C0000
FC007C0000
F800F80000
FC00F80000
7C00F80000
7C01F80700
3E03F80600
1F07F80E00
0FFFFFFE00
03FDFFFE00
ENDCHAR
STARTCHAR oe
ENCODING 339
SWIDTH 921 0
DWIDTH 31 0
BBX 29 18 3 0
BITMAP
007E03E0
01FF8FF0
0787D8F8
0F07F078
1E03E078
3C03E078
3C03E0F0
7C03C1F0
7803C7E0
F807FF80
F807FE00
F807C000
F80FC000
F80FC000
FC1FC018
7C3FF078
3FF9FFE0
0FC0FF00
ENDCHAR
STARTCHAR Racute
ENCODING 340
SWIDTH 711 0
DWIDTH 24 0
BBX 23 31 1 0
BITMAP
0003E0
000780
000F00
001C00
003800
000000
07FFF0
07FFFC
01F07E
01F03E
01F03E
03E03E
03E03E
03E03C
03E07C
03E078
07C0F0
07C3E0
07FFC0
07FF80
07CF80
0F8FC0
0F87C0
0F87E0
0F83E0
0F83F0
1F01F0
1F01F8
3F00F8
FFC0FE
FFC07E
ENDCHAR
STARTCHAR racute
ENCODING 341
SWIDTH 496 0
DWIDTH 17 0
BBX 17 24 3 0
BITMAP
003E00
007800
00F000
01C000
038000
000000
7F0780
7F0F80
1F3F00
1F7F00
1F7200
3EE000
3FC000
3F8000
3F0000
3E0000
7E0000
7C0000
7C0000
7C0000
7C0000
F80000
F80000
F80000
ENDCHAR
STARTCHAR Rcommaaccent
ENCODING 342
SWIDTH 711 0
DWIDTH 24 0
BBX 23 39 1 -14
BITMAP
07FFF0
07FFFC
01F07E
01F03E
01F03E
03E03E
03E03E
03E03C
03E07C
03E078
07C0F0
07C3E0
07FFC0
07FF80
07CF80
0F8FC0
0F87C0
0F87E0
0F83E0
0F83F0
1F01F0
1F01F8
3F00F8
FFC0FE
FFC07E
000000
007E00
007E00
007E00
007C00
00FC00
00FC00
003C00
003C00
003800
007800
007000
01E000
018000
ENDCHAR
STARTCHAR rcommaaccent
ENCODING 343
SWIDTH 496 0
DWIDTH 17 0
BBX 17 32 3 -14
BITMAP
7F0780
7F0F80
1F3F00
1F7F00
1F7200
3EE000
3FC000
3F8000
3F0000
3E0000
7E0000
7C0000
7C0000
7C0000
7C0000
F80000
F80000
F80000
000000
3F0000
3F0000
3F0000
3E0000
7E0000
7E0000
1E0000
1E0000
1C0000
3C0000
380000
F00000
C00000
ENDCHAR
STARTCHAR Rcaron
ENCODING 344
SWIDTH 711 0
DWIDTH 24 0
BBX 23 31 1 0
BITMAP
00C0E0
0061C0
007780
003F00
003E00
000000
07FFF0
07FFFC
01F07E
01F03E
01F03E
03E03E
03E03E
03E03C
03E07C
03E078
07C0F0
07C3E0
07FFC0
07FF80
07CF80
0F8FC0
0F87C0
0F87E0
0F83E0
0F83F0
1F01F0
1F01F8
3F00F8
FFC0FE
FFC07E
ENDCHAR
STARTCHAR rcaron
ENCODING 345
SWIDTH 496 0
DWIDTH 17 0
BBX 17 24 3 0
BITMAP
0C0E00
061C00
077800
03F000
03E000
000000
7F0780
7F0F80
1F3F00
1F7F00
1F7200
3EE000
3FC000
3F8000
3F0000
3E0000
7E0000
7C0000
7C0000
7C0000
7C0000
F80000
F80000
F80000
ENDCHAR
STARTCHAR Sacute
ENCODING 346
SWIDTH 587 0
DWIDTH 20 0
BBX 20 31 2 0
BITMAP
000F80
001E00
003C00
007000
00E000
000000
003FC0
01FFF0
03E0F0
078070
0F8060
0F8060
0F8000
0F8000
0FC000
0FE000
07F000
03FC00
01FE00
00FF00
007F80
001F80
000FC0
000FC0
000FC0
600F80
600F80
E01F00
F83E00
FFFC00
3FE000
ENDCHAR
STARTCHAR sacute
ENCODING 347
SWIDTH 479 0
DWIDTH 16 0
BBX 16 24 2 0
BITMAP
003E
0078
00F0
01C0
0380
0000
01FE
07FF
0F07
0F06
1F06
1F06
0F80
0FC0
07F0
03F8
01F8
00FC
607C
607C
E07C
F0F8
FFF0
3FC0
ENDCHAR
STARTCHAR Scircumflex
ENCODING 348
SWIDTH 587 0
DWIDTH 20 0
BBX 20 31 2 0
BITMAP
003E00
007E00
00FF00
01C700
038180
000000
003FC0
01FFF0
03E0F0
078070
0F8060
0F8060
0F8000
0F8000
0FC000
0FE000
07F000
03FC00
01FE00
00FF00
007F80
001F80
000FC0
000FC0
000FC0
600F80
600F80
E01F00
F83E00
FFFC00
3FE000
ENDCHAR
STARTCHAR scircumflex
ENCODING 349
SWIDTH 479 0
DWIDTH 16 0
BBX 16 24 2 0
BITMAP
00F8
01F8
03FC
071C
0E06
0000
01FE
07FF
0F07
0F06
1F06
1F06
0F80
0FC0
07F0
03F8
01F8
00FC
607C
607C
E07C
F0F8
FFF0
3FC0
ENDCHAR
STARTCHAR Scedilla
ENCODING 350
SWIDTH 587 0
DWIDTH 20 0
BBX 20 32 2 -7
BITMAP
003FC0
01FFF0
03E0F0
078070
0F8060
0F8060
0F8000
0F8000
0FC000
0FE000
07F000
03FC00
01FE00
00FF00
007F80
001F80
000FC0
000FC0
000FC0
600F80
600F80
E01F00
F83E00
FFFC00
3FE000
00C000
01E000
007000
007000
007000
03F000
03E000
ENDCHAR
STARTCHAR scedilla
ENCODING 351
SWIDTH 479 0
DWIDTH 16 0
BBX 16 25 2 -7
BITMAP
01FE
07FF
0F07
0F06
1F06
1F06
0F80
0FC0
07F0
03F8
01F8
00FC
607C
607C
E07C
F0F8
FFF0
3FC0
0300
0780
01C0
01C0
01C0
0FC0
0F80
ENDCHAR
STARTCHAR Scaron
ENCODING 352
SWIDTH 587 0
DWIDTH 20 0
BBX 20 32 2 0
BITMAP
006070
0030E0
003BC0
001F80
001F00
000000
000000
003FC0
01FFF0
03E0F0
078070
0F8060
0F8060
0F8000
0F8000
0FC000
0FE000
07F000
03FC00
01FE00
00FF00
007F80
001F80
000FC0
000FC0
000FC0
600F80
600F80
E01F00
F83E00
FFFC00
3FE000
ENDCHAR
STARTCHAR scaron
ENCODING 353
SWIDTH 479 0
DWIDTH 16 0
BBX 18 25 2 0
BITMAP
0181C0
00C380
00EF00
007E00
007C00
000000
000000
01FE00
07FF00
0F0700
0F0600
1F0600
1F0600
0F8000
0FC000
07F000
03F800
01F800
00FC00
607C00
607C00
E07C00
F0F800
FFF000
3FC000
ENDCHAR
STARTCHAR Tcommaaccent
ENCODING 354
SWIDTH 716 0
DWIDTH 24 0
BBX 24 32 5 -7
BITMAP
7FFFFF
7FFFFF
703E06
E07C06
E07C06
007C00
007C00
007C00
00F800
00F800
00F800
00F800
01F800
01F000
01F000
01F000
01F000
03F000
03E000
03E000
03E000
07E000
07E000
3FFC00
3FF800
00C000
01E000
007000
007000
007000
03F000
03E000
ENDCHAR
STARTCHAR tcommaaccent
ENCODING 355
SWIDTH 375 0
DWIDTH 13 0
BBX 12 30 3 -7
BITMAP
0380
0F00
1F00
1F00
1F00
FFF0
FFF0
1E00
3E00
3E00
3E00
3E00
7C00
7C00
7C00
7C00
7C00
F800
F800
F800
FC00
7F80
3F00
1800
3C00
0E00
0E00
0E00
7E00
7C00
ENDCHAR
STARTCHAR Tcaron
ENCODING 356
SWIDTH 716 0
DWIDTH 24 0
BBX 24 31 5 0
BITMAP
0181C0
00C380
00EF00
007E00
007C00
000000
7FFFFF
7FFFFF
703E06
E07C06
E07C06
007C00
007C00
007C00
00F800
00F800
00F800
00F800
01F800
01F000
01F000
01F000
01F000
03F000
03E000
03E000
03E000
07E000
07E000
3FFC00
3FF800
ENDCHAR
STARTCHAR tcaron
ENCODING 357
SWIDTH 621 0
DWIDTH 21 0
BBX 22 26 3 0
BITMAP
0000FC
0000FC
0000F8
0380F8
0F01F8
1F0078
1F0070
1F0070
FFF0E0
FFF3C0
1E0300
3E0000
3E0000
3E0000
3E0000
7C0000
7C0000
7C0000
7C0000
7C0000
F80000
F80000
F80000
FC0000
7F8000
3F0000
ENDCHAR
STARTCHAR Tbar
ENCODING 358
SWIDTH 716 0
DWIDTH 24 0
BBX 24 25 5 0
BITMAP
7FFFFF
7FFFFF
703E06
E07C06
E07C06
007C00
007C00
007C00
00F800
00F800
00F800
07FFF0
07FFF0
01F000
01F000
01F000
01F000
03F000
03E000
03E000
03E000
07E000
07E000
3FFC00
3FF800
ENDCHAR
STARTCHAR tbar
ENCODING 359
SWIDTH 375 0
DWIDTH 13 0
BBX 15 23 2 0
BITMAP
01C0
0780
0F80
0F80
0F80
7FF8
7FF8
0F00
1F00
1F00
1F00
1F00
3E00
FFFE
FFFE
3E00
3E00
7C00
7C00
7C00
7E00
3FC0
1F80
ENDCHAR
STARTCHAR Utilde
ENCODING 360
SWIDTH 775 0
DWIDTH 26 0
BBX 25 30 5 0
BITMAP
00F0C000
01FF8000
01FF8000
030F0000
00000000
7FE07F80
FFE07F80
1F800E00
1F000C00
3F001C00
3E001800
3E001800
3E001800
3E001800
7E003800
7C003000
7C003000
7C003000
7C003000
FC007000
F8006000
F8006000
F8006000
F800C000
F800C000
FC018000
7C038000
3E070000
1FFE0000
07F00000
ENDCHAR
STARTCHAR utilde
ENCODING 361
SWIDTH 655 0
DWIDTH 22 0
BBX 19 23 4 0
BITMAP
03C300
07FE00
07FE00
0C3C00
000000
FF1FE0
FF1FE0
3E07E0
3E07C0
3E07C0
3E07C0
3C07C0
7C07C0
7C0F80
7C1F80
7C3F80
786F80
F8EF80
F9CF00
FF9F00
FF1F00
FE1FC0
781FC0
ENDCHAR
STARTCHAR Umacron
ENCODING 362
SWIDTH 775 0
DWIDTH 26 0
BBX 25 28 5 0
BITMAP
03FF8000
03FF8000
00000000
7FE07F80
FFE07F80
1F800E00
1F000C00
3F001C00
3E001800
3E001800
3E001800
3E001800
7E003800
7C003000
7C003000
7C003000
7C003000
FC007000
F8006000
F8006000
F8006000
F800C000
F800C000
FC018000
7C038000
3E070000
1FFE0000
07F00000
ENDCHAR
STARTCHAR umacron
ENCODING 363
SWIDTH 655 0
DWIDTH 22 0
BBX 19 21 4 0
BITMAP
0FFE00
0FFE00
000000
FF1FE0
FF1FE0
3E07E0
3E07C0
3E07C0
3E07C0
3C07C0
7C07C0
7C0F80
7C1F80
7C3F80
786F80
F8EF80
F9CF00
FF9F00
FF1F00
FE1FC0
781FC0
ENDCHAR
STARTCHAR Ubreve
ENCODING 364
SWIDTH 775 0
DWIDTH 26 0
BBX 25 31 5 0
BITMAP
0300C000
03818000
01FF0000
01FE0000
007C0000
00000000
7FE07F80
FFE07F80
1F800E00
1F000C00
3F001C00
3E001800
3E001800
3E001800
3E001800
7E003800
7C003000
7C003000
7C003000
7C003000
FC007000
F8006000
F8006000
F8006000
F800C000
F800C000
FC018000
7C038000
3E070000
1FFE0000
07F00000
ENDCHAR
STARTCHAR ubreve
ENCODING 365
SWIDTH 655 0
DWIDTH 22 0
BBX 19 24 4 0
BITMAP
0C0300
0E0600
07FC00
07F800
01F000
000000
FF1FE0
FF1FE0
3E07E0
3E07C0
3E07C0
3E07C0
3C07C0
7C07C0
7C0F80
7C1F80
7C3F80
786F80
F8EF80
F9CF00
FF9F00
FF1F00
FE1FC0
781FC0
ENDCHAR
STARTCHAR Uring
ENCODING 366
SWIDTH 775 0
DWIDTH 26 0
BBX 25 31 5 0
BITMAP
00380000
006C0000
00440000
006C0000
00380000
00000000
7FE07F80
FFE07F80
1F800E00
1F000C00
3F001C00
3E001800
3E001800
3E001800
3E001800
7E003800
7C003000
7C003000
7C003000
7C003000
FC007000
F8006000
F8006000
F8006000
F800C000
F800C000
FC018000
7C038000
3E070000
1FFE0000
07F00000
ENDCHAR
STARTCHAR uring
ENCODING 367
SWIDTH 655 0
DWIDTH 22 0
BBX 19 24 4 0
BITMAP
00E000
01B000
011000
01B000
00E000
000000
FF1FE0
FF1FE0
3E07E0
3E07C0
3E07C0
3E07C0
3C07C0
7C07C0
7C0F80
7C1F80
7C3F80
786F80
F8EF80
F9CF00
FF9F00
FF1F00
FE1FC0
781FC0
ENDCHAR
STARTCHAR Uhungarumlaut
ENCODING 368
SWIDTH 775 0
DWIDTH 26 0
BBX 25 31 5 0
BITMAP
001EF000
0039C000
00738000
00E60000
018C0000
00000000
7FE07F80
FFE07F80
1F800E00
1F000C00
3F001C00
3E001800
3E001800
3E001800
3E001800
7E003800
7C003000
7C003000
7C003000
7C003000
FC007000
F8006000
F8006000
F8006000
F800C000
F800C000
FC018000
7C038000
3E070000
1FFE0000
07F00000
ENDCHAR
STARTCHAR uhungarumlaut
ENCODING 369
SWIDTH 655 0
DWIDTH 22 0
BBX 19 24 4 0
BITMAP
007BC0
00E700
01CE00
039800
063000
000000
FF1FE0
FF1FE0
3E07E0
3E07C0
3E07C0
3E07C0
3C07C0
7C07C0
7C0F80
7C1F80
7C3F80
786F80
F8EF80
F9CF00
FF9F00
FF1F00
FE1FC0
781FC0
ENDCHAR
STARTCHAR Uogonek
ENCODING 370
SWIDTH 775 0
DWIDTH 26 0
BBX 25 31 5 -6
BITMAP
7FE07F80
FFE07F80
1F800E00
1F000C00
3F001C00
3E001800
3E001800
3E001800
3E001800
7E003800
7C003000
7C003000
7C003000
7C003000
FC007000
F8006000
F8006000
F8006000
F800C000
F800C000
FC018000
7C038000
3E070000
1FFE0000
07F00000
00000000
00E00000
01800000
03800000
03F00000
01F00000
ENDCHAR
STARTCHAR uogonek
ENCODING 371
SWIDTH 655 0
DWIDTH 22 0
BBX 19 24 4 -6
BITMAP
FF1FE0
FF1FE0
3E07E0
3E07C0
3E07C0
3E07C0
3C07C0
7C07C0
7C0F80
7C1F80
7C3F80
786F80
F8EF80
F9CF00
FF9F00
FF1F00
FE1FC0
781FC0
000000
00E000
018000
038000
03F000
01F000
ENDCHAR
STARTCHAR Wcircumflex
ENCODING 372
SWIDTH 922 0
DWIDTH 31 0
BBX 32 31 4 0
BITMAP
0007C000
000FC000
001FE000
0038E000
00703000
00000000
FF80C03F
FF81C03F
7E01C01C
3E03C018
3E03E018
3E07E030
3E07E030
3E0FE060
3E0FE060
3E1BE0C0
3E1BE0C0
3E31E180
1E31E180
1E21E300
1E61E300
1E41F600
1EC1F600
1F81FC00
1F81FC00
1F01F800
1F01F800
1E01F000
1E01E000
1C00E000
1C00C000
ENDCHAR
STARTCHAR wcircumflex
ENCODING 373
SWIDTH 822 0
DWIDTH 28 0
BBX 28 24 3 0
BITMAP
0007C000
000FC000
001FE000
0038E000
00703000
00000000
FC0303F0
FE0301F0
3E0380F0
1E0781E0
1F0781E0
1F0FC1C0
0F0FC380
0F1FC380
0F9BC700
0FBBCE00
0FF3EC00
0FE1FC00
0FE1F800
07C1F000
0781E000
0701E000
0701C000
06018000
ENDCHAR
STARTCHAR Ycircumflex
ENCODING 374
SWIDTH 669 0
DWIDTH 23 0
BBX 23 31 5 0
BITMAP
007C00
00FC00
01FE00
038E00
070300
000000
FFC07E
FFC0FE
7E0038
3F0030
1F0060
1F00C0
1F8180
0F8380
0F8300
07C600
07CC00
07F800
03F800
03F000
03E000
03E000
03E000
03E000
07E000
07C000
07C000
07C000
0FC000
7FF800
7FF000
ENDCHAR
STARTCHAR ycircumflex
ENCODING 375
SWIDTH 586 0
DWIDTH 20 0
BBX 23 31 0 -7
BITMAP
001F00
003F00
007F80
00E380
01C0C0
000000
1FC07E
1FC03E
07E01E
03E01E
03E01C
01F03C
01F038
01F070
01F0E0
00F0C0
00F9C0
00FB80
00FF00
00FE00
00FC00
007800
007000
007000
006000
00C000
038000
070000
0F0000
1E0000
FE0000
ENDCHAR
STARTCHAR Ydieresis
ENCODING 376
SWIDTH 669 0
DWIDTH 23 0
BBX 23 30 5 0
BITMAP
00E3C0
01E3C0
01E380
000000
000000
FFC07E
FFC0FE
7E0038
3F0030
1F0060
1F00C0
1F8180
0F8380
0F8300
07C600
07CC00
07F800
03F800
03F000
03E000
03E000
03E000
03E000
07E000
07C000
07C000
07C000
0FC000
7FF800
7FF000
ENDCHAR
STARTCHAR Zacute
ENCODING 377
SWIDTH 684 0
DWIDTH 23 0
BBX 23 31 2 0
BITMAP
0001F0
0003C0
000780
000E00
001C00
000000
03FFFE
07FFFE
0700FC
0701F8
0601F8
0003F0
0007E0
000FC0
000FC0
001F80
003F00
007E00
00FC00
00FC00
01F800
03F000
07E000
07E000
0FC000
1F8000
3F0070
7F0060
7E00E0
FFFFE0
FFFFE0
ENDCHAR
STARTCHAR zacute
ENCODING 378
SWIDTH 567 0
DWIDTH 19 0
BBX 19 24 2 0
BITMAP
000F80
001E00
003C00
007000
00E000
000000
0FFFE0
0FFFE0
1C07C0
1C0F80
181F00
003E00
007E00
00FC00
01F800
03F000
07E000
0FC000
0F8000
1F0180
3F0180
7E0380
FFFF00
FFFF00
ENDCHAR
STARTCHAR Zdotaccent
ENCODING 379
SWIDTH 684 0
DWIDTH 23 0
BBX 23 30 2 0
BITMAP
000780
000780
000F00
000F00
000000
03FFFE
07FFFE
0700FC
0701F8
0601F8
0003F0
0007E0
000FC0
000FC0
001F80
003F00
007E00
00FC00
00FC00
01F800
03F000
07E000
07E000
0FC000
1F8000
3F0070
7F0060
7E00E0
FFFFE0
FFFFE0
ENDCHAR
STARTCHAR zdotaccent
ENCODING 380
SWIDTH 567 0
DWIDTH 19 0
BBX 19 23 2 0
BITMAP
003C00
003C00
007800
007800
000000
0FFFE0
0FFFE0
1C07C0
1C0F80
181F00
003E00
007E00
00FC00
01F800
03F000
07E000
0FC000
0F8000
1F0180
3F0180
7E0380
FFFF00
FFFF00
ENDCHAR
STARTCHAR Zcaron
ENCODING 381
SWIDTH 684 0
DWIDTH 23 0
BBX 23 32 2 0
BITMAP
003038
001870
001DE0
000FC0
000F80
000000
000000
03FFFE
07FFFE
0700FC
0701F8
0601F8
0003F0
0007E0
000FC0
000FC0
001F80
003F00
007E00
00FC00
00FC00
01F800
03F000
07E000
07E000
0FC000
1F8000
3F0070
7F0060
7E00E0
FFFFE0
FFFFE0
ENDCHAR
STARTCHAR zcaron
ENCODING 382
SWIDTH 567 0
DWIDTH 19 0
BBX 20 25 2 0
BITMAP
006070
0030E0
003BC0
001F80
001F00
000000
000000
0FFFE0
0FFFE0
1C07C0
1C0F80
181F00
003E00
007E00
00FC00
01F800
03F000
07E000
0FC000
0F8000
1F0180
3F0180
7E0380
FFFF00
FFFF00
ENDCHAR
STARTCHAR uni0186
ENCODING 390
SWIDTH 740 0
DWIDTH 25 0
BBX 24 25 4 0
BITMAP
00FFC0
0FFFF0
0E01F8
0000FC
00007E
00003E
00003F
00003F
00003F
00003F
00003F
00003F
00003F
00003E
00003E
00007E
00007C
000078
7000F8
6001F0
6003E0
7007C0
F81F80
FFFE00
3FF000
ENDCHAR
STARTCHAR uni0189
ENCODING 393
SWIDTH 822 0
DWIDTH 28 0
BBX 28 25 1 0
BITMAP
07FFFC00
07FFFF00
01F01FC0
01F007E0
01F003E0
01F003F0
03F003F0
03E001F0
03E001F0
03E001F0
07E001F0
3FFF01F0
3FFF03F0
07C003E0
07C003E0
0FC003E0
0FC007C0
0F8007C0
0F800F80
0F801F80
1F803F00
1F807E00
3F81F800
FFFFF000
FFFF8000
ENDCHAR
STARTCHAR uni018E
ENCODING 398
SWIDTH 630 0
DWIDTH 21 0
BBX 23 25 1 0
BITMAP
0FFFFE
0FFFFE
0E01F8
0C01F0
1C03F0
0003E0
0003E0
0003E0
0003E0
0007C0
0607C0
0607C0
07FFC0
07FFC0
060F80
0C0F80
000F80
000F80
000F80
001F00
601F00
601F00
E01F00
FFFFC0
FFFFC0
ENDCHAR
STARTCHAR florin
ENCODING 402
SWIDTH 636 0
DWIDTH 22 0
BBX 18 31 7 -6
BITMAP
001FC0
007FC0
00E1C0
01E1C0
03C180
03C180
07C000
07C000
0F8000
0F8000
0F8000
0F8000
7FF800
7FF000
1F0000
1F0000
1F0000
1F0000
1E0000
3E0000
3E0000
3E0000
3E0000
3C0000
7C0000
7C0000
7C0000
7C0000
780000
F80000
F80000
ENDCHAR
STARTCHAR uni0197
ENCODING 407
SWIDTH 372 0
DWIDTH 13 0
BBX 15 25 1 0
BITMAP
07FE
0FFE
01F8
01F0
03F0
03E0
03E0
03E0
03E0
03E0
07C0
FFFE
FFFE
07C0
07C0
0F80
0F80
0F80
0F80
0F80
1F00
1F00
3F00
FFE0
FFC0
ENDCHAR
STARTCHAR uni019A
ENCODING 410
SWIDTH 319 0
DWIDTH 11 0
BBX 15 26 1 0
BITMAP
0FF0
0FF0
03F0
03E0
03E0
03E0
03E0
03E0
07C0
07C0
07C0
07C0
FFFE
FFFE
0F80
0F80
0F80
0F80
1F00
1F00
1F00
1F00
1F00
3F00
3FC0
3FC0
ENDCHAR
STARTCHAR uni019D
ENCODING 413
SWIDTH 797 0
DWIDTH 27 0
BBX 36 32 -5 -7
BITMAP
001F800FF0
001FC00FF0
0007C003C0
0007E00380
0007F00380
0007F00300
000FF80300
000EF80700
000EFC0700
000C7C0600
000C7E0600
001C3E0600
001C1F0E00
001C1F0E00
00180F8C00
00180F8C00
003807DC00
003C07DC00
007C03FC00
007C03F800
007C01F800
007C00F800
007800F800
00F8007800
00F8007000
00F8000000
60F0000000
61F0000000
E1E0000000
E3C0000000
FF80000000
7E00000000
ENDCHAR
STARTCHAR uni019F
ENCODING 415
SWIDTH 831 0
DWIDTH 28 0
BBX 26 25 4 0
BITMAP
000FF000
007FFC00
00F83E00
03E01F00
07C00F80
0F800F80
1F000F80
1F000FC0
3E000FC0
7E000FC0
7C000FC0
FFFFFFC0
FFFFFFC0
FC000F80
FC000F80
FC001F00
FC001F00
FC003E00
FC003C00
7C007C00
7C00F800
3E01E000
1F07C000
0FFF0000
03F80000
ENDCHAR
STARTCHAR Ohorn
ENCODING 416
SWIDTH 831 0
DWIDTH 28 0
BBX 31 25 4 0
BITMAP
000FF07E
007FFC7E
00F83E7C
03E01F7C
07C00FFC
0F800FBC
1F000FB8
1F000FF8
3E000FF0
7E000FE0
7C000FC0
7C000FC0
FC000F80
FC000F80
FC000F80
FC001F00
FC001F00
FC003E00
FC003C00
7C007C00
7C00F800
3E01E000
1F07C000
0FFF0000
03F80000
ENDCHAR
STARTCHAR ohorn
ENCODING 417
SWIDTH 599 0
DWIDTH 20 0
BBX 25 18 3 0
BITMAP
007E1F80
01FF9F80
0787DF00
0F07DF00
1E03FF00
3E03EF00
3C03EE00
7C03EE00
7C03FC00
FC07F800
F807E000
F8078000
F80F8000
FC0F0000
FC1E0000
7E3C0000
3FF00000
0FC00000
ENDCHAR
STARTCHAR Uhorn
ENCODING 431
SWIDTH 775 0
DWIDTH 26 0
BBX 30 25 5 0
BITMAP
7FE07FFC
FFE07FFC
1F800EF8
1F000CF8
3F001DF8
3E001878
3E001870
3E001870
3E0018E0
7E003BC0
7C003300
7C003000
7C003000
7C003000
FC007000
F8006000
F8006000
F8006000
F800C000
F800C000
FC018000
7C038000
3E070000
1FFE0000
07F00000
ENDCHAR
STARTCHAR uhorn
ENCODING 432
SWIDTH 655 0
DWIDTH 22 0
BBX 25 18 4 0
BITMAP
FF1FFF80
FF1FFF80
3E07FF00
3E07DF00
3E07FF00
3E07CF00
3C07CE00
7C07CE00
7C0F9C00
7C1FF800
7C3FE000
786F8000
F8EF8000
F9CF0000
FF9F0000
FF1F0000
FE1FC000
781FC000
ENDCHAR
STARTCHAR uni01B5
ENCODING 437
SWIDTH 684 0
DWIDTH 23 0
BBX 23 25 2 0
BITMAP
03FFFE
07FFFE
0700FC
0701F8
0601F8
0003F0
0007E0
000FC0
000FC0
001F80
003F00
0FFFE0
0FFFE0
00FC00
01F800
03F000
07E000
07E000
0FC000
1F8000
3F0070
7F0060
7E00E0
FFFFE0
FFFFE0
ENDCHAR
STARTCHAR uni01B6
ENCODING 438
SWIDTH 567 0
DWIDTH 19 0
BBX 19 18 2 0
BITMAP
0FFFE0
0FFFE0
1C07C0
1C0F80
181F00
003E00
007E00
00FC00
3FFF80
3FFF80
07E000
0FC000
0F8000
1F0180
3F0180
7E0380
FFFF00
FFFF00
ENDCHAR
STARTCHAR uni01BB
ENCODING 443
SWIDTH 636 0
DWIDTH 22 0
BBX 20 25 3 0
BITMAP
007F00
07FFC0
0787E0
0703F0
0601F0
0E01F0
0C01F0
0001F0
0003E0
0007E0
000780
FFFFF0
FFFFF0
007800
00E000
038000
070000
0E0000
1C0000
380000
380000
7FFF80
FFFF80
FFFF00
FFFF00
ENDCHAR
STARTCHAR uni01BC
ENCODING 444
SWIDTH 636 0
DWIDTH 22 0
BBX 20 25 4 0
BITMAP
07FFF0
07FFF0
07FFF0
07FFE0
040000
0C0000
0C0000
0C0000
080000
0FC000
1FF800
00FE00
003F00
001F00
000F80
000F80
000F80
000F80
000F80
600F00
601F00
603E00
F07C00
FFF000
7F8000
ENDCHAR
STARTCHAR uni01C0
ENCODING 448
SWIDTH 253 0
DWIDTH 9 0
BBX 9 32 2 -6
BITMAP
0380
0380
0380
0300
0700
0700
0700
0700
0600
0E00
0E00
0E00
0E00
0C00
1C00
1C00
1C00
1C00
1800
3800
3800
3800
3800
3000
7000
7000
7000
7000
6000
E000
E000
E000
ENDCHAR
STARTCHAR uni01C2
ENCODING 450
SWIDTH 636 0
DWIDTH 21 0
BBX 21 32 2 -6
BITMAP
000E00
000E00
000E00
000C00
001C00
001C00
001C00
001C00
001800
003800
003800
003800
7FFFF8
7FFFF8
007000
007000
007000
007000
006000
FFFFF0
FFFFF0
00E000
00E000
00C000
01C000
01C000
01C000
01C000
018000
038000
038000
038000
ENDCHAR
STARTCHAR uni01C3
ENCODING 451
SWIDTH 265 0
DWIDTH 9 0
BBX 10 25 2 0
BITMAP
07C0
07C0
0F80
0F80
0F80
0F80
0F80
0F00
0F00
0F00
1E00
1E00
1E00
1E00
1C00
1C00
1C00
1800
0000
0000
0000
7C00
7C00
F800
F800
ENDCHAR
STARTCHAR uni01CD
ENCODING 461
SWIDTH 765 0
DWIDTH 26 0
BBX 26 31 0 0
BITMAP
00181C00
000C3800
000EF000
0007E000
0007C000
00000000
0000E000
0001E000
0001F000
0003F000
0003F000
0007F000
000FF000
000CF800
0018F800
0038F800
0030F800
00607C00
00607C00
00C07C00
01807C00
01FFFC00
03FFFE00
07003E00
06003E00
0C003E00
0C001F00
18001F00
38001F80
FE00FFC0
FE00FFC0
ENDCHAR
STARTCHAR uni01CE
ENCODING 462
SWIDTH 634 0
DWIDTH 22 0
BBX 20 24 2 0
BITMAP
0181C0
00C380
00EF00
007E00
007C00
000000
003FF0
01FFF0
0383E0
0703E0
0E03E0
1E03E0
3C03E0
3C07C0
7C07C0
7C0FC0
F81FC0
F837C0
F87780
F8EF80
FFCF80
FF8F80
7F0FE0
3C1FE0
ENDCHAR
STARTCHAR uni01CF
ENCODING 463
SWIDTH 372 0
DWIDTH 13 0
BBX 15 31 1 0
BITMAP
0C0E
061C
0778
03F0
03E0
0000
07FE
0FFE
01F8
01F0
03F0
03E0
03E0
03E0
03E0
03E0
07C0
07C0
07C0
07C0
07C0
0F80
0F80
0F80
0F80
0F80
1F00
1F00
3F00
FFE0
FFC0
ENDCHAR
STARTCHAR uni01D0
ENCODING 464
SWIDTH 319 0
DWIDTH 11 0
BBX 11 24 3 0
BITMAP
C0E0
61C0
7780
3F00
3E00
0000
7F80
7F80
1F00
1F00
1F00
1F00
1E00
3E00
3E00
3E00
3E00
3C00
7C00
7C00
7C00
7C00
FF00
FF00
ENDCHAR
STARTCHAR uni01D1
ENCODING 465
SWIDTH 831 0
DWIDTH 28 0
BBX 26 31 4 0
BITMAP
00607000
0030E000
003BC000
001F8000
001F0000
00000000
000FF000
007FFC00
00F83E00
03E01F00
07C00F80
0F800F80
1F000F80
1F000FC0
3E000FC0
7E000FC0
7C000FC0
7C000FC0
FC000F80
FC000F80
FC000F80
FC001F00
FC001F00
FC003E00
FC003C00
7C007C00
7C00F800
3E01E000
1F07C000
0FFF0000
03F80000
ENDCHAR
STARTCHAR uni01D2
ENCODING 466
SWIDTH 599 0
DWIDTH 20 0
BBX 19 24 3 0
BITMAP
030380
018700
01DE00
00FC00
00F800
000000
007E00
01FF80
0787C0
0F07C0
1E03E0
3E03E0
3C03E0
7C03E0
7C03E0
FC07C0
F807C0
F80780
F80F80
FC0F00
FC1E00
7E3C00
3FF000
0FC000
ENDCHAR
STARTCHAR uni01D3
ENCODING 467
SWIDTH 775 0
DWIDTH 26 0
BBX 25 31 5 0
BITMAP
0181C000
00C38000
00EF0000
007E0000
007C0000
00000000
7FE07F80
FFE07F80
1F800E00
1F000C00
3F001C00
3E001800
3E001800
3E001800
3E001800
7E003800
7C003000
7C003000
7C003000
7C003000
FC007000
F8006000
F8006000
F8006000
F800C000
F800C000
FC018000
7C038000
3E070000
1FFE0000
07F00000
ENDCHAR
STARTCHAR uni01D4
ENCODING 468
SWIDTH 655 0
DWIDTH 22 0
BBX 19 24 4 0
BITMAP
060700
030E00
03BC00
01F800
01F000
000000
FF1FE0
FF1FE0
3E07E0
3E07C0
3E07C0
3E07C0
3C07C0
7C07C0
7C0F80
7C1F80
7C3F80
786F80
F8EF80
F9CF00
FF9F00
FF1F00
FE1FC0
781FC0
ENDCHAR
STARTCHAR uni01D5
ENCODING 469
SWIDTH 775 0
DWIDTH 26 0
BBX 25 33 5 0
BITMAP
01FFC000
01FFC000
00000000
0071E000
00F1E000
00F1C000
00000000
00000000
7FE07F80
FFE07F80
1F800E00
1F000C00
3F001C00
3E001800
3E001800
3E001800
3E001800
7E003800
7C003000
7C003000
7C003000
7C003000
FC007000
F8006000
F8006000
F8006000
F800C000
F800C000
FC018000
7C038000
3E070000
1FFE0000
07F00000
ENDCHAR
STARTCHAR uni01D6
ENCODING 470
SWIDTH 655 0
DWIDTH 22 0
BBX 19 26 4 0
BITMAP
07FF00
07FF00
000000
00E3C0
01E3C0
01E380
000000
000000
FF1FE0
FF1FE0
3E07E0
3E07C0
3E07C0
3E07C0
3C07C0
7C07C0
7C0F80
7C1F80
7C3F80
786F80
F8EF80
F9CF00
FF9F00
FF1F00
FE1FC0
781FC0
ENDCHAR
STARTCHAR uni01D7
ENCODING 471
SWIDTH 775 0
DWIDTH 26 0
BBX 25 36 5 0
BITMAP
0003E000
00078000
000F0000
001C0000
00380000
00000000
0071E000
00F1E000
00F1C000
00000000
00000000
7FE07F80
FFE07F80
1F800E00
1F000C00
3F001C00
3E001800
3E001800
3E001800
3E001800
7E003800
7C003000
7C003000
7C003000
7C003000
FC007000
F8006000
F8006000
F8006000
F800C000
F800C000
FC018000
7C038000
3E070000
1FFE0000
07F00000
ENDCHAR
STARTCHAR uni01D8
ENCODING 472
SWIDTH 655 0
DWIDTH 22 0
BBX 19 29 4 0
BITMAP
000F80
001E00
003C00
007000
00E000
000000
00E3C0
01E3C0
01E380
000000
000000
FF1FE0
FF1FE0
3E07E0
3E07C0
3E07C0
3E07C0
3C07C0
7C07C0
7C0F80
7C1F80
7C3F80
786F80
F8EF80
F9CF00
FF9F00
FF1F00
FE1FC0
781FC0
ENDCHAR
STARTCHAR uni01D9
ENCODING 473
SWIDTH 775 0
DWIDTH 26 0
BBX 25 36 5 0
BITMAP
00C0E000
0061C000
00778000
003F0000
003E0000
00000000
0071E000
00F1E000
00F1C000
00000000
00000000
7FE07F80
FFE07F80
1F800E00
1F000C00
3F001C00
3E001800
3E001800
3E001800
3E001800
7E003800
7C003000
7C003000
7C003000
7C003000
FC007000
F8006000
F8006000
F8006000
F800C000
F800C000
FC018000
7C038000
3E070000
1FFE0000
07F00000
ENDCHAR
STARTCHAR uni01DA
ENCODING 474
SWIDTH 655 0
DWIDTH 22 0
BBX 19 29 4 0
BITMAP
030380
018700
01DE00
00FC00
00F800
000000
00E3C0
01E3C0
01E380
000000
000000
FF1FE0
FF1FE0
3E07E0
3E07C0
3E07C0
3E07C0
3C07C0
7C07C0
7C0F80
7C1F80
7C3F80
786F80
F8EF80
F9CF00
FF9F00
FF1F00
FE1FC0
781FC0
ENDCHAR
STARTCHAR uni01DB
ENCODING 475
SWIDTH 775 0
DWIDTH 26 0
BBX 25 36 5 0
BITMAP
00F80000
00380000
001C0000
000C0000
00060000
00000000
0071E000
00F1E000
00F1C000
00000000
00000000
7FE07F80
FFE07F80
1F800E00
1F000C00
3F001C00
3E001800
3E001800
3E001800
3E001800
7E003800
7C003000
7C003000
7C003000
7C003000
FC007000
F8006000
F8006000
F8006000
F800C000
F800C000
FC018000
7C038000
3E070000
1FFE0000
07F00000
ENDCHAR
STARTCHAR uni01DC
ENCODING 476
SWIDTH 655 0
DWIDTH 22 0
BBX 19 29 4 0
BITMAP
03E000
00E000
007000
003000
001800
000000
00E3C0
01E3C0
01E380
000000
000000
FF1FE0
FF1FE0
3E07E0
3E07C0
3E07C0
3E07C0
3C07C0
7C07C0
7C0F80
7C1F80
7C3F80
786F80
F8EF80
F9CF00
FF9F00
FF1F00
FE1FC0
781FC0
ENDCHAR
STARTCHAR uni01DD
ENCODING 477
SWIDTH 548 0
DWIDTH 19 0
BBX 17 18 3 0
BITMAP
07F800
3FFE00
783F00
601F80
000F80
000F80
000F80
01FF80
07FF80
1F8F00
3E1F00
7C1E00
781E00
F83C00
783800
7C7000
7FC000
1F0000
ENDCHAR
STARTCHAR uni01DE
ENCODING 478
SWIDTH 765 0
DWIDTH 26 0
BBX 26 33 0 0
BITMAP
001FFC00
001FFC00
00000000
00038F00
00078F00
00078E00
00000000
00000000
0000E000
0001E000
0001F000
0003F000
0003F000
0007F000
000FF000
000CF800
0018F800
0038F800
0030F800
00607C00
00607C00
00C07C00
01807C00
01FFFC00
03FFFE00
07003E00
06003E00
0C003E00
0C001F00
18001F00
38001F80
FE00FFC0
FE00FFC0
ENDCHAR
STARTCHAR uni01DF
ENCODING 479
SWIDTH 634 0
DWIDTH 22 0
BBX 20 26 2 0
BITMAP
01FFC0
01FFC0
000000
0071E0
00F1E0
00F1C0
000000
000000
003FF0
01FFF0
0383E0
0703E0
0E03E0
1E03E0
3C03E0
3C07C0
7C07C0
7C0FC0
F81FC0
F837C0
F87780
F8EF80
FFCF80
FF8F80
7F0FE0
3C1FE0
ENDCHAR
STARTCHAR uni01E0
ENCODING 480
SWIDTH 765 0
DWIDTH 26 0
BBX 26 33 0 0
BITMAP
003FF800
003FF800
00000000
0003C000
0003C000
00078000
00078000
00000000
0000E000
0001E000
0001F000
0003F000
0003F000
0007F000
000FF000
000CF800
0018F800
0038F800
0030F800
00607C00
00607C00
00C07C00
01807C00
01FFFC00
03FFFE00
07003E00
06003E00
0C003E00
0C001F00
18001F00
38001F80
FE00FFC0
FE00FFC0
ENDCHAR
STARTCHAR uni01E1
ENCODING 481
SWIDTH 634 0
DWIDTH 22 0
BBX 20 26 2 0
BITMAP
01FFC0
01FFC0
000000
001E00
001E00
003C00
003C00
000000
003FF0
01FFF0
0383E0
0703E0
0E03E0
1E03E0
3C03E0
3C07C0
7C07C0
7C0FC0
F81FC0
F837C0
F87780
F8EF80
FFCF80
FF8F80
7F0FE0
3C1FE0
ENDCHAR
STARTCHAR uni01E2
ENCODING 482
SWIDTH 958 0
DWIDTH 33 0
BBX 35 28 0 0
BITMAP
00007FF000
00007FF000
0000000000
00001FFFE0
00001FFFE0
00003F00E0
00007F00C0
0000DF00C0
0001DF0000
00019F0000
00033E0000
00063E0000
000E3E0600
000C3E0600
00183FFE00
00307FFE00
00607C0E00
00607C0C00
00C07C0000
01FFFC0000
03FFF80000
0600F80000
0600F80000
0C00F80700
1800F80700
3801F80E00
FC07FFFE00
FC0FFFFE00
ENDCHAR
STARTCHAR uni01E3
ENCODING 483
SWIDTH 905 0
DWIDTH 31 0
BBX 29 21 2 0
BITMAP
001FFC00
001FFC00
00000000
007FF3E0
01FFFFF0
0387F8F8
0703F0F8
0E03E0F8
1E03E0F8
3E03C0F0
3C03C0E0
7C07C1C0
7C0FC780
F81FFE00
F81F8000
F8378000
F867C000
F8C7C018
FF83E0F8
7F01FFE0
3C00FF00
ENDCHAR
STARTCHAR uni01E4
ENCODING 484
SWIDTH 780 0
DWIDTH 26 0
BBX 29 25 4 0
BITMAP
000FFC00
007FFF00
01F81F00
03E00F00
07C00600
0F800600
1F000E00
1F000000
3E000000
3E000000
7C000000
7C000000
FC000000
FC07FF00
FC07FF00
FC00FC00
FC00F800
FC00F800
FC03FFF8
7C03FFF8
7E01F000
3E01F000
1F81F000
0FFFE000
03FE0000
ENDCHAR
STARTCHAR uni01E5
ENCODING 485
SWIDTH 628 0
DWIDTH 21 0
BBX 21 25 1 -7
BITMAP
001FF8
00FFF8
01C1F8
0380F0
0781F0
0F01F0
1F01F0
1E03F0
3E07E0
3E07E0
3C0FE0
7C1FE0
7C3FE0
7E77C0
7FE7C0
7FC7C0
3F87C0
1E0F80
FFFFF8
FFFFF8
C00F00
F01E00
7C1C00
7FF800
3FC000
ENDCHAR
STARTCHAR Gcaron
ENCODING 486
SWIDTH 780 0
DWIDTH 26 0
BBX 24 31 4 0
BITMAP
006070
0030E0
003BC0
001F80
001F00
000000
000FFC
007FFF
01F81F
03E00F
07C006
0F8006
1F000E
1F0000
3E0000
3E0000
7C0000
7C0000
FC0000
FC07FF
FC07FF
FC00FC
FC00F8
FC00F8
FC01F0
7C01F0
7E01F0
3E01F0
1F81F0
0FFFE0
03FE00
ENDCHAR
STARTCHAR gcaron
ENCODING 487
SWIDTH 628 0
DWIDTH 21 0
BBX 21 31 1 -7
BITMAP
00C0E0
0061C0
007780
003F00
003E00
000000
001FF8
00FFF8
01C1F8
0380F0
0781F0
0F01F0
1F01F0
1E03F0
3E07E0
3E07E0
3C0FE0
7C1FE0
7C3FE0
7E77C0
7FE7C0
7FC7C0
3F87C0
1E0F80
000F80
800F80
C00F00
F01E00
7C1C00
7FF800
3FC000
ENDCHAR
STARTCHAR uni01E8
ENCODING 488
SWIDTH 746 0
DWIDTH 25 0
BBX 26 31 1 0
BITMAP
00607000
0030E000
003BC000
001F8000
001F0000
00000000
07FE1FC0
07FE1FC0
01F80700
01F00C00
01E01800
03E07000
03E0E000
03E1C000
03E30000
03C60000
07DC0000
07FE0000
07FE0000
07FF0000
079F8000
0F9F8000
0F8FC000
0F87E000
0F87F000
0F03F000
1F01F800
1F01FC00
3F00FE00
FFC3FF00
FFC3FF00
ENDCHAR
STARTCHAR uni01E9
ENCODING 489
SWIDTH 626 0
DWIDTH 21 0
BBX 19 32 3 0
BITMAP
181C00
0C3800
0EF000
07E000
07C000
000000
3FC000
3FC000
07C000
07C000
0F8000
0F8000
0F8000
0F8000
0F83E0
1F03E0
1F03C0
1F07C0
1F0780
1F1E00
3E3C00
3EF000
3FF000
3EF800
3CF800
7C7C00
7C7C00
7C3E00
7C3F00
781F80
F80FE0
F80FE0
ENDCHAR
STARTCHAR uni01EA
ENCODING 490
SWIDTH 831 0
DWIDTH 28 0
BBX 26 31 4 -6
BITMAP
000FF000
007FFC00
00F83E00
03E01F00
07C00F80
0F800F80
1F000F80
1F000FC0
3E000FC0
7E000FC0
7C000FC0
7C000FC0
FC000F80
FC000F80
FC000F80
FC001F00
FC001F00
FC003E00
FC003C00
7C007C00
7C00F800
3E01E000
1F07C000
0FFF0000
03F80000
00000000
00380000
00600000
00E00000
00FC0000
007C0000
ENDCHAR
STARTCHAR uni01EB
ENCODING 491
SWIDTH 599 0
DWIDTH 20 0
BBX 19 24 3 -6
BITMAP
007E00
01FF80
0787C0
0F07C0
1E03E0
3E03E0
3C03E0
7C03E0
7C03E0
FC07C0
F807C0
F80780
F80F80
FC0F00
FC1E00
7E3C00
3FF000
0FC000
000000
01C000
030000
070000
07E000
03E000
ENDCHAR
STARTCHAR uni01EC
ENCODING 492
SWIDTH 831 0
DWIDTH 28 0
BBX 26 34 4 -6
BITMAP
007FF000
007FF000
00000000
000FF000
007FFC00
00F83E00
03E01F00
07C00F80
0F800F80
1F000F80
1F000FC0
3E000FC0
7E000FC0
7C000FC0
7C000FC0
FC000F80
FC000F80
FC000F80
FC001F00
FC001F00
FC003E00
FC003C00
7C007C00
7C00F800
3E01E000
1F07C000
0FFF0000
03F80000
00000000
00380000
00600000
00E00000
00FC0000
007C0000
ENDCHAR
STARTCHAR uni01ED
ENCODING 493
SWIDTH 599 0
DWIDTH 20 0
BBX 19 27 3 -6
BITMAP
07FF00
07FF00
000000
007E00
01FF80
0787C0
0F07C0
1E03E0
3E03E0
3C03E0
7C03E0
7C03E0
FC07C0
F807C0
F80780
F80F80
FC0F00
FC1E00
7E3C00
3FF000
0FC000
000000
01C000
030000
070000
07E000
03E000
ENDCHAR
STARTCHAR uni01F0
ENCODING 496
SWIDTH 381 0
DWIDTH 13 0
BBX 18 31 -2 -7
BITMAP
0181C0
00C380
00EF00
007E00
007C00
000000
007F00
007F00
001F00
001F00
001F00
001E00
003E00
003E00
003E00
003E00
003C00
007C00
007C00
007C00
007C00
007800
00F800
00F800
00F800
60F000
61F000
E1E000
E3C000
FF8000
7E0000
ENDCHAR
STARTCHAR uni01F4
ENCODING 500
SWIDTH 780 0
DWIDTH 26 0
BBX 24 31 4 0
BITMAP
0001F0
0003C0
000780
000E00
001C00
000000
000FFC
007FFF
01F81F
03E00F
07C006
0F8006
1F000E
1F0000
3E0000
3E0000
7C0000
7C0000
FC0000
FC07FF
FC07FF
FC00FC
FC00F8
FC00F8
FC01F0
7C01F0
7E01F0
3E01F0
1F81F0
0FFFE0
03FE00
ENDCHAR
STARTCHAR uni01F5
ENCODING 501
SWIDTH 628 0
DWIDTH 21 0
BBX 21 31 1 -7
BITMAP
0003E0
000780
000F00
001C00
003800
000000
001FF8
00FFF8
01C1F8
0380F0
0781F0
0F01F0
1F01F0
1E03F0
3E07E0
3E07E0
3C0FE0
7C1FE0
7C3FE0
7E77C0
7FE7C0
7FC7C0
3F87C0
1E0F80
000F80
800F80
C00F00
F01E00
7C1C00
7FF800
3FC000
ENDCHAR
STARTCHAR uni01F8
ENCODING 504
SWIDTH 797 0
DWIDTH 27 0
BBX 30 31 1 0
BITMAP
001F0000
00070000
00038000
00018000
0000C000
00000000
07E003FC
07F003FC
01F000F0
01F800E0
01FC00E0
01FC00C0
03FE00C0
03BE01C0
03BF01C0
031F0180
031F8180
070F8180
0707C380
0707C380
0603E300
0603E300
0E01F700
0E01F700
0C00FF00
0C00FE00
1C007E00
1C003E00
3C003E00
FF001E00
FF001C00
ENDCHAR
STARTCHAR uni01F9
ENCODING 505
SWIDTH 656 0
DWIDTH 22 0
BBX 19 24 3 0
BITMAP
07C000
01C000
00E000
006000
003000
000000
7F07C0
7F0FE0
1F1FE0
1F3FE0
1F73E0
3EE3E0
3FC3C0
3F87C0
3F07C0
3F07C0
7E07C0
7C0780
7C0F80
7C0F80
7C0F80
F80F80
F80FE0
F81FE0
ENDCHAR
STARTCHAR Aringacute
ENCODING 506
SWIDTH 765 0
DWIDTH 26 0
BBX 26 38 0 0
BITMAP
00003E00
00007800
0000F000
0001C000
00038000
00000000
00007000
0000D800
00008800
0000D800
00007000
00000000
00000000
0000E000
0001E000
0001F000
0003F000
0003F000
0007F000
000FF000
000CF800
0018F800
0038F800
0030F800
00607C00
00607C00
00C07C00
01807C00
01FFFC00
03FFFE00
07003E00
06003E00
0C003E00
0C001F00
18001F00
38001F80
FE00FFC0
FE00FFC0
ENDCHAR
STARTCHAR aringacute
ENCODING 507
SWIDTH 634 0
DWIDTH 22 0
BBX 20 31 2 0
BITMAP
0003E0
000780
000F00
001C00
003800
000000
000700
000D80
000880
000D80
000700
000000
000000
003FF0
01FFF0
0383E0
0703E0
0E03E0
1E03E0
3C03E0
3C07C0
7C07C0
7C0FC0
F81FC0
F837C0
F87780
F8EF80
FFCF80
FF8F80
7F0FE0
3C1FE0
ENDCHAR
STARTCHAR AEacute
ENCODING 508
SWIDTH 958 0
DWIDTH 33 0
BBX 35 31 0 0
BITMAP
000001F000
000003C000
0000078000
00000E0000
00001C0000
0000000000
00001FFFE0
00001FFFE0
00003F00E0
00007F00C0
0000DF00C0
0001DF0000
00019F0000
00033E0000
00063E0000
000E3E0600
000C3E0600
00183FFE00
00307FFE00
00607C0E00
00607C0C00
00C07C0000
01FFFC0000
03FFF80000
0600F80000
0600F80000
0C00F80700
1800F80700
3801F80E00
FC07FFFE00
FC0FFFFE00
ENDCHAR
STARTCHAR aeacute
ENCODING 509
SWIDTH 905 0
DWIDTH 31 0
BBX 29 24 2 0
BITMAP
00003E00
00007800
0000F000
0001C000
00038000
00000000
007FF3E0
01FFFFF0
0387F8F8
0703F0F8
0E03E0F8
1E03E0F8
3E03C0F0
3C03C0E0
7C07C1C0
7C0FC780
F81FFE00
F81F8000
F8378000
F867C000
F8C7C018
FF83E0F8
7F01FFE0
3C00FF00
ENDCHAR
STARTCHAR Oslashacute
ENCODING 510
SWIDTH 831 0
DWIDTH 28 0
BBX 30 31 2 0
BITMAP
00003E00
00007800
0000F000
0001C000
00038000
00000000
0003FC1C
001FFF38
003E0FF0
00F807E0
01F003E0
03E003E0
07C007F0
07C01FF0
0F8039F0
1F8073F0
1F00E3F0
1F01C3F0
3F0383F0
3F0703E0
3F1C03E0
3F3807E0
3F7007C0
3FE00F80
3FC00F80
1F801F00
1F003E00
0F807C00
1FC1F000
33FFE000
E0FF0000
ENDCHAR
STARTCHAR oslashacute
ENCODING 511
SWIDTH 599 0
DWIDTH 20 0
BBX 22 24 1 0
BITMAP
0003E0
000780
000F00
001C00
003800
000000
003F9C
00FFF0
01E3E0
0781F0
0F81F0
0F03F0
1F07F0
3E1DF0
3E39F0
3E71F0
3EC1E0
7F83E0
7F03C0
7E0780
3E0700
3F1E00
3FFC00
E7E000
ENDCHAR
STARTCHAR Scommaaccent
ENCODING 536
SWIDTH 587 0
DWIDTH 20 0
BBX 20 39 2 -14
BITMAP
003FC0
01FFF0
03E0F0
078070
0F8060
0F8060
0F8000
0F8000
0FC000
0FE000
07F000
03FC00
01FE00
00FF00
007F80
001F80
000FC0
000FC0
000FC0
600F80
600F80
E01F00
F83E00
FFFC00
3FE000
000000
01F800
01F800
01F800
01F000
03F000
03F000
00F000
00F000
00E000
01E000
01C000
078000
060000
ENDCHAR
STARTCHAR scommaaccent
ENCODING 537
SWIDTH 479 0
DWIDTH 16 0
BBX 16 32 2 -14
BITMAP
01FE
07FF
0F07
0F06
1F06
1F06
0F80
0FC0
07F0
03F8
01F8
00FC
607C
607C
E07C
F0F8
FFF0
3FC0
0000
07E0
07E0
07E0
07C0
0FC0
0FC0
03C0
03C0
0380
0780
0700
1E00
1800
ENDCHAR
STARTCHAR Tcommaaccent
ENCODING 538
SWIDTH 716 0
DWIDTH 24 0
BBX 24 39 5 -14
BITMAP
7FFFFF
7FFFFF
703E06
E07C06
E07C06
007C00
007C00
007C00
00F800
00F800
00F800
00F800
01F800
01F000
01F000
01F000
01F000
03F000
03E000
03E000
03E000
07E000
07E000
3FFC00
3FF800
000000
01F800
01F800
01F800
01F000
03F000
03F000
00F000
00F000
00E000
01E000
01C000
078000
060000
ENDCHAR
STARTCHAR tcommaaccent
ENCODING 539
SWIDTH 375 0
DWIDTH 13 0
BBX 12 37 3 -14
BITMAP
0380
0F00
1F00
1F00
1F00
FFF0
FFF0
1E00
3E00
3E00
3E00
3E00
7C00
7C00
7C00
7C00
7C00
F800
F800
F800
FC00
7F80
3F00
0000
3F00
3F00
3F00
3E00
7E00
7E00
1E00
1E00
1C00
3C00
3800
F000
C000
ENDCHAR
STARTCHAR uni021E
ENCODING 542
SWIDTH 827 0
DWIDTH 28 0
BBX 31 31 1 0
BITMAP
000C0E00
00061C00
00077800
0003F000
0003E000
00000000
07FF0FFE
07FE0FFE
01F803F8
01F003F0
01F003F0
01F003E0
03F003E0
03E003E0
03E007E0
03E007C0
03E007C0
07FFFFC0
07FFFFC0
07C00FC0
07C00F80
07C00F80
0FC00F80
0F800F80
0F801F80
0F801F00
1F801F00
1F801F00
3F803F00
FFE0FFC0
FFE1FFC0
ENDCHAR
STARTCHAR uni021F
ENCODING 543
SWIDTH 656 0
DWIDTH 22 0
BBX 19 32 3 0
BITMAP
303800
187000
1DE000
0FC000
0F8000
000000
3FC000
3FC000
0F8000
0F8000
0F8000
0F8000
0F8000
0F8000
1F03C0
1F0FE0
1F1FE0
1F3FE0
1F73E0
3EE3E0
3EC3C0
3F87C0
3F07C0
3E07C0
7E07C0
7C0780
7C0F80
7C0F80
7C0F80
F80F80
F80FE0
F81FE0
ENDCHAR
STARTCHAR uni0226
ENCODING 550
SWIDTH 765 0
DWIDTH 26 0
BBX 26 30 0 0
BITMAP
0003C000
0003C000
00078000
00078000
00000000
0000E000
0001E000
0001F000
0003F000
0003F000
0007F000
000FF000
000CF800
0018F800
0038F800
0030F800
00607C00
00607C00
00C07C00
01807C00
01FFFC00
03FFFE00
07003E00
06003E00
0C003E00
0C001F00
18001F00
38001F80
FE00FFC0
FE00FFC0
ENDCHAR
STARTCHAR uni0227
ENCODING 551
SWIDTH 634 0
DWIDTH 22 0
BBX 20 23 2 0
BITMAP
001E00
001E00
003C00
003C00
000000
003FF0
01FFF0
0383E0
0703E0
0E03E0
1E03E0
3C03E0
3C07C0
7C07C0
7C0FC0
F81FC0
F837C0
F87780
F8EF80
FFCF80
FF8F80
7F0FE0
3C1FE0
ENDCHAR
STARTCHAR uni0228
ENCODING 552
SWIDTH 630 0
DWIDTH 21 0
BBX 23 32 1 -7
BITMAP
07FFFE
07FFFE
01F00E
01F00C
01F00C
01F000
03E000
03E000
03E000
03E060
03E0C0
07FFC0
07FFC0
07C0C0
07C0C0
07C000
0F8000
0F8000
0F8000
0F8000
1F8070
1F0060
3F00E0
FFFFE0
FFFFE0
006000
00F000
003800
003800
003800
01F800
01F000
ENDCHAR
STARTCHAR uni0229
ENCODING 553
SWIDTH 548 0
DWIDTH 19 0
BBX 17 25 3 -7
BITMAP
007C00
01FF00
071F00
0E0F00
1E0F80
3C0F00
3C1F00
7C3E00
78FC00
FFF000
FFC000
F80000
F80000
F80000
FC0300
7E0F00
3FFE00
0FF000
030000
078000
01C000
01C000
01C000
0FC000
0F8000
ENDCHAR
STARTCHAR uni022A
ENCODING 554
SWIDTH 831 0
DWIDTH 28 0
BBX 26 33 4 0
BITMAP
007FF000
007FF000
00000000
001C7800
003C7800
003C7000
00000000
00000000
000FF000
007FFC00
00F83E00
03E01F00
07C00F80
0F800F80
1F000F80
1F000FC0
3E000FC0
7E000FC0
7C000FC0
7C000FC0
FC000F80
FC000F80
FC000F80
FC001F00
FC001F00
FC003E00
FC003C00
7C007C00
7C00F800
3E01E000
1F07C000
0FFF0000
03F80000
ENDCHAR
STARTCHAR uni022B
ENCODING 555
SWIDTH 599 0
DWIDTH 20 0
BBX 19 26 3 0
BITMAP
03FF80
03FF80
000000
00E3C0
01E3C0
01E380
000000
000000
007E00
01FF80
0787C0
0F07C0
1E03E0
3E03E0
3C03E0
7C03E0
7C03E0
FC07C0
F807C0
F80780
F80F80
FC0F00
FC1E00
7E3C00
3FF000
0FC000
ENDCHAR
STARTCHAR uni022C
ENCODING 556
SWIDTH 831 0
DWIDTH 28 0
BBX 26 34 4 0
BITMAP
007FF000
007FF000
00000000
000F0C00
001FF800
001FF800
0030F000
00000000
00000000
000FF000
007FFC00
00F83E00
03E01F00
07C00F80
0F800F80
1F000F80
1F000FC0
3E000FC0
7E000FC0
7C000FC0
7C000FC0
FC000F80
FC000F80
FC000F80
FC001F00
FC001F00
FC003E00
FC003C00
7C007C00
7C00F800
3E01E000
1F07C000
0FFF0000
03F80000
ENDCHAR
STARTCHAR uni022D
ENCODING 557
SWIDTH 599 0
DWIDTH 20 0
BBX 19 27 3 0
BITMAP
03FF80
03FF80
000000
007860
00FFC0
00FFC0
018780
000000
000000
007E00
01FF80
0787C0
0F07C0
1E03E0
3E03E0
3C03E0
7C03E0
7C03E0
FC07C0
F807C0
F80780
F80F80
FC0F00
FC1E00
7E3C00
3FF000
0FC000
ENDCHAR
STARTCHAR uni022E
ENCODING 558
SWIDTH 831 0
DWIDTH 28 0
BBX 26 30 4 0
BITMAP
00078000
00078000
000F0000
000F0000
00000000
000FF000
007FFC00
00F83E00
03E01F00
07C00F80
0F800F80
1F000F80
1F000FC0
3E000FC0
7E000FC0
7C000FC0
7C000FC0
FC000F80
FC000F80
FC000F80
FC001F00
FC001F00
FC003E00
FC003C00
7C007C00
7C00F800
3E01E000
1F07C000
0FFF0000
03F80000
ENDCHAR
STARTCHAR uni022F
ENCODING 559
SWIDTH 599 0
DWIDTH 20 0
BBX 19 23 3 0
BITMAP
003C00
003C00
007800
007800
000000
007E00
01FF80
0787C0
0F07C0
1E03E0
3E03E0
3C03E0
7C03E0
7C03E0
FC07C0
F807C0
F80780
F80F80
FC0F00
FC1E00
7E3C00
3FF000
0FC000
ENDCHAR
STARTCHAR uni0230
ENCODING 560
SWIDTH 831 0
DWIDTH 28 0
BBX 26 33 4 0
BITMAP
007FF000
007FF000
00000000
00078000
00078000
000F0000
000F0000
00000000
000FF000
007FFC00
00F83E00
03E01F00
07C00F80
0F800F80
1F000F80
1F000FC0
3E000FC0
7E000FC0
7C000FC0
7C000FC0
FC000F80
FC000F80
FC000F80
FC001F00
FC001F00
FC003E00
FC003C00
7C007C00
7C00F800
3E01E000
1F07C000
0FFF0000
03F80000
ENDCHAR
STARTCHAR uni0231
ENCODING 561
SWIDTH 599 0
DWIDTH 20 0
BBX 19 26 3 0
BITMAP
07FF00
07FF00
000000
003C00
003C00
007800
007800
000000
007E00
01FF80
0787C0
0F07C0
1E03E0
3E03E0
3C03E0
7C03E0
7C03E0
FC07C0
F807C0
F80780
F80F80
FC0F00
FC1E00
7E3C00
3FF000
0FC000
ENDCHAR
STARTCHAR uni0232
ENCODING 562
SWIDTH 669 0
DWIDTH 23 0
BBX 23 28 5 0
BITMAP
07FF00
07FF00
000000
FFC07E
FFC0FE
7E0038
3F0030
1F0060
1F00C0
1F8180
0F8380
0F8300
07C600
07CC00
07F800
03F800
03F000
03E000
03E000
03E000
03E000
07E000
07C000
07C000
07C000
0FC000
7FF800
7FF000
ENDCHAR
STARTCHAR uni0233
ENCODING 563
SWIDTH 586 0
DWIDTH 20 0
BBX 23 28 0 -7
BITMAP
01FFC0
01FFC0
000000
1FC07E
1FC03E
07E01E
03E01E
03E01C
01F03C
01F038
01F070
01F0E0
00F0C0
00F9C0
00FB80
00FF00
00FE00
00FC00
007800
007000
007000
006000
00C000
038000
070000
0F0000
1E0000
FE0000
ENDCHAR
STARTCHAR uni0250
ENCODING 592
SWIDTH 634 0
DWIDTH 22 0
BBX 20 18 2 0
BITMAP
7F83C0
7F0FE0
1F1FF0
1F3FF0
1F71F0
1EE1F0
3EC1F0
3F81F0
3F03E0
3E03E0
3E03C0
7C03C0
7C0780
7C0700
7C0E00
7C1C00
FFF800
FFC000
ENDCHAR
STARTCHAR uni0259
ENCODING 601
SWIDTH 548 0
DWIDTH 19 0
BBX 17 18 3 0
BITMAP
07F800
3FFE00
783F00
601F80
000F80
000F80
000F80
01FF80
07FF80
1F8F00
3E1F00
7C1E00
781E00
F83C00
783800
7C7000
7FC000
1F0000
ENDCHAR
STARTCHAR uni025F
ENCODING 607
SWIDTH 415 0
DWIDTH 14 0
BBX 18 34 2 -16
BITMAP
0007C0
0007C0
0007C0
000780
000F80
000F80
000F80
000F80
000F00
001F00
001F00
001F00
001F00
001E00
003E00
003E00
003E00
003E00
003C00
007C00
007C00
007C00
007C00
0FFF00
1FFF00
00F800
00F800
00F000
60F000
61E000
E1E000
E3C000
FF8000
7E0000
ENDCHAR
STARTCHAR uni0265
ENCODING 613
SWIDTH 656 0
DWIDTH 22 0
BBX 19 26 3 -8
BITMAP
FF03E0
FE03E0
3E03E0
3E07C0
3E07C0
3E07C0
3C07C0
7C0FC0
7C0F80
7C1F80
7C3F80
786F80
F8EF80
F9DF00
FF9F00
FF1F00
FE1F00
781F00
003E00
003E00
003E00
003E00
003E00
003E00
007F80
007F80
ENDCHAR
STARTCHAR uni0275
ENCODING 629
SWIDTH 599 0
DWIDTH 20 0
BBX 19 18 3 0
BITMAP
007E00
01FF80
0787C0
0F07C0
1E03E0
3E03E0
3C03E0
7C03E0
FFFFE0
FFFFE0
F807C0
F80780
F80F80
FC0F00
FC1E00
7E3C00
3FF000
0FC000
ENDCHAR
STARTCHAR uni0279
ENCODING 633
SWIDTH 496 0
DWIDTH 17 0
BBX 17 18 3 0
BITMAP
000F80
000F80
000F80
001F00
001F00
001F00
001F00
003F00
003E00
007E00
00FE00
01FE00
03BE00
277C00
7F7C00
7E7C00
F87F00
F07F00
ENDCHAR
STARTCHAR uni0287
ENCODING 647
SWIDTH 375 0
DWIDTH 13 0
BBX 12 23 3 0
BITMAP
0FC0
1FE0
03F0
01F0
01F0
01F0
03E0
03E0
03E0
03E0
03E0
07C0
07C0
07C0
07C0
0780
FFF0
FFF0
0F80
0F80
0F80
0F00
1C00
ENDCHAR
STARTCHAR uni0289
ENCODING 649
SWIDTH 655 0
DWIDTH 22 0
BBX 19 18 4 0
BITMAP
FF1FE0
FF1FE0
3E07E0
3E07C0
3E07C0
3E07C0
3C07C0
7C07C0
FFFFE0
FFFFE0
7C3F80
786F80
F8EF80
F9CF00
FF9F00
FF1F00
FE1FC0
781FC0
ENDCHAR
STARTCHAR uni028C
ENCODING 652
SWIDTH 584 0
DWIDTH 20 0
BBX 20 18 3 0
BITMAP
000E00
001E00
001E00
003E00
007E00
00FE00
01BE00
039F00
071F00
0E1F00
1C1F00
1C1F80
380F80
780F80
F80FC0
F80FC0
F807F0
FC07F0
ENDCHAR
STARTCHAR uni028D
ENCODING 653
SWIDTH 822 0
DWIDTH 28 0
BBX 28 18 3 0
BITMAP
00180600
00380E00
00780E00
00781E00
00F83E00
01F87F00
03F87F00
037CFF00
073DDF00
0E3D9F00
1C3F8F00
1C3F0F00
383F0F80
781E0F80
781E0780
F01C07C0
F80C07F0
FC0C03F0
ENDCHAR
STARTCHAR uni028E
ENCODING 654
SWIDTH 586 0
DWIDTH 20 0
BBX 23 25 0 0
BITMAP
0000FE
0000F0
0001E0
0001C0
000380
000600
000C00
001C00
001C00
003C00
007E00
00FE00
01FE00
03BE00
073E00
061E00
0E1F00
1C1F00
381F00
781F00
700F80
F00F80
F00FC0
F807F0
FC07F0
ENDCHAR
STARTCHAR uni029E
ENCODING 670
SWIDTH 626 0
DWIDTH 21 0
BBX 19 26 3 -8
BITMAP
FE03E0
FE03E0
3F03C0
1F87C0
0F87C0
07C7C0
07C7C0
03E780
03EF80
01FF80
01EF80
078F80
0F1F00
3C1F00
7C1F00
781F00
F81F00
F83E00
003E00
003E00
003E00
003E00
007C00
007C00
007F80
007F80
ENDCHAR
STARTCHAR uni02BB
ENCODING 699
SWIDTH 265 0
DWIDTH 9 0
BBX 8 11 5 15
BITMAP
03
0F
1C
38
38
78
7E
7C
7C
FC
FC
ENDCHAR
STARTCHAR afii57929
ENCODING 700
SWIDTH 265 0
DWIDTH 9 0
BBX 8 11 5 15
BITMAP
3F
3F
3E
3E
7E
1E
1C
1C
38
F0
C0
ENDCHAR
STARTCHAR afii64937
ENCODING 701
SWIDTH 265 0
DWIDTH 9 0
BBX 8 11 5 15
BITMAP
FC
FC
7C
7C
7E
78
38
38
1C
0F
03
ENDCHAR
STARTCHAR circumflex
ENCODING 710
SWIDTH 599 0
DWIDTH 20 0
BBX 11 5 9 21
BITMAP
0F80
1F80
3FC0
71C0
E060
ENDCHAR
STARTCHAR caron
ENCODING 711
SWIDTH 599 0
DWIDTH 20 0
BBX 11 5 11 21
BITMAP
C0E0
61C0
7780
3F00
3E00
ENDCHAR
STARTCHAR uni02C8
ENCODING 712
SWIDTH 247 0
DWIDTH 8 0
BBX 5 11 6 15
BITMAP
F8
F8
F8
78
78
70
70
70
70
30
30
ENDCHAR
STARTCHAR macron
ENCODING 713
SWIDTH 599 0
DWIDTH 20 0
BBX 11 2 10 23
BITMAP
FFE0
FFE0
ENDCHAR
STARTCHAR uni02CA
ENCODING 714
SWIDTH 599 0
DWIDTH 20 0
BBX 9 5 12 21
BITMAP
0F80
1E00
3C00
7000
E000
ENDCHAR
STARTCHAR uni02CB
ENCODING 715
SWIDTH 599 0
DWIDTH 20 0
BBX 7 5 11 21
BITMAP
F8
38
1C
0C
06
ENDCHAR
STARTCHAR uni02CD
ENCODING 717
SWIDTH 599 0
DWIDTH 20 0
BBX 11 2 10 -3
BITMAP
FFE0
FFE0
ENDCHAR
STARTCHAR uni02CE
ENCODING 718
SWIDTH 599 0
DWIDTH 20 0
BBX 7 5 11 -6
BITMAP
F8
38
1C
0C
06
ENDCHAR
STARTCHAR uni02CF
ENCODING 719
SWIDTH 599 0
DWIDTH 20 0
BBX 9 5 12 -6
BITMAP
0F80
1E00
3C00
7000
E000
ENDCHAR
STARTCHAR breve
ENCODING 728
SWIDTH 599 0
DWIDTH 20 0
BBX 12 5 10 21
BITMAP
C030
E060
7FC0
7F80
1F00
ENDCHAR
STARTCHAR dotaccent
ENCODING 729
SWIDTH 599 0
DWIDTH 20 0
BBX 5 4 12 21
BITMAP
78
78
F0
F0
ENDCHAR
STARTCHAR ring
ENCODING 730
SWIDTH 599 0
DWIDTH 20 0
BBX 5 5 13 22
BITMAP
70
D8
88
D8
70
ENDCHAR
STARTCHAR ogonek
ENCODING 731
SWIDTH 599 0
DWIDTH 20 0
BBX 6 5 6 -6
BITMAP
38
60
E0
FC
7C
ENDCHAR
STARTCHAR tilde
ENCODING 732
SWIDTH 599 0
DWIDTH 20 0
BBX 12 4 9 21
BITMAP
3C30
7FE0
7FE0
C3C0
ENDCHAR
STARTCHAR hungarumlaut
ENCODING 733
SWIDTH 599 0
DWIDTH 20 0
BBX 13 5 11 21
BITMAP
0F78
1CE0
39C0
7300
C600
ENDCHAR
STARTCHAR uni02EE
ENCODING 750
SWIDTH 464 0
DWIDTH 16 0
BBX 15 11 4 15
BITMAP
3E3E
3E3E
3E7E
7E7C
7C7C
1C1C
1C3C
3838
3870
F0E0
C0C0
ENDCHAR
STARTCHAR uni037E
ENCODING 894
SWIDTH 265 0
DWIDTH 9 0
BBX 10 25 1 -7
BITMAP
07C0
07C0
0F80
0F80
0F80
0000
0000
0000
0000
0000
0000
0000
0000
0000
3E00
3E00
3E00
7E00
1C00
1C00
1C00
3800
7800
F000
C000
ENDCHAR
STARTCHAR tonos
ENCODING 900
SWIDTH 599 0
DWIDTH 20 0
BBX 9 5 12 21
BITMAP
0F80
1E00
3C00
7000
E000
ENDCHAR
STARTCHAR dieresistonos
ENCODING 901
SWIDTH 599 0
DWIDTH 20 0
BBX 12 9 10 22
BITMAP
01F0
03C0
0780
0E00
1C00
0000
71E0
F1E0
F1C0
ENDCHAR
STARTCHAR anoteleia
ENCODING 903
SWIDTH 636 0
DWIDTH 21 0
BBX 5 4 10 8
BITMAP
78
78
F0
F0
ENDCHAR
STARTCHAR mu
ENCODING 956
SWIDTH 687 0
DWIDTH 23 0
BBX 21 24 2 -6
BITMAP
3FC7F8
3F87F8
0F81F8
0F81F0
0F81F0
0F01F0
1F01F0
1F01F0
1F03E0
1F07E0
1E07E0
3E0FE0
3E1BE0
3E7FC0
3FF7C0
3FE7C0
7FC7D0
7F8FF0
7C0000
7C0000
7C0000
F80000
F80000
F80000
ENDCHAR
STARTCHAR uni1E00
ENCODING 7680
SWIDTH 765 0
DWIDTH 26 0
BBX 26 31 0 -6
BITMAP
0000E000
0001E000
0001F000
0003F000
0003F000
0007F000
000FF000
000CF800
0018F800
0038F800
0030F800
00607C00
00607C00
00C07C00
01807C00
01FFFC00
03FFFE00
07003E00
06003E00
0C003E00
0C001F00
18001F00
38001F80
FE00FFC0
FE00FFC0
00000000
00070000
000D8000
00088000
000D8000
00070000
ENDCHAR
STARTCHAR uni1E01
ENCODING 7681
SWIDTH 634 0
DWIDTH 22 0
BBX 20 24 2 -6
BITMAP
003FF0
01FFF0
0383E0
0703E0
0E03E0
1E03E0
3C03E0
3C07C0
7C07C0
7C0FC0
F81FC0
F837C0
F87780
F8EF80
FFCF80
FF8F80
7F0FE0
3C1FE0
000000
00E000
01B000
011000
01B000
00E000
ENDCHAR
STARTCHAR uni1E02
ENCODING 7682
SWIDTH 651 0
DWIDTH 22 0
BBX 22 30 1 0
BITMAP
000F00
000F00
001E00
001E00
000000
07FFE0
07FFF8
01F1FC
01E07C
01E07C
01E07C
03E07C
03E078
03C0F8
03C1F0
07C7E0
07FF80
07FF00
0787C0
0783E0
0F81F0
0F81F0
0F80F8
0F01F8
0F01F8
1F01F0
1F03F0
3F0FE0
FFFFC0
FFFE00
ENDCHAR
STARTCHAR uni1E03
ENCODING 7683
SWIDTH 633 0
DWIDTH 21 0
BBX 20 31 3 0
BITMAP
01E000
01E000
03C000
03C000
000000
1FC000
3FC000
07C000
07C000
0F8000
0F8000
0F8000
0F8000
0F83C0
1F0FE0
1F1FF0
1F3FF0
1F71F0
1FE1F0
3EC1F0
3F81E0
3F03E0
3E03E0
3E03C0
7C03C0
7C0780
7C0700
7C0E00
7C1C00
FFF000
FFC000
ENDCHAR
STARTCHAR uni1E04
ENCODING 7684
SWIDTH 651 0
DWIDTH 22 0
BBX 22 30 1 -5
BITMAP
07FFE0
07FFF8
01F1FC
01E07C
01E07C
01E07C
03E07C
03E078
03C0F8
03C1F0
07C7E0
07FF80
07FF00
0787C0
0783E0
0F81F0
0F81F0
0F80F8
0F01F8
0F01F8
1F01F0
1F03F0
3F0FE0
FFFFC0
FFFE00
000000
007800
007800
00F000
00F000
ENDCHAR
STARTCHAR uni1E05
ENCODING 7685
SWIDTH 633 0
DWIDTH 21 0
BBX 20 31 3 -5
BITMAP
1FC000
3FC000
07C000
07C000
0F8000
0F8000
0F8000
0F8000
0F83C0
1F0FE0
1F1FF0
1F3FF0
1F71F0
1FE1F0
3EC1F0
3F81E0
3F03E0
3E03E0
3E03C0
7C03C0
7C0780
7C0700
7C0E00
7C1C00
FFF000
FFC000
000000
03C000
03C000
078000
078000
ENDCHAR
STARTCHAR uni1E06
ENCODING 7686
SWIDTH 651 0
DWIDTH 22 0
BBX 22 28 1 -3
BITMAP
07FFE0
07FFF8
01F1FC
01E07C
01E07C
01E07C
03E07C
03E078
03C0F8
03C1F0
07C7E0
07FF80
07FF00
0787C0
0783E0
0F81F0
0F81F0
0F80F8
0F01F8
0F01F8
1F01F0
1F03F0
3F0FE0
FFFFC0
FFFE00
000000
07FF00
07FF00
ENDCHAR
STARTCHAR uni1E07
ENCODING 7687
SWIDTH 633 0
DWIDTH 21 0
BBX 20 29 3 -3
BITMAP
1FC000
3FC000
07C000
07C000
0F8000
0F8000
0F8000
0F8000
0F83C0
1F0FE0
1F1FF0
1F3FF0
1F71F0
1FE1F0
3EC1F0
3F81E0
3F03E0
3E03E0
3E03C0
7C03C0
7C0780
7C0700
7C0E00
7C1C00
FFF000
FFC000
000000
1FFC00
1FFC00
ENDCHAR
STARTCHAR uni1E08
ENCODING 7688
SWIDTH 740 0
DWIDTH 25 0
BBX 24 38 4 -7
BITMAP
0003E0
000780
000F00
001C00
003800
000000
000FFC
007FFF
01F81F
03E00E
07C006
0F8006
1F000E
1E0000
3E0000
7E0000
7C0000
7C0000
FC0000
FC0000
FC0000
FC0000
FC0000
FC0000
FC0000
7C0000
7E0000
3F0000
1F8070
0FFFF0
03FF00
018000
03C000
00E000
00E000
00E000
07E000
07C000
ENDCHAR
STARTCHAR uni1E09
ENCODING 7689
SWIDTH 524 0
DWIDTH 18 0
BBX 17 31 3 -7
BITMAP
001F00
003C00
007800
00E000
01C000
000000
007F00
01FF80
07C780
0F0380
1E0380
3E0300
3C0000
7C0000
7C0000
F80000
F80000
F80000
F80000
F80000
FC0000
7E0600
3FFC00
0FE000
0C0000
1E0000
070000
070000
070000
3F0000
3E0000
ENDCHAR
STARTCHAR uni1E0A
ENCODING 7690
SWIDTH 822 0
DWIDTH 28 0
BBX 28 30 1 0
BITMAP
0003C000
0003C000
00078000
00078000
00000000
07FFFC00
07FFFF00
01F01FC0
01F007E0
01F003E0
01F003F0
03F003F0
03E001F0
03E001F0
03E001F0
03E001F0
07E001F0
07C003F0
07C003E0
07C003E0
07C003E0
0FC007C0
0F8007C0
0F800F80
0F801F80
1F803F00
1F807E00
3F81F800
FFFFF000
FFFF8000
ENDCHAR
STARTCHAR uni1E0B
ENCODING 7691
SWIDTH 634 0
DWIDTH 22 0
BBX 21 31 3 0
BITMAP
0003C0
0003C0
000780
000780
000000
0007F8
0007F8
0000F8
0001F0
0001F0
0001F0
0001F0
0001F0
003FE0
01FFE0
0387E0
0703E0
0E03E0
1E03C0
3C07C0
3C07C0
7C0FC0
780FC0
F81F80
F83F80
F87F80
F8EF80
FFCF80
FF8F80
7F1FE0
3C1FE0
ENDCHAR
STARTCHAR uni1E0C
ENCODING 7692
SWIDTH 822 0
DWIDTH 28 0
BBX 28 30 1 -5
BITMAP
07FFFC00
07FFFF00
01F01FC0
01F007E0
01F003E0
01F003F0
03F003F0
03E001F0
03E001F0
03E001F0
03E001F0
07E001F0
07C003F0
07C003E0
07C003E0
07C003E0
0FC007C0
0F8007C0
0F800F80
0F801F80
1F803F00
1F807E00
3F81F800
FFFFF000
FFFF8000
00000000
001E0000
001E0000
003C0000
003C0000
ENDCHAR
STARTCHAR uni1E0D
ENCODING 7693
SWIDTH 634 0
DWIDTH 22 0
BBX 21 31 3 -5
BITMAP
0007F8
0007F8
0000F8
0001F0
0001F0
0001F0
0001F0
0001F0
003FE0
01FFE0
0387E0
0703E0
0E03E0
1E03C0
3C07C0
3C07C0
7C0FC0
780FC0
F81F80
F83F80
F87F80
F8EF80
FFCF80
FF8F80
7F1FE0
3C1FE0
000000
00F000
00F000
01E000
01E000
ENDCHAR
STARTCHAR uni1E0E
ENCODING 7694
SWIDTH 822 0
DWIDTH 28 0
BBX 28 28 1 -3
BITMAP
07FFFC00
07FFFF00
01F01FC0
01F007E0
01F003E0
01F003F0
03F003F0
03E001F0
03E001F0
03E001F0
03E001F0
07E001F0
07C003F0
07C003E0
07C003E0
07C003E0
0FC007C0
0F8007C0
0F800F80
0F801F80
1F803F00
1F807E00
3F81F800
FFFFF000
FFFF8000
00000000
01FFC000
01FFC000
ENDCHAR
STARTCHAR uni1E0F
ENCODING 7695
SWIDTH 634 0
DWIDTH 22 0
BBX 21 29 3 -3
BITMAP
0007F8
0007F8
0000F8
0001F0
0001F0
0001F0
0001F0
0001F0
003FE0
01FFE0
0387E0
0703E0
0E03E0
1E03C0
3C07C0
3C07C0
7C0FC0
780FC0
F81F80
F83F80
F87F80
F8EF80
FFCF80
FF8F80
7F1FE0
3C1FE0
000000
0FFE00
0FFE00
ENDCHAR
STARTCHAR uni1E10
ENCODING 7696
SWIDTH 822 0
DWIDTH 28 0
BBX 28 32 1 -7
BITMAP
07FFFC00
07FFFF00
01F01FC0
01F007E0
01F003E0
01F003F0
03F003F0
03E001F0
03E001F0
03E001F0
03E001F0
07E001F0
07C003F0
07C003E0
07C003E0
07C003E0
0FC007C0
0F8007C0
0F800F80
0F801F80
1F803F00
1F807E00
3F81F800
FFFFF000
FFFF8000
00180000
003C0000
000E0000
000E0000
000E0000
007E0000
007C0000
ENDCHAR
STARTCHAR uni1E11
ENCODING 7697
SWIDTH 634 0
DWIDTH 22 0
BBX 21 33 3 -7
BITMAP
0007F8
0007F8
0000F8
0001F0
0001F0
0001F0
0001F0
0001F0
003FE0
01FFE0
0387E0
0703E0
0E03E0
1E03C0
3C07C0
3C07C0
7C0FC0
780FC0
F81F80
F83F80
F87F80
F8EF80
FFCF80
FF8F80
7F1FE0
3C7FE0
00C000
01E000
007000
007000
007000
03F000
03E000
ENDCHAR
STARTCHAR uni1E12
ENCODING 7698
SWIDTH 822 0
DWIDTH 28 0
BBX 28 31 1 -6
BITMAP
07FFFC00
07FFFF00
01F01FC0
01F007E0
01F003E0
01F003F0
03F003F0
03E001F0
03E001F0
03E001F0
03E001F0
07E001F0
07C003F0
07C003E0
07C003E0
07C003E0
0FC007C0
0F8007C0
0F800F80
0F801F80
1F803F00
1F807E00
3F81F800
FFFFF000
FFFF8000
00000000
001F0000
003F0000
007F8000
00E38000
01C0C000
ENDCHAR
STARTCHAR uni1E13
ENCODING 7699
SWIDTH 634 0
DWIDTH 22 0
BBX 21 32 3 -6
BITMAP
0007F8
0007F8
0000F8
0001F0
0001F0
0001F0
0001F0
0001F0
003FE0
01FFE0
0387E0
0703E0
0E03E0
1E03C0
3C07C0
3C07C0
7C0FC0
780FC0
F81F80
F83F80
F87F80
F8EF80
FFCF80
FF8F80
7F1FE0
3C1FE0
000000
00F800
01F800
03FC00
071C00
0E0600
ENDCHAR
STARTCHAR uni1E14
ENCODING 7700
SWIDTH 630 0
DWIDTH 21 0
BBX 23 34 1 0
BITMAP
00F800
003800
001C00
000C00
000600
000000
01FFC0
01FFC0
000000
07FFFE
07FFFE
01F00E
01F00C
01F00C
01F000
03E000
03E000
03E000
03E060
03E0C0
07FFC0
07FFC0
07C0C0
07C0C0
07C000
0F8000
0F8000
0F8000
0F8000
1F8070
1F0060
3F00E0
FFFFE0
FFFFE0
ENDCHAR
STARTCHAR uni1E15
ENCODING 7701
SWIDTH 548 0
DWIDTH 19 0
BBX 17 27 3 0
BITMAP
07C000
01C000
00E000
006000
003000
000000
07FF00
07FF00
000000
007C00
01FF00
071F00
0E0F00
1E0F80
3C0F00
3C1F00
7C3E00
78FC00
FFF000
FFC000
F80000
F80000
F80000
FC0300
7E0F00
3FFE00
0FF000
ENDCHAR
STARTCHAR uni1E16
ENCODING 7702
SWIDTH 630 0
DWIDTH 21 0
BBX 23 34 1 0
BITMAP
0003E0
000780
000F00
001C00
003800
000000
01FFC0
01FFC0
000000
07FFFE
07FFFE
01F00E
01F00C
01F00C
01F000
03E000
03E000
03E000
03E060
03E0C0
07FFC0
07FFC0
07C0C0
07C0C0
07C000
0F8000
0F8000
0F8000
0F8000
1F8070
1F0060
3F00E0
FFFFE0
FFFFE0
ENDCHAR
STARTCHAR uni1E17
ENCODING 7703
SWIDTH 548 0
DWIDTH 19 0
BBX 17 27 3 0
BITMAP
001F00
003C00
007800
00E000
01C000
000000
07FF00
07FF00
000000
007C00
01FF00
071F00
0E0F00
1E0F80
3C0F00
3C1F00
7C3E00
78FC00
FFF000
FFC000
F80000
F80000
F80000
FC0300
7E0F00
3FFE00
0FF000
ENDCHAR
STARTCHAR uni1E18
ENCODING 7704
SWIDTH 630 0
DWIDTH 21 0
BBX 23 31 1 -6
BITMAP
07FFFE
07FFFE
01F00E
01F00C
01F00C
01F000
03E000
03E000
03E000
03E060
03E0C0
07FFC0
07FFC0
07C0C0
07C0C0
07C000
0F8000
0F8000
0F8000
0F8000
1F8070
1F0060
3F00E0
FFFFE0
FFFFE0
000000
00F800
01F800
03FC00
071C00
0E0600
ENDCHAR
STARTCHAR uni1E19
ENCODING 7705
SWIDTH 548 0
DWIDTH 19 0
BBX 17 24 3 -6
BITMAP
007C00
01FF00
071F00
0E0F00
1E0F80
3C0F00
3C1F00
7C3E00
78FC00
FFF000
FFC000
F80000
F80000
F80000
FC0300
7E0F00
3FFE00
0FF000
000000
03E000
07E000
0FF000
1C7000
381800
ENDCHAR
STARTCHAR uni1E1A
ENCODING 7706
SWIDTH 630 0
DWIDTH 21 0
BBX 23 30 1 -5
BITMAP
07FFFE
07FFFE
01F00E
01F00C
01F00C
01F000
03E000
03E000
03E000
03E060
03E0C0
07FFC0
07FFC0
07C0C0
07C0C0
07C000
0F8000
0F8000
0F8000
0F8000
1F8070
1F0060
3F00E0
FFFFE0
FFFFE0
000000
03C300
07FE00
07FE00
0C3C00
ENDCHAR
STARTCHAR uni1E1B
ENCODING 7707
SWIDTH 548 0
DWIDTH 19 0
BBX 17 23 3 -5
BITMAP
007C00
01FF00
071F00
0E0F00
1E0F80
3C0F00
3C1F00
7C3E00
78FC00
FFF000
FFC000
F80000
F80000
F80000
FC0300
7E0F00
3FFE00
0FF000
000000
0F0C00
1FF800
1FF800
30F000
ENDCHAR
STARTCHAR uni1E1C
ENCODING 7708
SWIDTH 630 0
DWIDTH 21 0
BBX 23 38 1 -7
BITMAP
018060
01C0C0
00FF80
00FF00
003E00
000000
07FFFE
07FFFE
01F00E
01F00C
01F00C
01F000
03E000
03E000
03E000
03E060
03E0C0
07FFC0
07FFC0
07C0C0
07C0C0
07C000
0F8000
0F8000
0F8000
0F8000
1F8070
1F0060
3F00E0
FFFFE0
FFFFE0
006000
00F000
003800
003800
003800
01F800
01F000
ENDCHAR
STARTCHAR uni1E1D
ENCODING 7709
SWIDTH 548 0
DWIDTH 19 0
BBX 17 31 3 -7
BITMAP
0C0300
0E0600
07FC00
07F800
01F000
000000
007C00
01FF00
071F00
0E0F00
1E0F80
3C0F00
3C1F00
7C3E00
78FC00
FFF000
FFC000
F80000
F80000
F80000
FC0300
7E0F00
3FFE00
0FF000
030000
078000
01C000
01C000
01C000
0FC000
0F8000
ENDCHAR
STARTCHAR uni1E1E
ENCODING 7710
SWIDTH 602 0
DWIDTH 20 0
BBX 23 30 1 0
BITMAP
001E00
001E00
003C00
003C00
000000
07FFFE
07FFFE
01F00E
01F00C
01F00C
01F000
03E000
03E000
03E000
03E060
03E0C0
07FFC0
07FFC0
07C0C0
07C0C0
07C000
0F8000
0F8000
0F8000
0F8000
1F8000
1F8000
3F8000
FFE000
FFE000
ENDCHAR
STARTCHAR uni1E1F
ENCODING 7711
SWIDTH 415 0
DWIDTH 14 0
BBX 18 39 2 -7
BITMAP
007800
007800
00F000
00F000
000000
001F80
007FC0
00F1C0
01E1C0
01E180
03C180
03C000
07C000
07C000
3FFE00
3FFC00
0F8000
0F8000
0F8000
0F8000
0F0000
1F0000
1F0000
1F0000
1F0000
1E0000
3E0000
3E0000
3E0000
3E0000
3C0000
7C0000
7C0000
7C0000
7C0000
780000
F80000
F80000
F80000
ENDCHAR
STARTCHAR uni1E20
ENCODING 7712
SWIDTH 780 0
DWIDTH 26 0
BBX 24 28 4 0
BITMAP
00FFE0
00FFE0
000000
000FFC
007FFF
01F81F
03E00F
07C006
0F8006
1F000E
1F0000
3E0000
3E0000
7C0000
7C0000
FC0000
FC07FF
FC07FF
FC00FC
FC00F8
FC00F8
FC01F0
7C01F0
7E01F0
3E01F0
1F81F0
0FFFE0
03FE00
ENDCHAR
STARTCHAR uni1E21
ENCODING 7713
SWIDTH 628 0
DWIDTH 21 0
BBX 21 28 1 -7
BITMAP
01FFC0
01FFC0
000000
001FF8
00FFF8
01C1F8
0380F0
0781F0
0F01F0
1F01F0
1E03F0
3E07E0
3E07E0
3C0FE0
7C1FE0
7C3FE0
7E77C0
7FE7C0
7FC7C0
3F87C0
1E0F80
000F80
800F80
C00F00
F01E00
7C1C00
7FF800
3FC000
ENDCHAR
STARTCHAR uni1E22
ENCODING 7714
SWIDTH 827 0
DWIDTH 28 0
BBX 31 30 1 0
BITMAP
0000F000
0000F000
0001E000
0001E000
00000000
07FF0FFE
07FE0FFE
01F803F8
01F003F0
01F003F0
01F003E0
03F003E0
03E003E0
03E007E0
03E007C0
03E007C0
07FFFFC0
07FFFFC0
07C00FC0
07C00F80
07C00F80
0FC00F80
0F800F80
0F801F80
0F801F00
1F801F00
1F801F00
3F803F00
FFE0FFC0
FFE1FFC0
ENDCHAR
STARTCHAR uni1E23
ENCODING 7715
SWIDTH 656 0
DWIDTH 22 0
BBX 19 31 3 0
BITMAP
03C000
03C000
078000
078000
000000
3FC000
3FC000
0F8000
0F8000
0F8000
0F8000
0F8000
0F8000
1F03C0
1F0FE0
1F1FE0
1F3FE0
1F73E0
3EE3E0
3EC3C0
3F87C0
3F07C0
3E07C0
7E07C0
7C0780
7C0F80
7C0F80
7C0F80
F80F80
F80FE0
F81FE0
ENDCHAR
STARTCHAR uni1E24
ENCODING 7716
SWIDTH 827 0
DWIDTH 28 0
BBX 31 30 1 -5
BITMAP
07FF0FFE
07FE0FFE
01F803F8
01F003F0
01F003F0
01F003E0
03F003E0
03E003E0
03E007E0
03E007C0
03E007C0
07FFFFC0
07FFFFC0
07C00FC0
07C00F80
07C00F80
0FC00F80
0F800F80
0F801F80
0F801F00
1F801F00
1F801F00
3F803F00
FFE0FFC0
FFE1FFC0
00000000
000F0000
000F0000
001E0000
001E0000
ENDCHAR
STARTCHAR uni1E25
ENCODING 7717
SWIDTH 656 0
DWIDTH 22 0
BBX 19 31 3 -5
BITMAP
3FC000
3FC000
0F8000
0F8000
0F8000
0F8000
0F8000
0F8000
1F03C0
1F0FE0
1F1FE0
1F3FE0
1F73E0
3EE3E0
3EC3C0
3F87C0
3F07C0
3E07C0
7E07C0
7C0780
7C0F80
7C0F80
7C0F80
F80F80
F80FE0
F81FE0
000000
00F000
00F000
01E000
01E000
ENDCHAR
STARTCHAR uni1E26
ENCODING 7718
SWIDTH 827 0
DWIDTH 28 0
BBX 31 29 1 0
BITMAP
00071E00
000F1E00
000F1C00
00000000
07FF0FFE
07FE0FFE
01F803F8
01F003F0
01F003F0
01F003E0
03F003E0
03E003E0
03E007E0
03E007C0
03E007C0
07FFFFC0
07FFFFC0
07C00FC0
07C00F80
07C00F80
0FC00F80
0F800F80
0F801F80
0F801F00
1F801F00
1F801F00
3F803F00
FFE0FFC0
FFE1FFC0
ENDCHAR
STARTCHAR uni1E27
ENCODING 7719
SWIDTH 656 0
DWIDTH 22 0
BBX 19 30 3 0
BITMAP
1C7800
3C7800
3C7000
000000
3FC000
3FC000
0F8000
0F8000
0F8000
0F8000
0F8000
0F8000
1F03C0
1F0FE0
1F1FE0
1F3FE0
1F73E0
3EE3E0
3EC3C0
3F87C0
3F07C0
3E07C0
7E07C0
7C0780
7C0F80
7C0F80
7C0F80
F80F80
F80FE0
F81FE0
ENDCHAR
STARTCHAR uni1E28
ENCODING 7720
SWIDTH 827 0
DWIDTH 28 0
BBX 31 32 1 -7
BITMAP
07FF0FFE
07FE0FFE
01F803F8
01F003F0
01F003F0
01F003E0
03F003E0
03E003E0
03E007E0
03E007C0
03E007C0
07FFFFC0
07FFFFC0
07C00FC0
07C00F80
07C00F80
0FC00F80
0F800F80
0F801F80
0F801F00
1F801F00
1F801F00
3F803F00
FFE0FFC0
FFE3FFC0
00060000
000F0000
00038000
00038000
00038000
001F8000
001F0000
ENDCHAR
STARTCHAR uni1E29
ENCODING 7721
SWIDTH 656 0
DWIDTH 22 0
BBX 19 33 3 -7
BITMAP
3FC000
3FC000
0F8000
0F8000
0F8000
0F8000
0F8000
0F8000
1F03C0
1F0FE0
1F1FE0
1F3FE0
1F73E0
3EE3E0
3EC3C0
3F87C0
3F07C0
3E07C0
7E07C0
7C0780
7C0F80
7C0F80
7C0F80
F80F80
F80FE0
F87FE0
00C000
01E000
007000
007000
007000
03F000
03E000
ENDCHAR
STARTCHAR uni1E2A
ENCODING 7722
SWIDTH 827 0
DWIDTH 28 0
BBX 31 31 1 -6
BITMAP
07FF0FFE
07FE0FFE
01F803F8
01F003F0
01F003F0
01F003E0
03F003E0
03E003E0
03E007E0
03E007C0
03E007C0
07FFFFC0
07FFFFC0
07C00FC0
07C00F80
07C00F80
0FC00F80
0F800F80
0F801F80
0F801F00
1F801F00
1F801F00
3F803F00
FFE0FFC0
FFE1FFC0
00000000
00C03000
00E06000
007FC000
007F8000
001F0000
ENDCHAR
STARTCHAR uni1E2B
ENCODING 7723
SWIDTH 656 0
DWIDTH 22 0
BBX 19 32 3 -6
BITMAP
3FC000
3FC000
0F8000
0F8000
0F8000
0F8000
0F8000
0F8000
1F03C0
1F0FE0
1F1FE0
1F3FE0
1F73E0
3EE3E0
3EC3C0
3F87C0
3F07C0
3E07C0
7E07C0
7C0780
7C0F80
7C0F80
7C0F80
F80F80
F80FE0
F81FE0
000000
0C0300
0E0600
07FC00
07F800
01F000
ENDCHAR
STARTCHAR uni1E2C
ENCODING 7724
SWIDTH 372 0
DWIDTH 13 0
BBX 15 30 1 -5
BITMAP
07FE
0FFE
01F8
01F0
03F0
03E0
03E0
03E0
03E0
03E0
07C0
07C0
07C0
07C0
07C0
0F80
0F80
0F80
0F80
0F80
1F00
1F00
3F00
FFE0
FFC0
0000
3C30
7FE0
7FE0
C3C0
ENDCHAR
STARTCHAR uni1E2D
ENCODING 7725
SWIDTH 319 0
DWIDTH 11 0
BBX 12 30 1 -5
BITMAP
01F0
01F0
01E0
03E0
0000
0000
0000
1FE0
1FC0
07C0
07C0
07C0
0780
0F80
0F80
0F80
0F80
0F00
1F00
1F00
1F00
1F00
1F00
3FC0
3FC0
0000
3C30
7FE0
7FE0
C3C0
ENDCHAR
STARTCHAR uni1E2E
ENCODING 7726
SWIDTH 372 0
DWIDTH 13 0
BBX 16 36 1 0
BITMAP
001F
003C
0078
00E0
01C0
0000
038F
078F
078E
0000
0000
07FE
0FFE
01F8
01F0
03F0
03E0
03E0
03E0
03E0
03E0
07C0
07C0
07C0
07C0
07C0
0F80
0F80
0F80
0F80
0F80
1F00
1F00
3F00
FFE0
FFC0
ENDCHAR
STARTCHAR uni1E2F
ENCODING 7727
SWIDTH 319 0
DWIDTH 11 0
BBX 13 29 3 0
BITMAP
00F8
01E0
03C0
0700
0E00
0000
1C78
3C78
3C70
0000
0000
7F80
7F80
1F00
1F00
1F00
1F00
1E00
3E00
3E00
3E00
3E00
3C00
7C00
7C00
7C00
7C00
FF00
FF00
ENDCHAR
STARTCHAR uni1E30
ENCODING 7728
SWIDTH 746 0
DWIDTH 25 0
BBX 26 31 1 0
BITMAP
0001F000
0003C000
00078000
000E0000
001C0000
00000000
07FE1FC0
07FE1FC0
01F80700
01F00C00
01E01800
03E07000
03E0E000
03E1C000
03E30000
03C60000
07DC0000
07FE0000
07FE0000
07FF0000
079F8000
0F9F8000
0F8FC000
0F87E000
0F87F000
0F03F000
1F01F800
1F01FC00
3F00FE00
FFC3FF00
FFC3FF00
ENDCHAR
STARTCHAR uni1E31
ENCODING 7729
SWIDTH 626 0
DWIDTH 21 0
BBX 19 32 3 0
BITMAP
007C00
00F000
01E000
038000
070000
000000
3FC000
3FC000
07C000
07C000
0F8000
0F8000
0F8000
0F8000
0F83E0
1F03E0
1F03C0
1F07C0
1F0780
1F1E00
3E3C00
3EF000
3FF000
3EF800
3CF800
7C7C00
7C7C00
7C3E00
7C3F00
781F80
F80FE0
F80FE0
ENDCHAR
STARTCHAR uni1E32
ENCODING 7730
SWIDTH 746 0
DWIDTH 25 0
BBX 26 30 1 -5
BITMAP
07FE1FC0
07FE1FC0
01F80700
01F00C00
01E01800
03E07000
03E0E000
03E1C000
03E30000
03C60000
07DC0000
07FE0000
07FE0000
07FF0000
079F8000
0F9F8000
0F8FC000
0F87E000
0F87F000
0F03F000
1F01F800
1F01FC00
3F00FE00
FFC3FF00
FFC3FF00
00000000
001E0000
001E0000
003C0000
003C0000
ENDCHAR
STARTCHAR uni1E33
ENCODING 7731
SWIDTH 626 0
DWIDTH 21 0
BBX 19 31 3 -5
BITMAP
3FC000
3FC000
07C000
07C000
0F8000
0F8000
0F8000
0F8000
0F83E0
1F03E0
1F03C0
1F07C0
1F0780
1F1E00
3E3C00
3EF000
3FF000
3EF800
3CF800
7C7C00
7C7C00
7C3E00
7C3F00
781F80
F80FE0
F80FE0
000000
01E000
01E000
03C000
03C000
ENDCHAR
STARTCHAR uni1E34
ENCODING 7732
SWIDTH 746 0
DWIDTH 25 0
BBX 26 28 1 -3
BITMAP
07FE1FC0
07FE1FC0
01F80700
01F00C00
01E01800
03E07000
03E0E000
03E1C000
03E30000
03C60000
07DC0000
07FE0000
07FE0000
07FF0000
079F8000
0F9F8000
0F8FC000
0F87E000
0F87F000
0F03F000
1F01F800
1F01FC00
3F00FE00
FFC3FF00
FFC3FF00
00000000
01FFC000
01FFC000
ENDCHAR
STARTCHAR uni1E35
ENCODING 7733
SWIDTH 626 0
DWIDTH 21 0
BBX 19 29 3 -3
BITMAP
3FC000
3FC000
07C000
07C000
0F8000
0F8000
0F8000
0F8000
0F83E0
1F03E0
1F03C0
1F07C0
1F0780
1F1E00
3E3C00
3EF000
3FF000
3EF800
3CF800
7C7C00
7C7C00
7C3E00
7C3F00
781F80
F80FE0
F80FE0
000000
0FFE00
0FFE00
ENDCHAR
STARTCHAR uni1E36
ENCODING 7734
SWIDTH 611 0
DWIDTH 21 0
BBX 20 30 1 -5
BITMAP
07FE00
07FE00
01F800
01F000
01F000
01F000
03E000
03E000
03E000
03E000
03E000
07C000
07C000
07C000
07C000
07C000
0F8000
0F8000
0F8000
0F8070
1F8070
1F8070
3F8060
FFFFE0
FFFFE0
000000
00F000
00F000
01E000
01E000
ENDCHAR
STARTCHAR uni1E37
ENCODING 7735
SWIDTH 319 0
DWIDTH 11 0
BBX 10 31 3 -5
BITMAP
3FC0
3FC0
0FC0
0F80
0F80
0F80
0F80
0F80
1F00
1F00
1F00
1F00
1F00
3E00
3E00
3E00
3E00
3E00
7C00
7C00
7C00
7C00
7C00
FC00
FF00
FF00
0000
3C00
3C00
7800
7800
ENDCHAR
STARTCHAR uni1E38
ENCODING 7736
SWIDTH 611 0
DWIDTH 21 0
BBX 20 33 1 -5
BITMAP
0FFE00
0FFE00
000000
07FE00
07FE00
01F800
01F000
01F000
01F000
03E000
03E000
03E000
03E000
03E000
07C000
07C000
07C000
07C000
07C000
0F8000
0F8000
0F8000
0F8070
1F8070
1F8070
3F8060
FFFFE0
FFFFE0
000000
00F000
00F000
01E000
01E000
ENDCHAR
STARTCHAR uni1E39
ENCODING 7737
SWIDTH 319 0
DWIDTH 11 0
BBX 11 34 3 -5
BITMAP
FFE0
FFE0
0000
3FC0
3FC0
0FC0
0F80
0F80
0F80
0F80
0F80
1F00
1F00
1F00
1F00
1F00
3E00
3E00
3E00
3E00
3E00
7C00
7C00
7C00
7C00
7C00
FC00
FF00
FF00
0000
3C00
3C00
7800
7800
ENDCHAR
STARTCHAR uni1E3A
ENCODING 7738
SWIDTH 611 0
DWIDTH 21 0
BBX 20 28 1 -3
BITMAP
07FE00
07FE00
01F800
01F000
01F000
01F000
03E000
03E000
03E000
03E000
03E000
07C000
07C000
07C000
07C000
07C000
0F8000
0F8000
0F8000
0F8070
1F8070
1F8070
3F8060
FFFFE0
FFFFE0
000000
0FFE00
0FFE00
ENDCHAR
STARTCHAR uni1E3B
ENCODING 7739
SWIDTH 319 0
DWIDTH 11 0
BBX 11 29 2 -3
BITMAP
1FE0
1FE0
07E0
07C0
07C0
07C0
07C0
07C0
0F80
0F80
0F80
0F80
0F80
1F00
1F00
1F00
1F00
1F00
3E00
3E00
3E00
3E00
3E00
7E00
7F80
7F80
0000
FFE0
FFE0
ENDCHAR
STARTCHAR uni1E3C
ENCODING 7740
SWIDTH 611 0
DWIDTH 21 0
BBX 20 31 1 -6
BITMAP
07FE00
07FE00
01F800
01F000
01F000
01F000
03E000
03E000
03E000
03E000
03E000
07C000
07C000
07C000
07C000
07C000
0F8000
0F8000
0F8000
0F8070
1F8070
1F8070
3F8060
FFFFE0
FFFFE0
000000
00F800
01F800
03FC00
071C00
0E0600
ENDCHAR
STARTCHAR uni1E3D
ENCODING 7741
SWIDTH 319 0
DWIDTH 11 0
BBX 12 32 1 -6
BITMAP
0FF0
0FF0
03F0
03E0
03E0
03E0
03E0
03E0
07C0
07C0
07C0
07C0
07C0
0F80
0F80
0F80
0F80
0F80
1F00
1F00
1F00
1F00
1F00
3F00
3FC0
3FC0
0000
0F80
1F80
3FC0
71C0
E060
ENDCHAR
STARTCHAR uni1E3E
ENCODING 7742
SWIDTH 926 0
DWIDTH 31 0
BBX 34 31 1 0
BITMAP
00000F8000
00001E0000
00003C0000
0000700000
0000E00000
0000000000
07F0003FC0
07F0003FC0
01F0007F00
01F8007E00
01F800FE00
01F801BC00
03F8017C00
03BC037C00
033C067C00
033C067800
033E0C7800
071E08F800
071E18F800
061E30F800
061F20F000
060F60F000
0E0FC1F000
0E0F81F000
0C0781F000
0C0701E000
1C0601E000
1C0003E000
3C0007E000
FF001FF800
FF001FF800
ENDCHAR
STARTCHAR uni1E3F
ENCODING 7743
SWIDTH 969 0
DWIDTH 33 0
BBX 30 24 3 0
BITMAP
00007C00
0000F000
0001E000
00038000
00070000
00000000
7F87C0F8
7F0FC3F8
1F1FE7FC
1F3FEFFC
1F63EE7C
1EC3DC7C
3E83F878
3F87F0F8
3F07E0F8
3E07E0F8
3C07C0F8
7C0F80F0
7C0F81F0
7C0F81F0
780F81F0
780F01F0
F81F01FC
F81F03FC
ENDCHAR
STARTCHAR uni1E40
ENCODING 7744
SWIDTH 926 0
DWIDTH 31 0
BBX 34 30 1 0
BITMAP
0000780000
0000780000
0000F00000
0000F00000
0000000000
07F0003FC0
07F0003FC0
01F0007F00
01F8007E00
01F800FE00
01F801BC00
03F8017C00
03BC037C00
033C067C00
033C067800
033E0C7800
071E08F800
071E18F800
061E30F800
061F20F000
060F60F000
0E0FC1F000
0E0F81F000
0C0781F000
0C0701E000
1C0601E000
1C0003E000
3C0007E000
FF001FF800
FF001FF800
ENDCHAR
STARTCHAR uni1E41
ENCODING 7745
SWIDTH 969 0
DWIDTH 33 0
BBX 30 23 3 0
BITMAP
0001E000
0001E000
0003C000
0003C000
00000000
7F87C0F8
7F0FC3F8
1F1FE7FC
1F3FEFFC
1F63EE7C
1EC3DC7C
3E83F878
3F87F0F8
3F07E0F8
3E07E0F8
3C07C0F8
7C0F80F0
7C0F81F0
7C0F81F0
780F81F0
780F01F0
F81F01FC
F81F03FC
ENDCHAR
STARTCHAR uni1E42
ENCODING 7746
SWIDTH 926 0
DWIDTH 31 0
BBX 34 30 1 -5
BITMAP
07F0003FC0
07F0003FC0
01F0007F00
01F8007E00
01F800FE00
01F801BC00
03F8017C00
03BC037C00
033C067C00
033C067800
033E0C7800
071E08F800
071E18F800
061E30F800
061F20F000
060F60F000
0E0FC1F000
0E0F81F000
0C0781F000
0C0701E000
1C0601E000
1C0003E000
3C0007E000
FF001FF800
FF001FF800
0000000000
0001E00000
0001E00000
0003C00000
0003C00000
ENDCHAR
STARTCHAR uni1E43
ENCODING 7747
SWIDTH 969 0
DWIDTH 33 0
BBX 30 23 3 -5
BITMAP
7F87C0F8
7F0FC3F8
1F1FE7FC
1F3FEFFC
1F63EE7C
1EC3DC7C
3E83F878
3F87F0F8
3F07E0F8
3E07E0F8
3C07C0F8
7C0F80F0
7C0F81F0
7C0F81F0
780F81F0
780F01F0
F81F01FC
F81F03FC
00000000
00078000
00078000
000F0000
000F0000
ENDCHAR
STARTCHAR uni1E44
ENCODING 7748
SWIDTH 797 0
DWIDTH 27 0
BBX 30 30 1 0
BITMAP
0003C000
0003C000
00078000
00078000
00000000
07E003FC
07F003FC
01F000F0
01F800E0
01FC00E0
01FC00C0
03FE00C0
03BE01C0
03BF01C0
031F0180
031F8180
070F8180
0707C380
0707C380
0603E300
0603E300
0E01F700
0E01F700
0C00FF00
0C00FE00
1C007E00
1C003E00
3C003E00
FF001E00
FF001C00
ENDCHAR
STARTCHAR uni1E45
ENCODING 7749
SWIDTH 656 0
DWIDTH 22 0
BBX 19 23 3 0
BITMAP
007800
007800
00F000
00F000
000000
7F07C0
7F0FE0
1F1FE0
1F3FE0
1F73E0
3EE3E0
3FC3C0
3F87C0
3F07C0
3F07C0
7E07C0
7C0780
7C0F80
7C0F80
7C0F80
F80F80
F80FE0
F81FE0
ENDCHAR
STARTCHAR uni1E46
ENCODING 7750
SWIDTH 797 0
DWIDTH 27 0
BBX 30 30 1 -5
BITMAP
07E003FC
07F003FC
01F000F0
01F800E0
01FC00E0
01FC00C0
03FE00C0
03BE01C0
03BF01C0
031F0180
031F8180
070F8180
0707C380
0707C380
0603E300
0603E300
0E01F700
0E01F700
0C00FF00
0C00FE00
1C007E00
1C003E00
3C003E00
FF001E00
FF001C00
00000000
000F0000
000F0000
001E0000
001E0000
ENDCHAR
STARTCHAR uni1E47
ENCODING 7751
SWIDTH 656 0
DWIDTH 22 0
BBX 19 23 3 -5
BITMAP
7F07C0
7F0FE0
1F1FE0
1F3FE0
1F73E0
3EE3E0
3FC3C0
3F87C0
3F07C0
3F07C0
7E07C0
7C0780
7C0F80
7C0F80
7C0F80
F80F80
F80FE0
F81FE0
000000
00F000
00F000
01E000
01E000
ENDCHAR
STARTCHAR uni1E48
ENCODING 7752
SWIDTH 797 0
DWIDTH 27 0
BBX 30 28 1 -3
BITMAP
07E003FC
07F003FC
01F000F0
01F800E0
01FC00E0
01FC00C0
03FE00C0
03BE01C0
03BF01C0
031F0180
031F8180
070F8180
0707C380
0707C380
0603E300
0603E300
0E01F700
0E01F700
0C00FF00
0C00FE00
1C007E00
1C003E00
3C003E00
FF001E00
FF001C00
00000000
00FFE000
00FFE000
ENDCHAR
STARTCHAR uni1E49
ENCODING 7753
SWIDTH 656 0
DWIDTH 22 0
BBX 19 21 3 -3
BITMAP
7F07C0
7F0FE0
1F1FE0
1F3FE0
1F73E0
3EE3E0
3FC3C0
3F87C0
3F07C0
3F07C0
7E07C0
7C0780
7C0F80
7C0F80
7C0F80
F80F80
F80FE0
F81FE0
000000
0FFE00
0FFE00
ENDCHAR
STARTCHAR uni1E4A
ENCODING 7754
SWIDTH 797 0
DWIDTH 27 0
BBX 30 31 1 -6
BITMAP
07E003FC
07F003FC
01F000F0
01F800E0
01FC00E0
01FC00C0
03FE00C0
03BE01C0
03BF01C0
031F0180
031F8180
070F8180
0707C380
0707C380
0603E300
0603E300
0E01F700
0E01F700
0C00FF00
0C00FE00
1C007E00
1C003E00
3C003E00
FF001E00
FF001C00
00000000
000F8000
001F8000
003FC000
0071C000
00E06000
ENDCHAR
STARTCHAR uni1E4B
ENCODING 7755
SWIDTH 656 0
DWIDTH 22 0
BBX 19 24 3 -6
BITMAP
7F07C0
7F0FE0
1F1FE0
1F3FE0
1F73E0
3EE3E0
3FC3C0
3F87C0
3F07C0
3F07C0
7E07C0
7C0780
7C0F80
7C0F80
7C0F80
F80F80
F80FE0
F81FE0
000000
01F000
03F000
07F800
0E3800
1C0C00
ENDCHAR
STARTCHAR uni1E4C
ENCODING 7756
SWIDTH 831 0
DWIDTH 28 0
BBX 26 37 4 0
BITMAP
0000F800
0001E000
0003C000
00070000
000E0000
00000000
000F0C00
001FF800
001FF800
0030F000
00000000
00000000
000FF000
007FFC00
00F83E00
03E01F00
07C00F80
0F800F80
1F000F80
1F000FC0
3E000FC0
7E000FC0
7C000FC0
7C000FC0
FC000F80
FC000F80
FC000F80
FC001F00
FC001F00
FC003E00
FC003C00
7C007C00
7C00F800
3E01E000
1F07C000
0FFF0000
03F80000
ENDCHAR
STARTCHAR uni1E4D
ENCODING 7757
SWIDTH 599 0
DWIDTH 20 0
BBX 19 30 3 0
BITMAP
0007C0
000F00
001E00
003800
007000
000000
007860
00FFC0
00FFC0
018780
000000
000000
007E00
01FF80
0787C0
0F07C0
1E03E0
3E03E0
3C03E0
7C03E0
7C03E0
FC07C0
F807C0
F80780
F80F80
FC0F00
FC1E00
7E3C00
3FF000
0FC000
ENDCHAR
STARTCHAR uni1E4E
ENCODING 7758
SWIDTH 831 0
DWIDTH 28 0
BBX 26 35 4 0
BITMAP
001C7800
003C7800
003C7000
00000000
000F0C00
001FF800
001FF800
0030F000
00000000
00000000
000FF000
007FFC00
00F83E00
03E01F00
07C00F80
0F800F80
1F000F80
1F000FC0
3E000FC0
7E000FC0
7C000FC0
7C000FC0
FC000F80
FC000F80
FC000F80
FC001F00
FC001F00
FC003E00
FC003C00
7C007C00
7C00F800
3E01E000
1F07C000
0FFF0000
03F80000
ENDCHAR
STARTCHAR uni1E4F
ENCODING 7759
SWIDTH 599 0
DWIDTH 20 0
BBX 19 28 3 0
BITMAP
00E3C0
01E3C0
01E380
000000
007860
00FFC0
00FFC0
018780
000000
000000
007E00
01FF80
0787C0
0F07C0
1E03E0
3E03E0
3C03E0
7C03E0
7C03E0
FC07C0
F807C0
F80780
F80F80
FC0F00
FC1E00
7E3C00
3FF000
0FC000
ENDCHAR
STARTCHAR uni1E50
ENCODING 7760
SWIDTH 831 0
DWIDTH 28 0
BBX 26 34 4 0
BITMAP
003E0000
000E0000
00070000
00030000
00018000
00000000
007FF000
007FF000
00000000
000FF000
007FFC00
00F83E00
03E01F00
07C00F80
0F800F80
1F000F80
1F000FC0
3E000FC0
7E000FC0
7C000FC0
7C000FC0
FC000F80
FC000F80
FC000F80
FC001F00
FC001F00
FC003E00
FC003C00
7C007C00
7C00F800
3E01E000
1F07C000
0FFF0000
03F80000
ENDCHAR
STARTCHAR uni1E51
ENCODING 7761
SWIDTH 599 0
DWIDTH 20 0
BBX 19 27 3 0
BITMAP
03E000
00E000
007000
003000
001800
000000
07FF00
07FF00
000000
007E00
01FF80
0787C0
0F07C0
1E03E0
3E03E0
3C03E0
7C03E0
7C03E0
FC07C0
F807C0
F80780
F80F80
FC0F00
FC1E00
7E3C00
3FF000
0FC000
ENDCHAR
STARTCHAR uni1E52
ENCODING 7762
SWIDTH 831 0
DWIDTH 28 0
BBX 26 34 4 0
BITMAP
0000F800
0001E000
0003C000
00070000
000E0000
00000000
007FF000
007FF000
00000000
000FF000
007FFC00
00F83E00
03E01F00
07C00F80
0F800F80
1F000F80
1F000FC0
3E000FC0
7E000FC0
7C000FC0
7C000FC0
FC000F80
FC000F80
FC000F80
FC001F00
FC001F00
FC003E00
FC003C00
7C007C00
7C00F800
3E01E000
1F07C000
0FFF0000
03F80000
ENDCHAR
STARTCHAR uni1E53
ENCODING 7763
SWIDTH 599 0
DWIDTH 20 0
BBX 19 27 3 0
BITMAP
000F80
001E00
003C00
007000
00E000
000000
07FF00
07FF00
000000
007E00
01FF80
0787C0
0F07C0
1E03E0
3E03E0
3C03E0
7C03E0
7C03E0
FC07C0
F807C0
F80780
F80F80
FC0F00
FC1E00
7E3C00
3FF000
0FC000
ENDCHAR
STARTCHAR uni1E54
ENCODING 7764
SWIDTH 628 0
DWIDTH 21 0
BBX 23 31 1 0
BITMAP
0003E0
000780
000F00
001C00
003800
000000
07FFF0
07FFF8
01F07C
01F03E
01F03E
01E03E
03E03E
03E03E
03E07C
03E07C
03C0F8
07C1F0
07C3E0
07FFC0
07FE00
078000
0F8000
0F8000
0F8000
0F8000
1F0000
1F0000
3F0000
FFE000
FFE000
ENDCHAR
STARTCHAR uni1E55
ENCODING 7765
SWIDTH 639 0
DWIDTH 22 0
BBX 21 31 2 -7
BITMAP
0007C0
000F00
001E00
003800
007000
000000
3FC1E0
3FC7F0
0F8FF8
0F9FF8
0FB8F8
0FF0F8
1F60F8
1FC0F8
1F81F0
1F01F0
1F01E0
1E01E0
3E03C0
3E0380
3E0700
3F0E00
3FFC00
7FE000
7C0000
7C0000
7C0000
7C0000
F80000
F80000
F80000
ENDCHAR
STARTCHAR uni1E56
ENCODING 7766
SWIDTH 628 0
DWIDTH 21 0
BBX 23 30 1 0
BITMAP
000F00
000F00
001E00
001E00
000000
07FFF0
07FFF8
01F07C
01F03E
01F03E
01E03E
03E03E
03E03E
03E07C
03E07C
03C0F8
07C1F0
07C3E0
07FFC0
07FE00
078000
0F8000
0F8000
0F8000
0F8000
1F0000
1F0000
3F0000
FFE000
FFE000
ENDCHAR
STARTCHAR uni1E57
ENCODING 7767
SWIDTH 639 0
DWIDTH 22 0
BBX 21 30 2 -7
BITMAP
003C00
003C00
007800
007800
000000
3FC1E0
3FC7F0
0F8FF8
0F9FF8
0FB8F8
0FF0F8
1F60F8
1FC0F8
1F81F0
1F01F0
1F01E0
1E01E0
3E03C0
3E0380
3E0700
3F0E00
3FFC00
7FE000
7C0000
7C0000
7C0000
7C0000
F80000
F80000
F80000
ENDCHAR
STARTCHAR uni1E58
ENCODING 7768
SWIDTH 711 0
DWIDTH 24 0
BBX 23 30 1 0
BITMAP
000F00
000F00
001E00
001E00
000000
07FFF0
07FFFC
01F07E
01F03E
01F03E
03E03E
03E03E
03E03C
03E07C
03E078
07C0F0
07C3E0
07FFC0
07FF80
07CF80
0F8FC0
0F87C0
0F87E0
0F83E0
0F83F0
1F01F0
1F01F8
3F00F8
FFC0FE
FFC07E
ENDCHAR
STARTCHAR uni1E59
ENCODING 7769
SWIDTH 496 0
DWIDTH 17 0
BBX 17 23 3 0
BITMAP
00F000
00F000
01E000
01E000
000000
7F0780
7F0F80
1F3F00
1F7F00
1F7200
3EE000
3FC000
3F8000
3F0000
3E0000
7E0000
7C0000
7C0000
7C0000
7C0000
F80000
F80000
F80000
ENDCHAR
STARTCHAR uni1E5A
ENCODING 7770
SWIDTH 711 0
DWIDTH 24 0
BBX 23 30 1 -5
BITMAP
07FFF0
07FFFC
01F07E
01F03E
01F03E
03E03E
03E03E
03E03C
03E07C
03E078
07C0F0
07C3E0
07FFC0
07FF80
07CF80
0F8FC0
0F87C0
0F87E0
0F83E0
0F83F0
1F01F0
1F01F8
3F00F8
FFC0FE
FFC07E
000000
003C00
003C00
007800
007800
ENDCHAR
STARTCHAR uni1E5B
ENCODING 7771
SWIDTH 496 0
DWIDTH 17 0
BBX 17 23 3 -5
BITMAP
7F0780
7F0F80
1F3F00
1F7F00
1F7200
3EE000
3FC000
3F8000
3F0000
3E0000
7E0000
7C0000
7C0000
7C0000
7C0000
F80000
F80000
F80000
000000
1E0000
1E0000
3C0000
3C0000
ENDCHAR
STARTCHAR uni1E5C
ENCODING 7772
SWIDTH 711 0
DWIDTH 24 0
BBX 23 33 1 -5
BITMAP
00FFE0
00FFE0
000000
07FFF0
07FFFC
01F07E
01F03E
01F03E
03E03E
03E03E
03E03C
03E07C
03E078
07C0F0
07C3E0
07FFC0
07FF80
07CF80
0F8FC0
0F87C0
0F87E0
0F83E0
0F83F0
1F01F0
1F01F8
3F00F8
FFC0FE
FFC07E
000000
003C00
003C00
007800
007800
ENDCHAR
STARTCHAR uni1E5D
ENCODING 7773
SWIDTH 496 0
DWIDTH 17 0
BBX 17 26 3 -5
BITMAP
1FFC00
1FFC00
000000
7F0780
7F0F80
1F3F00
1F7F00
1F7200
3EE000
3FC000
3F8000
3F0000
3E0000
7E0000
7C0000
7C0000
7C0000
7C0000
F80000
F80000
F80000
000000
1E0000
1E0000
3C0000
3C0000
ENDCHAR
STARTCHAR uni1E5E
ENCODING 7774
SWIDTH 711 0
DWIDTH 24 0
BBX 23 28 1 -3
BITMAP
07FFF0
07FFFC
01F07E
01F03E
01F03E
03E03E
03E03E
03E03C
03E07C
03E078
07C0F0
07C3E0
07FFC0
07FF80
07CF80
0F8FC0
0F87C0
0F87E0
0F83E0
0F83F0
1F01F0
1F01F8
3F00F8
FFC0FE
FFC07E
000000
03FF80
03FF80
ENDCHAR
STARTCHAR uni1E5F
ENCODING 7775
SWIDTH 496 0
DWIDTH 17 0
BBX 18 21 2 -3
BITMAP
3F83C0
3F87C0
0F9F80
0FBF80
0FB900
1F7000
1FE000
1FC000
1F8000
1F0000
3F0000
3E0000
3E0000
3E0000
3E0000
7C0000
7C0000
7C0000
000000
FFE000
FFE000
ENDCHAR
STARTCHAR uni1E60
ENCODING 7776
SWIDTH 587 0
DWIDTH 20 0
BBX 20 30 2 0
BITMAP
003C00
003C00
007800
007800
000000
003FC0
01FFF0
03E0F0
078070
0F8060
0F8060
0F8000
0F8000
0FC000
0FE000
07F000
03FC00
01FE00
00FF00
007F80
001F80
000FC0
000FC0
000FC0
600F80
600F80
E01F00
F83E00
FFFC00
3FE000
ENDCHAR
STARTCHAR uni1E61
ENCODING 7777
SWIDTH 479 0
DWIDTH 16 0
BBX 16 23 2 0
BITMAP
00F0
00F0
01E0
01E0
0000
01FE
07FF
0F07
0F06
1F06
1F06
0F80
0FC0
07F0
03F8
01F8
00FC
607C
607C
E07C
F0F8
FFF0
3FC0
ENDCHAR
STARTCHAR uni1E62
ENCODING 7778
SWIDTH 587 0
DWIDTH 20 0
BBX 20 30 2 -5
BITMAP
003FC0
01FFF0
03E0F0
078070
0F8060
0F8060
0F8000
0F8000
0FC000
0FE000
07F000
03FC00
01FE00
00FF00
007F80
001F80
000FC0
000FC0
000FC0
600F80
600F80
E01F00
F83E00
FFFC00
3FE000
000000
01E000
01E000
03C000
03C000
ENDCHAR
STARTCHAR uni1E63
ENCODING 7779
SWIDTH 479 0
DWIDTH 16 0
BBX 16 23 2 -5
BITMAP
01FE
07FF
0F07
0F06
1F06
1F06
0F80
0FC0
07F0
03F8
01F8
00FC
607C
607C
E07C
F0F8
FFF0
3FC0
0000
0780
0780
0F00
0F00
ENDCHAR
STARTCHAR uni1E64
ENCODING 7780
SWIDTH 587 0
DWIDTH 20 0
BBX 20 36 2 0
BITMAP
001E00
001E00
003C00
003C00
000000
000F80
001E00
003C00
007000
00E000
000000
003FC0
01FFF0
03E0F0
078070
0F8060
0F8060
0F8000
0F8000
0FC000
0FE000
07F000
03FC00
01FE00
00FF00
007F80
001F80
000FC0
000FC0
000FC0
600F80
600F80
E01F00
F83E00
FFFC00
3FE000
ENDCHAR
STARTCHAR uni1E65
ENCODING 7781
SWIDTH 479 0
DWIDTH 16 0
BBX 16 29 2 0
BITMAP
00F0
00F0
01E0
01E0
0000
003E
0078
00F0
01C0
0380
0000
01FE
07FF
0F07
0F06
1F06
1F06
0F80
0FC0
07F0
03F8
01F8
00FC
607C
607C
E07C
F0F8
FFF0
3FC0
ENDCHAR
STARTCHAR uni1E66
ENCODING 7782
SWIDTH 587 0
DWIDTH 20 0
BBX 20 37 2 0
BITMAP
000F00
000F00
001E00
001E00
000000
006070
0030E0
003BC0
001F80
001F00
000000
000000
003FC0
01FFF0
03E0F0
078070
0F8060
0F8060
0F8000
0F8000
0FC000
0FE000
07F000
03FC00
01FE00
00FF00
007F80
001F80
000FC0
000FC0
000FC0
600F80
600F80
E01F00
F83E00
FFFC00
3FE000
ENDCHAR
STARTCHAR uni1E67
ENCODING 7783
SWIDTH 479 0
DWIDTH 16 0
BBX 18 30 2 0
BITMAP
003C00
003C00
007800
007800
000000
0181C0
00C380
00EF00
007E00
007C00
000000
000000
01FE00
07FF00
0F0700
0F0600
1F0600
1F0600
0F8000
0FC000
07F000
03F800
01F800
00FC00
607C00
607C00
E07C00
F0F800
FFF000
3FC000
ENDCHAR
STARTCHAR uni1E68
ENCODING 7784
SWIDTH 587 0
DWIDTH 20 0
BBX 20 35 2 -5
BITMAP
003C00
003C00
007800
007800
000000
003FC0
01FFF0
03E0F0
078070
0F8060
0F8060
0F8000
0F8000
0FC000
0FE000
07F000
03FC00
01FE00
00FF00
007F80
001F80
000FC0
000FC0
000FC0
600F80
600F80
E01F00
F83E00
FFFC00
3FE000
000000
01E000
01E000
03C000
03C000
ENDCHAR
STARTCHAR uni1E69
ENCODING 7785
SWIDTH 479 0
DWIDTH 16 0
BBX 16 28 2 -5
BITMAP
00F0
00F0
01E0
01E0
0000
01FE
07FF
0F07
0F06
1F06
1F06
0F80
0FC0
07F0
03F8
01F8
00FC
607C
607C
E07C
F0F8
FFF0
3FC0
0000
0780
0780
0F00
0F00
ENDCHAR
STARTCHAR uni1E6A
ENCODING 7786
SWIDTH 716 0
DWIDTH 24 0
BBX 24 30 5 0
BITMAP
001E00
001E00
003C00
003C00
000000
7FFFFF
7FFFFF
703E06
E07C06
E07C06
007C00
007C00
007C00
00F800
00F800
00F800
00F800
01F800
01F000
01F000
01F000
01F000
03F000
03E000
03E000
03E000
07E000
07E000
3FFC00
3FF800
ENDCHAR
STARTCHAR uni1E6B
ENCODING 7787
SWIDTH 375 0
DWIDTH 13 0
BBX 12 28 3 0
BITMAP
0780
0780
0F00
0F00
0000
0380
0F00
1F00
1F00
1F00
FFF0
FFF0
1E00
3E00
3E00
3E00
3E00
7C00
7C00
7C00
7C00
7C00
F800
F800
F800
FC00
7F80
3F00
ENDCHAR
STARTCHAR uni1E6C
ENCODING 7788
SWIDTH 716 0
DWIDTH 24 0
BBX 24 30 5 -5
BITMAP
7FFFFF
7FFFFF
703E06
E07C06
E07C06
007C00
007C00
007C00
00F800
00F800
00F800
00F800
01F800
01F000
01F000
01F000
01F000
03F000
03E000
03E000
03E000
07E000
07E000
3FFC00
3FF800
000000
00F000
00F000
01E000
01E000
ENDCHAR
STARTCHAR uni1E6D
ENCODING 7789
SWIDTH 375 0
DWIDTH 13 0
BBX 12 28 3 -5
BITMAP
0380
0F00
1F00
1F00
1F00
FFF0
FFF0
1E00
3E00
3E00
3E00
3E00
7C00
7C00
7C00
7C00
7C00
F800
F800
F800
FC00
7F80
3F00
0000
1E00
1E00
3C00
3C00
ENDCHAR
STARTCHAR uni1E6E
ENCODING 7790
SWIDTH 716 0
DWIDTH 24 0
BBX 24 28 5 -3
BITMAP
7FFFFF
7FFFFF
703E06
E07C06
E07C06
007C00
007C00
007C00
00F800
00F800
00F800
00F800
01F800
01F000
01F000
01F000
01F000
03F000
03E000
03E000
03E000
07E000
07E000
3FFC00
3FF800
000000
0FFE00
0FFE00
ENDCHAR
STARTCHAR uni1E6F
ENCODING 7791
SWIDTH 375 0
DWIDTH 13 0
BBX 13 26 2 -3
BITMAP
01C0
0780
0F80
0F80
0F80
7FF8
7FF8
0F00
1F00
1F00
1F00
1F00
3E00
3E00
3E00
3E00
3E00
7C00
7C00
7C00
7E00
3FC0
1F80
0000
FFE0
FFE0
ENDCHAR
STARTCHAR uni1E70
ENCODING 7792
SWIDTH 716 0
DWIDTH 24 0
BBX 24 31 5 -6
BITMAP
7FFFFF
7FFFFF
703E06
E07C06
E07C06
007C00
007C00
007C00
00F800
00F800
00F800
00F800
01F800
01F000
01F000
01F000
01F000
03F000
03E000
03E000
03E000
07E000
07E000
3FFC00
3FF800
000000
01F000
03F000
07F800
0E3800
1C0C00
ENDCHAR
STARTCHAR uni1E71
ENCODING 7793
SWIDTH 375 0
DWIDTH 13 0
BBX 14 29 1 -6
BITMAP
00E0
03C0
07C0
07C0
07C0
3FFC
3FFC
0780
0F80
0F80
0F80
0F80
1F00
1F00
1F00
1F00
1F00
3E00
3E00
3E00
3F00
1FE0
0FC0
0000
0F80
1F80
3FC0
71C0
E060
ENDCHAR
STARTCHAR uni1E72
ENCODING 7794
SWIDTH 775 0
DWIDTH 26 0
BBX 25 29 5 -4
BITMAP
7FE07F80
FFE07F80
1F800E00
1F000C00
3F001C00
3E001800
3E001800
3E001800
3E001800
7E003800
7C003000
7C003000
7C003000
7C003000
FC007000
F8006000
F8006000
F8006000
F800C000
F800C000
FC018000
7C038000
3E070000
1FFE0000
07F00000
00000000
0E3C0000
1E3C0000
1E380000
ENDCHAR
STARTCHAR uni1E73
ENCODING 7795
SWIDTH 655 0
DWIDTH 22 0
BBX 19 22 4 -4
BITMAP
FF1FE0
FF1FE0
3E07E0
3E07C0
3E07C0
3E07C0
3C07C0
7C07C0
7C0F80
7C1F80
7C3F80
786F80
F8EF80
F9CF00
FF9F00
FF1F00
FE1FC0
781FC0
000000
0E3C00
1E3C00
1E3800
ENDCHAR
STARTCHAR uni1E74
ENCODING 7796
SWIDTH 775 0
DWIDTH 26 0
BBX 25 30 5 -5
BITMAP
7FE07F80
FFE07F80
1F800E00
1F000C00
3F001C00
3E001800
3E001800
3E001800
3E001800
7E003800
7C003000
7C003000
7C003000
7C003000
FC007000
F8006000
F8006000
F8006000
F800C000
F800C000
FC018000
7C038000
3E070000
1FFE0000
07F00000
00000000
07860000
0FFC0000
0FFC0000
18780000
ENDCHAR
STARTCHAR uni1E75
ENCODING 7797
SWIDTH 655 0
DWIDTH 22 0
BBX 19 23 4 -5
BITMAP
FF1FE0
FF1FE0
3E07E0
3E07C0
3E07C0
3E07C0
3C07C0
7C07C0
7C0F80
7C1F80
7C3F80
786F80
F8EF80
F9CF00
FF9F00
FF1F00
FE1FC0
781FC0
000000
078600
0FFC00
0FFC00
187800
ENDCHAR
STARTCHAR uni1E76
ENCODING 7798
SWIDTH 775 0
DWIDTH 26 0
BBX 25 31 5 -6
BITMAP
7FE07F80
FFE07F80
1F800E00
1F000C00
3F001C00
3E001800
3E001800
3E001800
3E001800
7E003800
7C003000
7C003000
7C003000
7C003000
FC007000
F8006000
F8006000
F8006000
F800C000
F800C000
FC018000
7C038000
3E070000
1FFE0000
07F00000
00000000
01F00000
03F00000
07F80000
0E380000
1C0C0000
ENDCHAR
STARTCHAR uni1E77
ENCODING 7799
SWIDTH 655 0
DWIDTH 22 0
BBX 19 24 4 -6
BITMAP
FF1FE0
FF1FE0
3E07E0
3E07C0
3E07C0
3E07C0
3C07C0
7C07C0
7C0F80
7C1F80
7C3F80
786F80
F8EF80
F9CF00
FF9F00
FF1F00
FE1FC0
781FC0
000000
01F000
03F000
07F800
0E3800
1C0C00
ENDCHAR
STARTCHAR uni1E78
ENCODING 7800
SWIDTH 775 0
DWIDTH 26 0
BBX 25 36 5 0
BITMAP
0007C000
000F0000
001E0000
00380000
00700000
00000000
00F0C000
01FF8000
01FF8000
030F0000
00000000
7FE07F80
FFE07F80
1F800E00
1F000C00
3F001C00
3E001800
3E001800
3E001800
3E001800
7E003800
7C003000
7C003000
7C003000
7C003000
FC007000
F8006000
F8006000
F8006000
F800C000
F800C000
FC018000
7C038000
3E070000
1FFE0000
07F00000
ENDCHAR
STARTCHAR uni1E79
ENCODING 7801
SWIDTH 655 0
DWIDTH 22 0
BBX 19 29 4 0
BITMAP
001F00
003C00
007800
00E000
01C000
000000
03C300
07FE00
07FE00
0C3C00
000000
FF1FE0
FF1FE0
3E07E0
3E07C0
3E07C0
3E07C0
3C07C0
7C07C0
7C0F80
7C1F80
7C3F80
786F80
F8EF80
F9CF00
FF9F00
FF1F00
FE1FC0
781FC0
ENDCHAR
STARTCHAR uni1E7A
ENCODING 7802
SWIDTH 775 0
DWIDTH 26 0
BBX 25 32 5 0
BITMAP
00E3C000
01E3C000
01E38000
00000000
03FF8000
03FF8000
00000000
7FE07F80
FFE07F80
1F800E00
1F000C00
3F001C00
3E001800
3E001800
3E001800
3E001800
7E003800
7C003000
7C003000
7C003000
7C003000
FC007000
F8006000
F8006000
F8006000
F800C000
F800C000
FC018000
7C038000
3E070000
1FFE0000
07F00000
ENDCHAR
STARTCHAR uni1E7B
ENCODING 7803
SWIDTH 655 0
DWIDTH 22 0
BBX 19 25 4 0
BITMAP
038F00
078F00
078E00
000000
0FFE00
0FFE00
000000
FF1FE0
FF1FE0
3E07E0
3E07C0
3E07C0
3E07C0
3C07C0
7C07C0
7C0F80
7C1F80
7C3F80
786F80
F8EF80
F9CF00
FF9F00
FF1F00
FE1FC0
781FC0
ENDCHAR
STARTCHAR uni1E7C
ENCODING 7804
SWIDTH 741 0
DWIDTH 25 0
BBX 26 30 4 0
BITMAP
00F0C000
01FF8000
01FF8000
030F0000
00000000
FFC00FC0
FFC01FC0
3F000700
3F000600
1F000E00
1F000C00
1F001800
1F003800
1F803000
0F807000
0F806000
0F80C000
0FC1C000
0FC18000
07C30000
07C70000
07C60000
07EE0000
03FC0000
03F80000
03F80000
03F00000
01E00000
01E00000
01C00000
ENDCHAR
STARTCHAR uni1E7D
ENCODING 7805
SWIDTH 584 0
DWIDTH 20 0
BBX 20 23 3 0
BITMAP
03C300
07FE00
07FE00
0C3C00
000000
FE03F0
FE01F0
3F01F0
3F01F0
1F01E0
1F01C0
1F8380
0F8380
0F8700
0F8E00
0F9C00
07D800
07F000
07E000
07C000
078000
078000
070000
ENDCHAR
STARTCHAR uni1E7E
ENCODING 7806
SWIDTH 741 0
DWIDTH 25 0
BBX 26 30 4 -5
BITMAP
FFC00FC0
FFC01FC0
3F000700
3F000600
1F000E00
1F000C00
1F001800
1F003800
1F803000
0F807000
0F806000
0F80C000
0FC1C000
0FC18000
07C30000
07C70000
07C60000
07EE0000
03FC0000
03F80000
03F80000
03F00000
01E00000
01E00000
01C00000
00000000
00780000
00780000
00F00000
00F00000
ENDCHAR
STARTCHAR uni1E7F
ENCODING 7807
SWIDTH 584 0
DWIDTH 20 0
BBX 20 23 3 -5
BITMAP
FE03F0
FE01F0
3F01F0
3F01F0
1F01E0
1F01C0
1F8380
0F8380
0F8700
0F8E00
0F9C00
07D800
07F000
07E000
07C000
078000
078000
070000
000000
03C000
03C000
078000
078000
ENDCHAR
STARTCHAR Wgrave
ENCODING 7808
SWIDTH 922 0
DWIDTH 31 0
BBX 32 31 4 0
BITMAP
003E0000
000E0000
00070000
00030000
00018000
00000000
FF80C03F
FF81C03F
7E01C01C
3E03C018
3E03E018
3E07E030
3E07E030
3E0FE060
3E0FE060
3E1BE0C0
3E1BE0C0
3E31E180
1E31E180
1E21E300
1E61E300
1E41F600
1EC1F600
1F81FC00
1F81FC00
1F01F800
1F01F800
1E01F000
1E01E000
1C00E000
1C00C000
ENDCHAR
STARTCHAR wgrave
ENCODING 7809
SWIDTH 822 0
DWIDTH 28 0
BBX 28 24 3 0
BITMAP
007C0000
001C0000
000E0000
00060000
00030000
00000000
FC0303F0
FE0301F0
3E0380F0
1E0781E0
1F0781E0
1F0FC1C0
0F0FC380
0F1FC380
0F9BC700
0FBBCE00
0FF3EC00
0FE1FC00
0FE1F800
07C1F000
0781E000
0701E000
0701C000
06018000
ENDCHAR
STARTCHAR Wacute
ENCODING 7810
SWIDTH 922 0
DWIDTH 31 0
BBX 32 31 4 0
BITMAP
0000F800
0001E000
0003C000
00070000
000E0000
00000000
FF80C03F
FF81C03F
7E01C01C
3E03C018
3E03E018
3E07E030
3E07E030
3E0FE060
3E0FE060
3E1BE0C0
3E1BE0C0
3E31E180
1E31E180
1E21E300
1E61E300
1E41F600
1EC1F600
1F81FC00
1F81FC00
1F01F800
1F01F800
1E01F000
1E01E000
1C00E000
1C00C000
ENDCHAR
STARTCHAR wacute
ENCODING 7811
SWIDTH 822 0
DWIDTH 28 0
BBX 28 24 3 0
BITMAP
0001F000
0003C000
00078000
000E0000
001C0000
00000000
FC0303F0
FE0301F0
3E0380F0
1E0781E0
1F0781E0
1F0FC1C0
0F0FC380
0F1FC380
0F9BC700
0FBBCE00
0FF3EC00
0FE1FC00
0FE1F800
07C1F000
0781E000
0701E000
0701C000
06018000
ENDCHAR
STARTCHAR Wdieresis
ENCODING 7812
SWIDTH 922 0
DWIDTH 31 0
BBX 32 29 4 0
BITMAP
0038F000
0078F000
0078E000
00000000
FF80C03F
FF81C03F
7E01C01C
3E03C018
3E03E018
3E07E030
3E07E030
3E0FE060
3E0FE060
3E1BE0C0
3E1BE0C0
3E31E180
1E31E180
1E21E300
1E61E300
1E41F600
1EC1F600
1F81FC00
1F81FC00
1F01F800
1F01F800
1E01F000
1E01E000
1C00E000
1C00C000
ENDCHAR
STARTCHAR wdieresis
ENCODING 7813
SWIDTH 822 0
DWIDTH 28 0
BBX 28 22 3 0
BITMAP
0038F000
0078F000
0078E000
00000000
FC0303F0
FE0301F0
3E0380F0
1E0781E0
1F0781E0
1F0FC1C0
0F0FC380
0F1FC380
0F9BC700
0FBBCE00
0FF3EC00
0FE1FC00
0FE1F800
07C1F000
0781E000
0701E000
0701C000
06018000
ENDCHAR
STARTCHAR uni1E86
ENCODING 7814
SWIDTH 922 0
DWIDTH 31 0
BBX 32 30 4 0
BITMAP
00078000
00078000
000F0000
000F0000
00000000
FF80C03F
FF81C03F
7E01C01C
3E03C018
3E03E018
3E07E030
3E07E030
3E0FE060
3E0FE060
3E1BE0C0
3E1BE0C0
3E31E180
1E31E180
1E21E300
1E61E300
1E41F600
1EC1F600
1F81FC00
1F81FC00
1F01F800
1F01F800
1E01F000
1E01E000
1C00E000
1C00C000
ENDCHAR
STARTCHAR uni1E87
ENCODING 7815
SWIDTH 822 0
DWIDTH 28 0
BBX 28 23 3 0
BITMAP
00078000
00078000
000F0000
000F0000
00000000
FC0303F0
FE0301F0
3E0380F0
1E0781E0
1F0781E0
1F0FC1C0
0F0FC380
0F1FC380
0F9BC700
0FBBCE00
0FF3EC00
0FE1FC00
0FE1F800
07C1F000
0781E000
0701E000
0701C000
06018000
ENDCHAR
STARTCHAR uni1E88
ENCODING 7816
SWIDTH 922 0
DWIDTH 31 0
BBX 32 30 4 -5
BITMAP
FF80C03F
FF81C03F
7E01C01C
3E03C018
3E03E018
3E07E030
3E07E030
3E0FE060
3E0FE060
3E1BE0C0
3E1BE0C0
3E31E180
1E31E180
1E21E300
1E61E300
1E41F600
1EC1F600
1F81FC00
1F81FC00
1F01F800
1F01F800
1E01F000
1E01E000
1C00E000
1C00C000
00000000
001E0000
001E0000
003C0000
003C0000
ENDCHAR
STARTCHAR uni1E89
ENCODING 7817
SWIDTH 822 0
DWIDTH 28 0
BBX 28 23 3 -5
BITMAP
FC0303F0
FE0301F0
3E0380F0
1E0781E0
1F0781E0
1F0FC1C0
0F0FC380
0F1FC380
0F9BC700
0FBBCE00
0FF3EC00
0FE1FC00
0FE1F800
07C1F000
0781E000
0701E000
0701C000
06018000
00000000
001E0000
001E0000
003C0000
003C0000
ENDCHAR
STARTCHAR uni1E8A
ENCODING 7818
SWIDTH 672 0
DWIDTH 23 0
BBX 27 30 0 0
BITMAP
00078000
00078000
000F0000
000F0000
00000000
03FE07E0
07FE0FE0
01F80380
00F80700
00FC0E00
007C1C00
007C1800
007E3000
003E6000
003FC000
001F8000
001F8000
000F8000
001F8000
0037C000
0067C000
00C7E000
0183E000
0303F000
0701F000
0E01F000
1C00F800
3800FC00
FE03FE00
FC07FE00
ENDCHAR
STARTCHAR uni1E8B
ENCODING 7819
SWIDTH 534 0
DWIDTH 18 0
BBX 18 23 1 0
BITMAP
007800
007800
00F000
00F000
000000
3F07C0
3F83C0
0F83C0
07C380
07C380
03E600
03EC00
01F800
01F000
01F000
03F800
0EF800
1C7C00
387C00
703E00
F03E00
F01F80
F01F80
ENDCHAR
STARTCHAR uni1E8C
ENCODING 7820
SWIDTH 672 0
DWIDTH 23 0
BBX 27 29 0 0
BITMAP
001C7800
003C7800
003C7000
00000000
03FE07E0
07FE0FE0
01F80380
00F80700
00FC0E00
007C1C00
007C1800
007E3000
003E6000
003FC000
001F8000
001F8000
000F8000
001F8000
0037C000
0067C000
00C7E000
0183E000
0303F000
0701F000
0E01F000
1C00F800
3800FC00
FE03FE00
FC07FE00
ENDCHAR
STARTCHAR uni1E8D
ENCODING 7821
SWIDTH 534 0
DWIDTH 18 0
BBX 18 22 1 0
BITMAP
038F00
078F00
078E00
000000
3F07C0
3F83C0
0F83C0
07C380
07C380
03E600
03EC00
01F800
01F000
01F000
03F800
0EF800
1C7C00
387C00
703E00
F03E00
F01F80
F01F80
ENDCHAR
STARTCHAR uni1E8E
ENCODING 7822
SWIDTH 669 0
DWIDTH 23 0
BBX 23 30 5 0
BITMAP
007800
007800
00F000
00F000
000000
FFC07E
FFC0FE
7E0038
3F0030
1F0060
1F00C0
1F8180
0F8380
0F8300
07C600
07CC00
07F800
03F800
03F000
03E000
03E000
03E000
03E000
07E000
07C000
07C000
07C000
0FC000
7FF800
7FF000
ENDCHAR
STARTCHAR uni1E8F
ENCODING 7823
SWIDTH 586 0
DWIDTH 20 0
BBX 23 30 0 -7
BITMAP
001E00
001E00
003C00
003C00
000000
1FC07E
1FC03E
07E01E
03E01E
03E01C
01F03C
01F038
01F070
01F0E0
00F0C0
00F9C0
00FB80
00FF00
00FE00
00FC00
007800
007000
007000
006000
00C000
038000
070000
0F0000
1E0000
FE0000
ENDCHAR
STARTCHAR uni1E90
ENCODING 7824
SWIDTH 684 0
DWIDTH 23 0
BBX 23 31 2 0
BITMAP
000F80
001F80
003FC0
0071C0
00E060
000000
03FFFE
07FFFE
0700FC
0701F8
0601F8
0003F0
0007E0
000FC0
000FC0
001F80
003F00
007E00
00FC00
00FC00
01F800
03F000
07E000
07E000
0FC000
1F8000
3F0070
7F0060
7E00E0
FFFFE0
FFFFE0
ENDCHAR
STARTCHAR uni1E91
ENCODING 7825
SWIDTH 567 0
DWIDTH 19 0
BBX 19 24 2 0
BITMAP
007C00
00FC00
01FE00
038E00
070300
000000
0FFFE0
0FFFE0
1C07C0
1C0F80
181F00
003E00
007E00
00FC00
01F800
03F000
07E000
0FC000
0F8000
1F0180
3F0180
7E0380
FFFF00
FFFF00
ENDCHAR
STARTCHAR uni1E92
ENCODING 7826
SWIDTH 684 0
DWIDTH 23 0
BBX 23 30 2 -5
BITMAP
03FFFE
07FFFE
0700FC
0701F8
0601F8
0003F0
0007E0
000FC0
000FC0
001F80
003F00
007E00
00FC00
00FC00
01F800
03F000
07E000
07E000
0FC000
1F8000
3F0070
7F0060
7E00E0
FFFFE0
FFFFE0
000000
00F000
00F000
01E000
01E000
ENDCHAR
STARTCHAR uni1E93
ENCODING 7827
SWIDTH 567 0
DWIDTH 19 0
BBX 19 23 2 -5
BITMAP
0FFFE0
0FFFE0
1C07C0
1C0F80
181F00
003E00
007E00
00FC00
01F800
03F000
07E000
0FC000
0F8000
1F0180
3F0180
7E0380
FFFF00
FFFF00
000000
01E000
01E000
03C000
03C000
ENDCHAR
STARTCHAR uni1E94
ENCODING 7828
SWIDTH 684 0
DWIDTH 23 0
BBX 23 28 2 -3
BITMAP
03FFFE
07FFFE
0700FC
0701F8
0601F8
0003F0
0007E0
000FC0
000FC0
001F80
003F00
007E00
00FC00
00FC00
01F800
03F000
07E000
07E000
0FC000
1F8000
3F0070
7F0060
7E00E0
FFFFE0
FFFFE0
000000
0FFE00
0FFE00
ENDCHAR
STARTCHAR uni1E95
ENCODING 7829
SWIDTH 567 0
DWIDTH 19 0
BBX 19 21 2 -3
BITMAP
0FFFE0
0FFFE0
1C07C0
1C0F80
181F00
003E00
007E00
00FC00
01F800
03F000
07E000
0FC000
0F8000
1F0180
3F0180
7E0380
FFFF00
FFFF00
000000
1FFC00
1FFC00
ENDCHAR
STARTCHAR uni1E96
ENCODING 7830
SWIDTH 656 0
DWIDTH 22 0
BBX 19 29 3 -3
BITMAP
3FC000
3FC000
0F8000
0F8000
0F8000
0F8000
0F8000
0F8000
1F03C0
1F0FE0
1F1FE0
1F3FE0
1F73E0
3EE3E0
3EC3C0
3F87C0
3F07C0
3E07C0
7E07C0
7C0780
7C0F80
7C0F80
7C0F80
F80F80
F80FE0
F81FE0
000000
0FFE00
0FFE00
ENDCHAR
STARTCHAR uni1E97
ENCODING 7831
SWIDTH 375 0
DWIDTH 13 0
BBX 12 27 3 0
BITMAP
38F0
78F0
78E0
0000
0380
0F00
1F00
1F00
1F00
FFF0
FFF0
1E00
3E00
3E00
3E00
3E00
7C00
7C00
7C00
7C00
7C00
F800
F800
F800
FC00
7F80
3F00
ENDCHAR
STARTCHAR uni1E98
ENCODING 7832
SWIDTH 822 0
DWIDTH 28 0
BBX 28 24 3 0
BITMAP
00070000
000D8000
00088000
000D8000
00070000
00000000
FC0303F0
FE0301F0
3E0380F0
1E0781E0
1F0781E0
1F0FC1C0
0F0FC380
0F1FC380
0F9BC700
0FBBCE00
0FF3EC00
0FE1FC00
0FE1F800
07C1F000
0781E000
0701E000
0701C000
06018000
ENDCHAR
STARTCHAR uni1E99
ENCODING 7833
SWIDTH 586 0
DWIDTH 20 0
BBX 23 31 0 -7
BITMAP
001C00
003600
002200
003600
001C00
000000
1FC07E
1FC03E
07E01E
03E01E
03E01C
01F03C
01F038
01F070
01F0E0
00F0C0
00F9C0
00FB80
00FF00
00FE00
00FC00
007800
007000
007000
006000
00C000
038000
070000
0F0000
1E0000
FE0000
ENDCHAR
STARTCHAR uni1EA0
ENCODING 7840
SWIDTH 765 0
DWIDTH 26 0
BBX 26 30 0 -5
BITMAP
0000E000
0001E000
0001F000
0003F000
0003F000
0007F000
000FF000
000CF800
0018F800
0038F800
0030F800
00607C00
00607C00
00C07C00
01807C00
01FFFC00
03FFFE00
07003E00
06003E00
0C003E00
0C001F00
18001F00
38001F80
FE00FFC0
FE00FFC0
00000000
00078000
00078000
000F0000
000F0000
ENDCHAR
STARTCHAR uni1EA1
ENCODING 7841
SWIDTH 634 0
DWIDTH 22 0
BBX 20 23 2 -5
BITMAP
003FF0
01FFF0
0383E0
0703E0
0E03E0
1E03E0
3C03E0
3C07C0
7C07C0
7C0FC0
F81FC0
F837C0
F87780
F8EF80
FFCF80
FF8F80
7F0FE0
3C1FE0
000000
00F000
00F000
01E000
01E000
ENDCHAR
STARTCHAR uni1EA4
ENCODING 7844
SWIDTH 765 0
DWIDTH 26 0
BBX 26 38 0 0
BITMAP
00003E00
00007800
0000F000
0001C000
00038000
00000000
00007C00
0000FC00
0001FE00
00038E00
00070300
00000000
00000000
0000E000
0001E000
0001F000
0003F000
0003F000
0007F000
000FF000
000CF800
0018F800
0038F800
0030F800
00607C00
00607C00
00C07C00
01807C00
01FFFC00
03FFFE00
07003E00
06003E00
0C003E00
0C001F00
18001F00
38001F80
FE00FFC0
FE00FFC0
ENDCHAR
STARTCHAR uni1EA5
ENCODING 7845
SWIDTH 634 0
DWIDTH 22 0
BBX 20 31 2 0
BITMAP
0003E0
000780
000F00
001C00
003800
000000
000F80
001F80
003FC0
0071C0
00E060
000000
000000
003FF0
01FFF0
0383E0
0703E0
0E03E0
1E03E0
3C03E0
3C07C0
7C07C0
7C0FC0
F81FC0
F837C0
F87780
F8EF80
FFCF80
FF8F80
7F0FE0
3C1FE0
ENDCHAR
STARTCHAR uni1EA6
ENCODING 7846
SWIDTH 765 0
DWIDTH 26 0
BBX 26 38 0 0
BITMAP
000F8000
00038000
0001C000
0000C000
00006000
00000000
00007C00
0000FC00
0001FE00
00038E00
00070300
00000000
00000000
0000E000
0001E000
0001F000
0003F000
0003F000
0007F000
000FF000
000CF800
0018F800
0038F800
0030F800
00607C00
00607C00
00C07C00
01807C00
01FFFC00
03FFFE00
07003E00
06003E00
0C003E00
0C001F00
18001F00
38001F80
FE00FFC0
FE00FFC0
ENDCHAR
STARTCHAR uni1EA7
ENCODING 7847
SWIDTH 634 0
DWIDTH 22 0
BBX 20 31 2 0
BITMAP
00F800
003800
001C00
000C00
000600
000000
000F80
001F80
003FC0
0071C0
00E060
000000
000000
003FF0
01FFF0
0383E0
0703E0
0E03E0
1E03E0
3C03E0
3C07C0
7C07C0
7C0FC0
F81FC0
F837C0
F87780
F8EF80
FFCF80
FF8F80
7F0FE0
3C1FE0
ENDCHAR
STARTCHAR uni1EAA
ENCODING 7850
SWIDTH 765 0
DWIDTH 26 0
BBX 26 37 0 0
BITMAP
00078600
000FFC00
000FFC00
00187800
00000000
00007C00
0000FC00
0001FE00
00038E00
00070300
00000000
00000000
0000E000
0001E000
0001F000
0003F000
0003F000
0007F000
000FF000
000CF800
0018F800
0038F800
0030F800
00607C00
00607C00
00C07C00
01807C00
01FFFC00
03FFFE00
07003E00
06003E00
0C003E00
0C001F00
18001F00
38001F80
FE00FFC0
FE00FFC0
ENDCHAR
STARTCHAR uni1EAB
ENCODING 7851
SWIDTH 634 0
DWIDTH 22 0
BBX 20 30 2 0
BITMAP
007860
00FFC0
00FFC0
018780
000000
000F80
001F80
003FC0
0071C0
00E060
000000
000000
003FF0
01FFF0
0383E0
0703E0
0E03E0
1E03E0
3C03E0
3C07C0
7C07C0
7C0FC0
F81FC0
F837C0
F87780
F8EF80
FFCF80
FF8F80
7F0FE0
3C1FE0
ENDCHAR
STARTCHAR uni1EAC
ENCODING 7852
SWIDTH 765 0
DWIDTH 26 0
BBX 26 36 0 -5
BITMAP
0003E000
0007E000
000FF000
001C7000
00381800
00000000
0000E000
0001E000
0001F000
0003F000
0003F000
0007F000
000FF000
000CF800
0018F800
0038F800
0030F800
00607C00
00607C00
00C07C00
01807C00
01FFFC00
03FFFE00
07003E00
06003E00
0C003E00
0C001F00
18001F00
38001F80
FE00FFC0
FE00FFC0
00000000
00078000
00078000
000F0000
000F0000
ENDCHAR
STARTCHAR uni1EAD
ENCODING 7853
SWIDTH 634 0
DWIDTH 22 0
BBX 20 29 2 -5
BITMAP
001F00
003F00
007F80
00E380
01C0C0
000000
003FF0
01FFF0
0383E0
0703E0
0E03E0
1E03E0
3C03E0
3C07C0
7C07C0
7C0FC0
F81FC0
F837C0
F87780
F8EF80
FFCF80
FF8F80
7F0FE0
3C1FE0
000000
00F000
00F000
01E000
01E000
ENDCHAR
STARTCHAR uni1EAE
ENCODING 7854
SWIDTH 765 0
DWIDTH 26 0
BBX 26 37 0 0
BITMAP
0000F800
0001E000
0003C000
00070000
000E0000
00000000
00300C00
00381800
001FF000
001FE000
0007C000
00000000
0000E000
0001E000
0001F000
0003F000
0003F000
0007F000
000FF000
000CF800
0018F800
0038F800
0030F800
00607C00
00607C00
00C07C00
01807C00
01FFFC00
03FFFE00
07003E00
06003E00
0C003E00
0C001F00
18001F00
38001F80
FE00FFC0
FE00FFC0
ENDCHAR
STARTCHAR uni1EAF
ENCODING 7855
SWIDTH 634 0
DWIDTH 22 0
BBX 20 30 2 0
BITMAP
0007C0
000F00
001E00
003800
007000
000000
018060
01C0C0
00FF80
00FF00
003E00
000000
003FF0
01FFF0
0383E0
0703E0
0E03E0
1E03E0
3C03E0
3C07C0
7C07C0
7C0FC0
F81FC0
F837C0
F87780
F8EF80
FFCF80
FF8F80
7F0FE0
3C1FE0
ENDCHAR
STARTCHAR uni1EB0
ENCODING 7856
SWIDTH 765 0
DWIDTH 26 0
BBX 26 37 0 0
BITMAP
003E0000
000E0000
00070000
00030000
00018000
00000000
00300C00
00381800
001FF000
001FE000
0007C000
00000000
0000E000
0001E000
0001F000
0003F000
0003F000
0007F000
000FF000
000CF800
0018F800
0038F800
0030F800
00607C00
00607C00
00C07C00
01807C00
01FFFC00
03FFFE00
07003E00
06003E00
0C003E00
0C001F00
18001F00
38001F80
FE00FFC0
FE00FFC0
ENDCHAR
STARTCHAR uni1EB1
ENCODING 7857
SWIDTH 634 0
DWIDTH 22 0
BBX 20 30 2 0
BITMAP
01F000
007000
003800
001800
000C00
000000
018060
01C0C0
00FF80
00FF00
003E00
000000
003FF0
01FFF0
0383E0
0703E0
0E03E0
1E03E0
3C03E0
3C07C0
7C07C0
7C0FC0
F81FC0
F837C0
F87780
F8EF80
FFCF80
FF8F80
7F0FE0
3C1FE0
ENDCHAR
STARTCHAR uni1EB4
ENCODING 7860
SWIDTH 765 0
DWIDTH 26 0
BBX 26 36 0 0
BITMAP
001E1800
003FF000
003FF000
0061E000
00000000
00300C00
00381800
001FF000
001FE000
0007C000
00000000
0000E000
0001E000
0001F000
0003F000
0003F000
0007F000
000FF000
000CF800
0018F800
0038F800
0030F800
00607C00
00607C00
00C07C00
01807C00
01FFFC00
03FFFE00
07003E00
06003E00
0C003E00
0C001F00
18001F00
38001F80
FE00FFC0
FE00FFC0
ENDCHAR
STARTCHAR uni1EB5
ENCODING 7861
SWIDTH 634 0
DWIDTH 22 0
BBX 20 29 2 0
BITMAP
00F0C0
01FF80
01FF80
030F00
000000
018060
01C0C0
00FF80
00FF00
003E00
000000
003FF0
01FFF0
0383E0
0703E0
0E03E0
1E03E0
3C03E0
3C07C0
7C07C0
7C0FC0
F81FC0
F837C0
F87780
F8EF80
FFCF80
FF8F80
7F0FE0
3C1FE0
ENDCHAR
STARTCHAR uni1EB6
ENCODING 7862
SWIDTH 765 0
DWIDTH 26 0
BBX 26 36 0 -5
BITMAP
00300C00
00381800
001FF000
001FE000
0007C000
00000000
0000E000
0001E000
0001F000
0003F000
0003F000
0007F000
000FF000
000CF800
0018F800
0038F800
0030F800
00607C00
00607C00
00C07C00
01807C00
01FFFC00
03FFFE00
07003E00
06003E00
0C003E00
0C001F00
18001F00
38001F80
FE00FFC0
FE00FFC0
00000000
00078000
00078000
000F0000
000F0000
ENDCHAR
STARTCHAR uni1EB7
ENCODING 7863
SWIDTH 634 0
DWIDTH 22 0
BBX 20 29 2 -5
BITMAP
018060
01C0C0
00FF80
00FF00
003E00
000000
003FF0
01FFF0
0383E0
0703E0
0E03E0
1E03E0
3C03E0
3C07C0
7C07C0
7C0FC0
F81FC0
F837C0
F87780
F8EF80
FFCF80
FF8F80
7F0FE0
3C1FE0
000000
00F000
00F000
01E000
01E000
ENDCHAR
STARTCHAR uni1EB8
ENCODING 7864
SWIDTH 630 0
DWIDTH 21 0
BBX 23 30 1 -5
BITMAP
07FFFE
07FFFE
01F00E
01F00C
01F00C
01F000
03E000
03E000
03E000
03E060
03E0C0
07FFC0
07FFC0
07C0C0
07C0C0
07C000
0F8000
0F8000
0F8000
0F8000
1F8070
1F0060
3F00E0
FFFFE0
FFFFE0
000000
00F000
00F000
01E000
01E000
ENDCHAR
STARTCHAR uni1EB9
ENCODING 7865
SWIDTH 548 0
DWIDTH 19 0
BBX 17 23 3 -5
BITMAP
007C00
01FF00
071F00
0E0F00
1E0F80
3C0F00
3C1F00
7C3E00
78FC00
FFF000
FFC000
F80000
F80000
F80000
FC0300
7E0F00
3FFE00
0FF000
000000
03C000
03C000
078000
078000
ENDCHAR
STARTCHAR uni1EBC
ENCODING 7868
SWIDTH 630 0
DWIDTH 21 0
BBX 23 30 1 0
BITMAP
007860
00FFC0
00FFC0
018780
000000
07FFFE
07FFFE
01F00E
01F00C
01F00C
01F000
03E000
03E000
03E000
03E060
03E0C0
07FFC0
07FFC0
07C0C0
07C0C0
07C000
0F8000
0F8000
0F8000
0F8000
1F8070
1F0060
3F00E0
FFFFE0
FFFFE0
ENDCHAR
STARTCHAR uni1EBD
ENCODING 7869
SWIDTH 548 0
DWIDTH 19 0
BBX 17 23 3 0
BITMAP
03C300
07FE00
07FE00
0C3C00
000000
007C00
01FF00
071F00
0E0F00
1E0F80
3C0F00
3C1F00
7C3E00
78FC00
FFF000
FFC000
F80000
F80000
F80000
FC0300
7E0F00
3FFE00
0FF000
ENDCHAR
STARTCHAR uni1EBE
ENCODING 7870
SWIDTH 630 0
DWIDTH 21 0
BBX 23 38 1 0
BITMAP
0001F0
0003C0
000780
000E00
001C00
000000
0007C0
000FC0
001FE0
0038E0
007030
000000
000000
07FFFE
07FFFE
01F00E
01F00C
01F00C
01F000
03E000
03E000
03E000
03E060
03E0C0
07FFC0
07FFC0
07C0C0
07C0C0
07C000
0F8000
0F8000
0F8000
0F8000
1F8070
1F0060
3F00E0
FFFFE0
FFFFE0
ENDCHAR
STARTCHAR uni1EBF
ENCODING 7871
SWIDTH 548 0
DWIDTH 19 0
BBX 17 31 3 0
BITMAP
000F80
001E00
003C00
007000
00E000
000000
003E00
007E00
00FF00
01C700
038180
000000
000000
007C00
01FF00
071F00
0E0F00
1E0F80
3C0F00
3C1F00
7C3E00
78FC00
FFF000
FFC000
F80000
F80000
F80000
FC0300
7E0F00
3FFE00
0FF000
ENDCHAR
STARTCHAR uni1EC0
ENCODING 7872
SWIDTH 630 0
DWIDTH 21 0
BBX 23 38 1 0
BITMAP
007C00
001C00
000E00
000600
000300
000000
0007C0
000FC0
001FE0
0038E0
007030
000000
000000
07FFFE
07FFFE
01F00E
01F00C
01F00C
01F000
03E000
03E000
03E000
03E060
03E0C0
07FFC0
07FFC0
07C0C0
07C0C0
07C000
0F8000
0F8000
0F8000
0F8000
1F8070
1F0060
3F00E0
FFFFE0
FFFFE0
ENDCHAR
STARTCHAR uni1EC1
ENCODING 7873
SWIDTH 548 0
DWIDTH 19 0
BBX 17 31 3 0
BITMAP
03E000
00E000
007000
003000
001800
000000
003E00
007E00
00FF00
01C700
038180
000000
000000
007C00
01FF00
071F00
0E0F00
1E0F80
3C0F00
3C1F00
7C3E00
78FC00
FFF000
FFC000
F80000
F80000
F80000
FC0300
7E0F00
3FFE00
0FF000
ENDCHAR
STARTCHAR uni1EC4
ENCODING 7876
SWIDTH 630 0
DWIDTH 21 0
BBX 23 37 1 0
BITMAP
007860
00FFC0
00FFC0
018780
000000
0007C0
000FC0
001FE0
0038E0
007030
000000
000000
07FFFE
07FFFE
01F00E
01F00C
01F00C
01F000
03E000
03E000
03E000
03E060
03E0C0
07FFC0
07FFC0
07C0C0
07C0C0
07C000
0F8000
0F8000
0F8000
0F8000
1F8070
1F0060
3F00E0
FFFFE0
FFFFE0
ENDCHAR
STARTCHAR uni1EC5
ENCODING 7877
SWIDTH 548 0
DWIDTH 19 0
BBX 17 30 3 0
BITMAP
01E180
03FF00
03FF00
061E00
000000
003E00
007E00
00FF00
01C700
038180
000000
000000
007C00
01FF00
071F00
0E0F00
1E0F80
3C0F00
3C1F00
7C3E00
78FC00
FFF000
FFC000
F80000
F80000
F80000
FC0300
7E0F00
3FFE00
0FF000
ENDCHAR
STARTCHAR uni1EC6
ENCODING 7878
SWIDTH 630 0
DWIDTH 21 0
BBX 23 36 1 -5
BITMAP
001F00
003F00
007F80
00E380
01C0C0
000000
07FFFE
07FFFE
01F00E
01F00C
01F00C
01F000
03E000
03E000
03E000
03E060
03E0C0
07FFC0
07FFC0
07C0C0
07C0C0
07C000
0F8000
0F8000
0F8000
0F8000
1F8070
1F0060
3F00E0
FFFFE0
FFFFE0
000000
00F000
00F000
01E000
01E000
ENDCHAR
STARTCHAR uni1EC7
ENCODING 7879
SWIDTH 548 0
DWIDTH 19 0
BBX 17 29 3 -5
BITMAP
007C00
00FC00
01FE00
038E00
070300
000000
007C00
01FF00
071F00
0E0F00
1E0F80
3C0F00
3C1F00
7C3E00
78FC00
FFF000
FFC000
F80000
F80000
F80000
FC0300
7E0F00
3FFE00
0FF000
000000
03C000
03C000
078000
078000
ENDCHAR
STARTCHAR uni1ECA
ENCODING 7882
SWIDTH 372 0
DWIDTH 13 0
BBX 15 30 1 -5
BITMAP
07FE
0FFE
01F8
01F0
03F0
03E0
03E0
03E0
03E0
03E0
07C0
07C0
07C0
07C0
07C0
0F80
0F80
0F80
0F80
0F80
1F00
1F00
3F00
FFE0
FFC0
0000
0F00
0F00
1E00
1E00
ENDCHAR
STARTCHAR uni1ECB
ENCODING 7883
SWIDTH 319 0
DWIDTH 11 0
BBX 10 30 3 -5
BITMAP
07C0
07C0
0780
0F80
0000
0000
0000
7F80
7F00
1F00
1F00
1F00
1E00
3E00
3E00
3E00
3E00
3C00
7C00
7C00
7C00
7C00
7C00
FF00
FF00
0000
3C00
3C00
7800
7800
ENDCHAR
STARTCHAR uni1ECC
ENCODING 7884
SWIDTH 831 0
DWIDTH 28 0
BBX 26 30 4 -5
BITMAP
000FF000
007FFC00
00F83E00
03E01F00
07C00F80
0F800F80
1F000F80
1F000FC0
3E000FC0
7E000FC0
7C000FC0
7C000FC0
FC000F80
FC000F80
FC000F80
FC001F00
FC001F00
FC003E00
FC003C00
7C007C00
7C00F800
3E01E000
1F07C000
0FFF0000
03F80000
00000000
00780000
00780000
00F00000
00F00000
ENDCHAR
STARTCHAR uni1ECD
ENCODING 7885
SWIDTH 599 0
DWIDTH 20 0
BBX 19 23 3 -5
BITMAP
007E00
01FF80
0787C0
0F07C0
1E03E0
3E03E0
3C03E0
7C03E0
7C03E0
FC07C0
F807C0
F80780
F80F80
FC0F00
FC1E00
7E3C00
3FF000
0FC000
000000
03C000
03C000
078000
078000
ENDCHAR
STARTCHAR uni1ED0
ENCODING 7888
SWIDTH 831 0
DWIDTH 28 0
BBX 26 38 4 0
BITMAP
0000F800
0001E000
0003C000
00070000
000E0000
00000000
0003E000
0007E000
000FF000
001C7000
00381800
00000000
00000000
000FF000
007FFC00
00F83E00
03E01F00
07C00F80
0F800F80
1F000F80
1F000FC0
3E000FC0
7E000FC0
7C000FC0
7C000FC0
FC000F80
FC000F80
FC000F80
FC001F00
FC001F00
FC003E00
FC003C00
7C007C00
7C00F800
3E01E000
1F07C000
0FFF0000
03F80000
ENDCHAR
STARTCHAR uni1ED1
ENCODING 7889
SWIDTH 599 0
DWIDTH 20 0
BBX 19 31 3 0
BITMAP
0007C0
000F00
001E00
003800
007000
000000
001F00
003F00
007F80
00E380
01C0C0
000000
000000
007E00
01FF80
0787C0
0F07C0
1E03E0
3E03E0
3C03E0
7C03E0
7C03E0
FC07C0
F807C0
F80780
F80F80
FC0F00
FC1E00
7E3C00
3FF000
0FC000
ENDCHAR
STARTCHAR uni1ED2
ENCODING 7890
SWIDTH 831 0
DWIDTH 28 0
BBX 26 38 4 0
BITMAP
003E0000
000E0000
00070000
00030000
00018000
00000000
0003E000
0007E000
000FF000
001C7000
00381800
00000000
00000000
000FF000
007FFC00
00F83E00
03E01F00
07C00F80
0F800F80
1F000F80
1F000FC0
3E000FC0
7E000FC0
7C000FC0
7C000FC0
FC000F80
FC000F80
FC000F80
FC001F00
FC001F00
FC003E00
FC003C00
7C007C00
7C00F800
3E01E000
1F07C000
0FFF0000
03F80000
ENDCHAR
STARTCHAR uni1ED3
ENCODING 7891
SWIDTH 599 0
DWIDTH 20 0
BBX 19 31 3 0
BITMAP
01F000
007000
003800
001800
000C00
000000
001F00
003F00
007F80
00E380
01C0C0
000000
000000
007E00
01FF80
0787C0
0F07C0
1E03E0
3E03E0
3C03E0
7C03E0
7C03E0
FC07C0
F807C0
F80780
F80F80
FC0F00
FC1E00
7E3C00
3FF000
0FC000
ENDCHAR
STARTCHAR uni1ED6
ENCODING 7894
SWIDTH 831 0
DWIDTH 28 0
BBX 26 37 4 0
BITMAP
001E1800
003FF000
003FF000
0061E000
00000000
0003E000
0007E000
000FF000
001C7000
00381800
00000000
00000000
000FF000
007FFC00
00F83E00
03E01F00
07C00F80
0F800F80
1F000F80
1F000FC0
3E000FC0
7E000FC0
7C000FC0
7C000FC0
FC000F80
FC000F80
FC000F80
FC001F00
FC001F00
FC003E00
FC003C00
7C007C00
7C00F800
3E01E000
1F07C000
0FFF0000
03F80000
ENDCHAR
STARTCHAR uni1ED7
ENCODING 7895
SWIDTH 599 0
DWIDTH 20 0
BBX 19 30 3 0
BITMAP
00F0C0
01FF80
01FF80
030F00
000000
001F00
003F00
007F80
00E380
01C0C0
000000
000000
007E00
01FF80
0787C0
0F07C0
1E03E0
3E03E0
3C03E0
7C03E0
7C03E0
FC07C0
F807C0
F80780
F80F80
FC0F00
FC1E00
7E3C00
3FF000
0FC000
ENDCHAR
STARTCHAR uni1ED8
ENCODING 7896
SWIDTH 831 0
DWIDTH 28 0
BBX 26 36 4 -5
BITMAP
0007C000
000FC000
001FE000
0038E000
00703000
00000000
000FF000
007FFC00
00F83E00
03E01F00
07C00F80
0F800F80
1F000F80
1F000FC0
3E000FC0
7E000FC0
7C000FC0
7C000FC0
FC000F80
FC000F80
FC000F80
FC001F00
FC001F00
FC003E00
FC003C00
7C007C00
7C00F800
3E01E000
1F07C000
0FFF0000
03F80000
00000000
00780000
00780000
00F00000
00F00000
ENDCHAR
STARTCHAR uni1ED9
ENCODING 7897
SWIDTH 599 0
DWIDTH 20 0
BBX 19 29 3 -5
BITMAP
007C00
00FC00
01FE00
038E00
070300
000000
007E00
01FF80
0787C0
0F07C0
1E03E0
3E03E0
3C03E0
7C03E0
7C03E0
FC07C0
F807C0
F80780
F80F80
FC0F00
FC1E00
7E3C00
3FF000
0FC000
000000
03C000
03C000
078000
078000
ENDCHAR
STARTCHAR uni1EDA
ENCODING 7898
SWIDTH 831 0
DWIDTH 28 0
BBX 31 31 4 0
BITMAP
00001F00
00003C00
00007800
0000E000
0001C000
00000000
000FF07E
007FFC7E
00F83E7C
03E01F7C
07C00FFC
0F800FBC
1F000FB8
1F000FF8
3E000FF0
7E000FE0
7C000FC0
7C000FC0
FC000F80
FC000F80
FC000F80
FC001F00
FC001F00
FC003E00
FC003C00
7C007C00
7C00F800
3E01E000
1F07C000
0FFF0000
03F80000
ENDCHAR
STARTCHAR uni1EDB
ENCODING 7899
SWIDTH 599 0
DWIDTH 20 0
BBX 25 24 3 0
BITMAP
0000F800
0001E000
0003C000
00070000
000E0000
00000000
007E1F80
01FF9F80
0787DF00
0F07DF00
1E03FF00
3E03EF00
3C03EE00
7C03EE00
7C03FC00
FC07F800
F807E000
F8078000
F80F8000
FC0F0000
FC1E0000
7E3C0000
3FF00000
0FC00000
ENDCHAR
STARTCHAR uni1EDC
ENCODING 7900
SWIDTH 831 0
DWIDTH 28 0
BBX 31 31 4 0
BITMAP
0007C000
0001C000
0000E000
00006000
00003000
00000000
000FF07E
007FFC7E
00F83E7C
03E01F7C
07C00FFC
0F800FBC
1F000FB8
1F000FF8
3E000FF0
7E000FE0
7C000FC0
7C000FC0
FC000F80
FC000F80
FC000F80
FC001F00
FC001F00
FC003E00
FC003C00
7C007C00
7C00F800
3E01E000
1F07C000
0FFF0000
03F80000
ENDCHAR
STARTCHAR uni1EDD
ENCODING 7901
SWIDTH 599 0
DWIDTH 20 0
BBX 25 24 3 0
BITMAP
003E0000
000E0000
00070000
00030000
00018000
00000000
007E1F80
01FF9F80
0787DF00
0F07DF00
1E03FF00
3E03EF00
3C03EE00
7C03EE00
7C03FC00
FC07F800
F807E000
F8078000
F80F8000
FC0F0000
FC1E0000
7E3C0000
3FF00000
0FC00000
ENDCHAR
STARTCHAR uni1EE0
ENCODING 7904
SWIDTH 831 0
DWIDTH 28 0
BBX 31 30 4 0
BITMAP
0003C300
0007FE00
0007FE00
000C3C00
00000000
000FF07E
007FFC7E
00F83E7C
03E01F7C
07C00FFC
0F800FBC
1F000FB8
1F000FF8
3E000FF0
7E000FE0
7C000FC0
7C000FC0
FC000F80
FC000F80
FC000F80
FC001F00
FC001F00
FC003E00
FC003C00
7C007C00
7C00F800
3E01E000
1F07C000
0FFF0000
03F80000
ENDCHAR
STARTCHAR uni1EE1
ENCODING 7905
SWIDTH 599 0
DWIDTH 20 0
BBX 25 23 3 0
BITMAP
001E1800
003FF000
003FF000
0061E000
00000000
007E1F80
01FF9F80
0787DF00
0F07DF00
1E03FF00
3E03EF00
3C03EE00
7C03EE00
7C03FC00
FC07F800
F807E000
F8078000
F80F8000
FC0F0000
FC1E0000
7E3C0000
3FF00000
0FC00000
ENDCHAR
STARTCHAR uni1EE2
ENCODING 7906
SWIDTH 831 0
DWIDTH 28 0
BBX 31 30 4 -5
BITMAP
000FF07E
007FFC7E
00F83E7C
03E01F7C
07C00FFC
0F800FBC
1F000FB8
1F000FF8
3E000FF0
7E000FE0
7C000FC0
7C000FC0
FC000F80
FC000F80
FC000F80
FC001F00
FC001F00
FC003E00
FC003C00
7C007C00
7C00F800
3E01E000
1F07C000
0FFF0000
03F80000
00000000
003C0000
003C0000
00780000
00780000
ENDCHAR
STARTCHAR uni1EE3
ENCODING 7907
SWIDTH 599 0
DWIDTH 20 0
BBX 25 23 3 -5
BITMAP
007E1F80
01FF9F80
0787DF00
0F07DF00
1E03FF00
3E03EF00
3C03EE00
7C03EE00
7C03FC00
FC07F800
F807E000
F8078000
F80F8000
FC0F0000
FC1E0000
7E3C0000
3FF00000
0FC00000
00000000
01E00000
01E00000
03C00000
03C00000
ENDCHAR
STARTCHAR uni1EE4
ENCODING 7908
SWIDTH 775 0
DWIDTH 26 0
BBX 25 30 5 -5
BITMAP
7FE07F80
FFE07F80
1F800E00
1F000C00
3F001C00
3E001800
3E001800
3E001800
3E001800
7E003800
7C003000
7C003000
7C003000
7C003000
FC007000
F8006000
F8006000
F8006000
F800C000
F800C000
FC018000
7C038000
3E070000
1FFE0000
07F00000
00000000
01E00000
01E00000
03C00000
03C00000
ENDCHAR
STARTCHAR uni1EE5
ENCODING 7909
SWIDTH 655 0
DWIDTH 22 0
BBX 19 23 4 -5
BITMAP
FF1FE0
FF1FE0
3E07E0
3E07C0
3E07C0
3E07C0
3C07C0
7C07C0
7C0F80
7C1F80
7C3F80
786F80
F8EF80
F9CF00
FF9F00
FF1F00
FE1FC0
781FC0
000000
01E000
01E000
03C000
03C000
ENDCHAR
STARTCHAR uni1EE8
ENCODING 7912
SWIDTH 775 0
DWIDTH 26 0
BBX 30 31 5 0
BITMAP
00007C00
0000F000
0001E000
00038000
00070000
00000000
7FE07FFC
FFE07FFC
1F800EF8
1F000CF8
3F001DF8
3E001878
3E001870
3E001870
3E0018E0
7E003BC0
7C003300
7C003000
7C003000
7C003000
FC007000
F8006000
F8006000
F8006000
F800C000
F800C000
FC018000
7C038000
3E070000
1FFE0000
07F00000
ENDCHAR
STARTCHAR uni1EE9
ENCODING 7913
SWIDTH 655 0
DWIDTH 22 0
BBX 25 24 4 0
BITMAP
0003E000
00078000
000F0000
001C0000
00380000
00000000
FF1FFF80
FF1FFF80
3E07FF00
3E07DF00
3E07FF00
3E07CF00
3C07CE00
7C07CE00
7C0F9C00
7C1FF800
7C3FE000
786F8000
F8EF8000
F9CF0000
FF9F0000
FF1F0000
FE1FC000
781FC000
ENDCHAR
STARTCHAR uni1EEA
ENCODING 7914
SWIDTH 775 0
DWIDTH 26 0
BBX 30 31 5 0
BITMAP
001F0000
00070000
00038000
00018000
0000C000
00000000
7FE07FFC
FFE07FFC
1F800EF8
1F000CF8
3F001DF8
3E001878
3E001870
3E001870
3E0018E0
7E003BC0
7C003300
7C003000
7C003000
7C003000
FC007000
F8006000
F8006000
F8006000
F800C000
F800C000
FC018000
7C038000
3E070000
1FFE0000
07F00000
ENDCHAR
STARTCHAR uni1EEB
ENCODING 7915
SWIDTH 655 0
DWIDTH 22 0
BBX 25 24 4 0
BITMAP
00F80000
00380000
001C0000
000C0000
00060000
00000000
FF1FFF80
FF1FFF80
3E07FF00
3E07DF00
3E07FF00
3E07CF00
3C07CE00
7C07CE00
7C0F9C00
7C1FF800
7C3FE000
786F8000
F8EF8000
F9CF0000
FF9F0000
FF1F0000
FE1FC000
781FC000
ENDCHAR
STARTCHAR uni1EEE
ENCODING 7918
SWIDTH 775 0
DWIDTH 26 0
BBX 30 30 5 0
BITMAP
000F0C00
001FF800
001FF800
0030F000
00000000
7FE07FFC
FFE07FFC
1F800EF8
1F000CF8
3F001DF8
3E001878
3E001870
3E001870
3E0018E0
7E003BC0
7C003300
7C003000
7C003000
7C003000
FC007000
F8006000
F8006000
F8006000
F800C000
F800C000
FC018000
7C038000
3E070000
1FFE0000
07F00000
ENDCHAR
STARTCHAR uni1EEF
ENCODING 7919
SWIDTH 655 0
DWIDTH 22 0
BBX 25 23 4 0
BITMAP
00786000
00FFC000
00FFC000
01878000
00000000
FF1FFF80
FF1FFF80
3E07FF00
3E07DF00
3E07FF00
3E07CF00
3C07CE00
7C07CE00
7C0F9C00
7C1FF800
7C3FE000
786F8000
F8EF8000
F9CF0000
FF9F0000
FF1F0000
FE1FC000
781FC000
ENDCHAR
STARTCHAR uni1EF0
ENCODING 7920
SWIDTH 775 0
DWIDTH 26 0
BBX 30 30 5 -5
BITMAP
7FE07FFC
FFE07FFC
1F800EF8
1F000CF8
3F001DF8
3E001878
3E001870
3E001870
3E0018E0
7E003BC0
7C003300
7C003000
7C003000
7C003000
FC007000
F8006000
F8006000
F8006000
F800C000
F800C000
FC018000
7C038000
3E070000
1FFE0000
07F00000
00000000
00F00000
00F00000
01E00000
01E00000
ENDCHAR
STARTCHAR uni1EF1
ENCODING 7921
SWIDTH 655 0
DWIDTH 22 0
BBX 25 23 4 -5
BITMAP
FF1FFF80
FF1FFF80
3E07FF00
3E07DF00
3E07FF00
3E07CF00
3C07CE00
7C07CE00
7C0F9C00
7C1FF800
7C3FE000
786F8000
F8EF8000
F9CF0000
FF9F0000
FF1F0000
FE1FC000
781FC000
00000000
00F00000
00F00000
01E00000
01E00000
ENDCHAR
STARTCHAR Ygrave
ENCODING 7922
SWIDTH 669 0
DWIDTH 23 0
BBX 23 31 5 0
BITMAP
07C000
01C000
00E000
006000
003000
000000
FFC07E
FFC0FE
7E0038
3F0030
1F0060
1F00C0
1F8180
0F8380
0F8300
07C600
07CC00
07F800
03F800
03F000
03E000
03E000
03E000
03E000
07E000
07C000
07C000
07C000
0FC000
7FF800
7FF000
ENDCHAR
STARTCHAR ygrave
ENCODING 7923
SWIDTH 586 0
DWIDTH 20 0
BBX 23 31 0 -7
BITMAP
00F800
003800
001C00
000C00
000600
000000
1FC07E
1FC03E
07E01E
03E01E
03E01C
01F03C
01F038
01F070
01F0E0
00F0C0
00F9C0
00FB80
00FF00
00FE00
00FC00
007800
007000
007000
006000
00C000
038000
070000
0F0000
1E0000
FE0000
ENDCHAR
STARTCHAR uni1EF4
ENCODING 7924
SWIDTH 669 0
DWIDTH 23 0
BBX 23 30 5 -5
BITMAP
FFC07E
FFC0FE
7E0038
3F0030
1F0060
1F00C0
1F8180
0F8380
0F8300
07C600
07CC00
07F800
03F800
03F000
03E000
03E000
03E000
03E000
07E000
07C000
07C000
07C000
0FC000
7FF800
7FF000
000000
01E000
01E000
03C000
03C000
ENDCHAR
STARTCHAR uni1EF5
ENCODING 7925
SWIDTH 586 0
DWIDTH 20 0
BBX 23 30 0 -12
BITMAP
1FC07E
1FC03E
07E01E
03E01E
03E01C
01F03C
01F038
01F070
01F0E0
00F0C0
00F9C0
00FB80
00FF00
00FE00
00FC00
007800
007000
007000
006000
00C000
038000
070000
0F0000
1E0000
FE0000
000000
03C000
03C000
078000
078000
ENDCHAR
STARTCHAR uni1EF8
ENCODING 7928
SWIDTH 669 0
DWIDTH 23 0
BBX 23 30 5 0
BITMAP
03C300
07FE00
07FE00
0C3C00
000000
FFC07E
FFC0FE
7E0038
3F0030
1F0060
1F00C0
1F8180
0F8380
0F8300
07C600
07CC00
07F800
03F800
03F000
03E000
03E000
03E000
03E000
07E000
07C000
07C000
07C000
0FC000
7FF800
7FF000
ENDCHAR
STARTCHAR uni1EF9
ENCODING 7929
SWIDTH 586 0
DWIDTH 20 0
BBX 23 30 0 -7
BITMAP
007860
00FFC0
00FFC0
018780
000000
1FC07E
1FC03E
07E01E
03E01E
03E01C
01F03C
01F038
01F070
01F0E0
00F0C0
00F9C0
00FB80
00FF00
00FE00
00FC00
007800
007000
007000
006000
00C000
038000
070000
0F0000
1E0000
FE0000
ENDCHAR
STARTCHAR uni2000
ENCODING 8192
SWIDTH 500 0
DWIDTH 17 0
BBX 1 1 0 0
BITMAP
00
ENDCHAR
STARTCHAR uni2001
ENCODING 8193
SWIDTH 1000 0
DWIDTH 33 0
BBX 1 1 0 0
BITMAP
00
ENDCHAR
STARTCHAR uni2002
ENCODING 8194
SWIDTH 500 0
DWIDTH 17 0
BBX 1 1 0 0
BITMAP
00
ENDCHAR
STARTCHAR uni2003
ENCODING 8195
SWIDTH 1000 0
DWIDTH 33 0
BBX 1 1 0 0
BITMAP
00
ENDCHAR
STARTCHAR uni2004
ENCODING 8196
SWIDTH 333 0
DWIDTH 11 0
BBX 1 1 0 0
BITMAP
00
ENDCHAR
STARTCHAR uni2005
ENCODING 8197
SWIDTH 250 0
DWIDTH 8 0
BBX 1 1 0 0
BITMAP
00
ENDCHAR
STARTCHAR uni2006
ENCODING 8198
SWIDTH 167 0
DWIDTH 6 0
BBX 1 1 0 0
BITMAP
00
ENDCHAR
STARTCHAR uni2007
ENCODING 8199
SWIDTH 623 0
DWIDTH 22 0
BBX 1 1 0 0
BITMAP
00
ENDCHAR
STARTCHAR uni2008
ENCODING 8200
SWIDTH 265 0
DWIDTH 9 0
BBX 1 1 0 0
BITMAP
00
ENDCHAR
STARTCHAR uni2009
ENCODING 8201
SWIDTH 200 0
DWIDTH 7 0
BBX 1 1 0 0
BITMAP
00
ENDCHAR
STARTCHAR uni200A
ENCODING 8202
SWIDTH 100 0
DWIDTH 3 0
BBX 1 1 0 0
BITMAP
00
ENDCHAR
STARTCHAR uni200B
ENCODING 8203
SWIDTH 0 0
DWIDTH 0 0
BBX 1 1 0 0
BITMAP
00
ENDCHAR
STARTCHAR uni2010
ENCODING 8208
SWIDTH 289 0
DWIDTH 10 0
BBX 8 3 3 10
BITMAP
7F
FF
FE
ENDCHAR
STARTCHAR uni2011
ENCODING 8209
SWIDTH 289 0
DWIDTH 10 0
BBX 8 3 3 10
BITMAP
7F
FF
FE
ENDCHAR
STARTCHAR figuredash
ENCODING 8210
SWIDTH 500 0
DWIDTH 17 0
BBX 15 2 3 10
BITMAP
FFFE
FFFE
ENDCHAR
STARTCHAR endash
ENCODING 8211
SWIDTH 500 0
DWIDTH 17 0
BBX 15 2 3 10
BITMAP
FFFE
FFFE
ENDCHAR
STARTCHAR emdash
ENCODING 8212
SWIDTH 1000 0
DWIDTH 34 0
BBX 32 2 3 10
BITMAP
FFFFFFFF
FFFFFFFF
ENDCHAR
STARTCHAR afii00208
ENCODING 8213
SWIDTH 1000 0
DWIDTH 34 0
BBX 32 2 3 10
BITMAP
FFFFFFFF
FFFFFFFF
ENDCHAR
STARTCHAR quoteleft
ENCODING 8216
SWIDTH 265 0
DWIDTH 9 0
BBX 8 11 5 15
BITMAP
03
0F
1C
38
38
78
7E
7C
7C
FC
FC
ENDCHAR
STARTCHAR quoteright
ENCODING 8217
SWIDTH 265 0
DWIDTH 9 0
BBX 8 11 5 15
BITMAP
3F
3F
3E
3E
7E
1E
1C
1C
38
F0
C0
ENDCHAR
STARTCHAR quotesinglbase
ENCODING 8218
SWIDTH 265 0
DWIDTH 9 0
BBX 8 13 1 -7
BITMAP
3F
3F
3F
3E
7E
7E
1E
1E
1C
3C
38
F0
C0
ENDCHAR
STARTCHAR quotereversed
ENCODING 8219
SWIDTH 265 0
DWIDTH 9 0
BBX 8 11 5 15
BITMAP
FC
FC
7C
7C
7E
78
38
38
1C
0F
03
ENDCHAR
STARTCHAR quotedblleft
ENCODING 8220
SWIDTH 464 0
DWIDTH 16 0
BBX 15 11 4 15
BITMAP
0606
0E1E
1C38
3838
3070
7070
7C7C
7CFC
FCF8
F8F8
F8F8
ENDCHAR
STARTCHAR quotedblright
ENCODING 8221
SWIDTH 464 0
DWIDTH 16 0
BBX 15 11 4 15
BITMAP
3E3E
3E3E
3E7E
7E7C
7C7C
1C1C
1C3C
3838
3870
F0E0
C0C0
ENDCHAR
STARTCHAR quotedblbase
ENCODING 8222
SWIDTH 464 0
DWIDTH 16 0
BBX 15 12 0 -7
BITMAP
3E3E
3E3E
3E7E
7E7C
7C7C
1C1C
1C1C
1C38
3838
7070
E0E0
C0C0
ENDCHAR
STARTCHAR uni201F
ENCODING 8223
SWIDTH 464 0
DWIDTH 16 0
BBX 15 11 4 15
BITMAP
F8F8
F8F8
FCF8
7CFC
7C7C
7070
7870
3838
1C38
0E1E
0606
ENDCHAR
STARTCHAR dagger
ENCODING 8224
SWIDTH 636 0
DWIDTH 22 0
BBX 17 31 5 -6
BITMAP
00F800
00F800
00F800
00F000
01F000
01F000
01F000
01E000
01E000
71E380
FFFF80
FFFF80
E3C700
03C000
03C000
03C000
07C000
07C000
078000
078000
078000
0F8000
0F8000
0F0000
0F0000
1F0000
1F0000
1F0000
1F0000
1E0000
3E0000
ENDCHAR
STARTCHAR daggerdbl
ENCODING 8225
SWIDTH 636 0
DWIDTH 22 0
BBX 19 31 3 -6
BITMAP
003E00
003E00
003E00
003C00
007C00
007C00
007C00
007800
007800
1C78E0
3FFFE0
3FFFE0
38F1C0
00F000
00F000
00F000
01F000
01E000
01E000
71E380
FFFF80
FFFF80
E3C700
03C000
03C000
03C000
07C000
07C000
07C000
078000
0F8000
ENDCHAR
STARTCHAR bullet
ENCODING 8226
SWIDTH 636 0
DWIDTH 22 0
BBX 12 12 7 4
BITMAP
1F80
3FC0
7FE0
FFF0
FFF0
FFF0
FFF0
FFF0
FFF0
7FE0
3FC0
1F80
ENDCHAR
STARTCHAR ellipsis
ENCODING 8230
SWIDTH 1000 0
DWIDTH 34 0
BBX 27 4 4 0
BITMAP
700F01E0
F00E01E0
F00E01E0
F01E01C0
ENDCHAR
STARTCHAR perthousand
ENCODING 8240
SWIDTH 1156 0
DWIDTH 39 0
BBX 39 25 2 0
BITMAP
07C001C000
1FF0038000
3C70070000
38780E0000
78781C0000
7878380000
7078700000
7070F00000
70F1E00000
79E3C00000
3FC7800000
1F0F000000
000E3E00F8
001C7F83FC
0038F3879E
0071E3CF0E
00E3C3CE1E
01C3C3DE1E
0383C3DE1E
070383DE1E
0F03839E1C
1E03879E3C
3C03CF0E78
7801FE0FF0
F000F803C0
ENDCHAR
STARTCHAR guilsinglleft
ENCODING 8249
SWIDTH 310 0
DWIDTH 11 0
BBX 10 16 3 1
BITMAP
0080
01C0
0380
0780
0F00
1E00
3C00
7800
F800
7800
3C00
3C00
1E00
0E00
0E00
0400
ENDCHAR
STARTCHAR guilsinglright
ENCODING 8250
SWIDTH 310 0
DWIDTH 11 0
BBX 10 16 2 1
BITMAP
0800
1C00
1C00
1E00
0F00
0F00
0780
07C0
0780
0F00
1E00
3C00
3800
7000
E000
4000
ENDCHAR
STARTCHAR fraction
ENCODING 8260
SWIDTH 55 0
DWIDTH 2 0
BBX 27 24 -9 0
BITMAP
00000380
00000700
00000F00
00001E00
00003C00
00003800
00007000
0000E000
0001C000
00038000
00070000
000E0000
001C0000
00380000
00700000
00E00000
01C00000
03800000
07000000
0F000000
1E000000
1C000000
38000000
F0000000
ENDCHAR
STARTCHAR oneinferior
ENCODING 8321
SWIDTH 381 0
DWIDTH 13 0
BBX 8 15 -22 -8
BITMAP
3F
07
07
0E
0E
0E
0E
0E
0C
1C
1C
1C
1C
3C
FF
ENDCHAR
STARTCHAR twoinferior
ENCODING 8322
SWIDTH 381 0
DWIDTH 13 0
BBX 12 15 -21 -8
BITMAP
0FC0
18E0
1070
1070
0070
00E0
00C0
0380
0600
0800
1000
2000
6000
FFC0
FFC0
ENDCHAR
STARTCHAR threeinferior
ENCODING 8323
SWIDTH 381 0
DWIDTH 13 0
BBX 11 15 -21 -8
BITMAP
1FC0
18E0
10E0
00E0
00E0
00C0
0300
1F80
03C0
01C0
01C0
01C0
C1C0
C380
FE00
ENDCHAR
STARTCHAR uni20A5
ENCODING 8357
SWIDTH 969 0
DWIDTH 33 0
BBX 30 32 3 -7
BITMAP
000000E0
000000C0
00000180
00000380
00000300
00000600
00000E00
7F87CCF8
7F0FDBF8
1F1FFFFC
1F3FFFFC
1F63FE7C
1EC3FC7C
3E83F878
3F87F0F8
3F07E0F8
3E07E0F8
3C07C0F8
7C0F80F0
7C0F81F0
7C0F81F0
781F81F0
783F01F0
F83F01FC
F87F03FC
00E00000
00C00000
01C00000
03800000
03000000
07000000
0E000000
ENDCHAR
STARTCHAR uni20A6
ENCODING 8358
SWIDTH 797 0
DWIDTH 27 0
BBX 30 25 1 0
BITMAP
07E003FC
07F003FC
01F000F0
01F800E0
01FC00E0
01FC00C0
03FE00C0
03BE01C0
03FFFFC0
03FFFFC0
031F8180
070F8180
0707C380
0707C380
0603E300
07FFFF80
0FFFFF80
0E01F700
0C00FF00
0C00FE00
1C007E00
1C003E00
3C003E00
FF001E00
FF001C00
ENDCHAR
STARTCHAR uni20A9
ENCODING 8361
SWIDTH 922 0
DWIDTH 31 0
BBX 32 25 4 0
BITMAP
FF80C03F
FF81C03F
7E01C01C
3E03C018
3E03E018
3E07E030
3E07E030
3E0FE060
3FFFFFE0
3FFFFFE0
3E1BE0C0
3E31E180
1E31E180
1E21E300
1E61E300
1FFFFFC0
1FFFFFC0
1F81FC00
1F81FC00
1F01F800
1F01F800
1E01F000
1E01E000
1C00E000
1C00C000
ENDCHAR
STARTCHAR Euro
ENCODING 8364
SWIDTH 740 0
DWIDTH 25 0
BBX 29 25 -1 0
BITMAP
00007FE0
0003FFF8
000FC0F8
001F0070
003E0030
007C0030
00F80070
00F00000
7FFFF800
7FFFF800
03E00000
03E00000
07E00000
07E00000
07E00000
FFFFF000
FFFFF000
07E00000
07E00000
03E00000
03F00000
01F80000
00FC0380
007FFF80
001FF800
ENDCHAR
STARTCHAR uni20AD
ENCODING 8365
SWIDTH 746 0
DWIDTH 25 0
BBX 26 25 1 0
BITMAP
07FE1FC0
07FE1FC0
01F80700
01F00C00
01E01800
03E07000
03E0E000
03E1C000
03E30000
03C60000
07DC0000
FFFFFFC0
FFFFFFC0
07FF0000
079F8000
0F9F8000
0F8FC000
0F87E000
0F87F000
0F03F000
1F01F800
1F01FC00
3F00FE00
FFC3FF00
FFC3FF00
ENDCHAR
STARTCHAR uni2103
ENCODING 8451
SWIDTH 986 0
DWIDTH 34 0
BBX 30 25 7 0
BITMAP
70003FF0
F801FFFC
C807E07C
CC0F8038
F81F0018
703E0018
007C0038
00780000
00F80000
01F80000
01F00000
01F00000
03F00000
03F00000
03F00000
03F00000
03F00000
03F00000
03F00000
01F00000
01F80000
00FC0000
007E01C0
003FFFC0
000FFC00
ENDCHAR
STARTCHAR uni2109
ENCODING 8457
SWIDTH 848 0
DWIDTH 29 0
BBX 26 25 7 0
BITMAP
70FFFFC0
F8FFFFC0
C83E01C0
CC3E0180
F83E0180
703E0000
007C0000
007C0000
007C0000
007C0C00
007C1800
00FFF800
00FFF800
00F81800
00F81800
00F80000
01F00000
01F00000
01F00000
01F00000
03F00000
03F00000
07F00000
1FFC0000
1FFC0000
ENDCHAR
STARTCHAR trademark
ENCODING 8482
SWIDTH 1044 0
DWIDTH 35 0
BBX 34 14 5 11
BITMAP
7FFEFE0FC0
FFFCFE1FC0
C7843E1F00
C78C3E3E00
07803F3E00
07807F7E00
07007FDE00
07007FDE00
0F00679E00
0F00679C00
0F00E73C00
0F00E63C00
3F83E63F00
7F83E03F00
ENDCHAR
STARTCHAR uni212A
ENCODING 8490
SWIDTH 746 0
DWIDTH 25 0
BBX 26 25 1 0
BITMAP
07FE1FC0
07FE1FC0
01F80700
01F00C00
01E01800
03E07000
03E0E000
03E1C000
03E30000
03C60000
07DC0000
07FE0000
07FE0000
07FF0000
079F8000
0F9F8000
0F8FC000
0F87E000
0F87F000
0F03F000
1F01F800
1F01FC00
3F00FE00
FFC3FF00
FFC3FF00
ENDCHAR
STARTCHAR uni212B
ENCODING 8491
SWIDTH 765 0
DWIDTH 26 0
BBX 26 32 0 0
BITMAP
00007000
0000D800
00008800
0000D800
00007000
00000000
00000000
0000E000
0001E000
0001F000
0003F000
0003F000
0007F000
000FF000
000CF800
0018F800
0038F800
0030F800
00607C00
00607C00
00C07C00
01807C00
01FFFC00
03FFFE00
07003E00
06003E00
0C003E00
0C001F00
18001F00
38001F80
FE00FFC0
FE00FFC0
ENDCHAR
STARTCHAR uni2132
ENCODING 8498
SWIDTH 602 0
DWIDTH 20 0
BBX 23 25 1 0
BITMAP
000FFE
000FFE
0003F8
0003F0
0003F0
0003E0
0003E0
0003E0
0003E0
0007C0
0607C0
0607C0
07FFC0
07FFC0
060F80
0C0F80
000F80
000F80
000F80
001F00
601F00
601F00
E01F00
FFFFC0
FFFFC0
ENDCHAR
STARTCHAR minus
ENCODING 8722
SWIDTH 636 0
DWIDTH 21 0
BBX 20 2 3 10
BITMAP
FFFFF0
FFFFF0
ENDCHAR
STARTCHAR fraction
ENCODING 8725
SWIDTH 55 0
DWIDTH 2 0
BBX 27 24 -9 0
BITMAP
00000380
00000700
00000F00
00001E00
00003C00
00003800
00007000
0000E000
0001C000
00038000
00070000
000E0000
001C0000
00380000
00700000
00E00000
01C00000
03800000
07000000
0F000000
1E000000
1C000000
38000000
F0000000
ENDCHAR
STARTCHAR periodcentered
ENCODING 8729
SWIDTH 636 0
DWIDTH 21 0
BBX 5 4 10 8
BITMAP
78
78
F0
F0
ENDCHAR
STARTCHAR uni2236
ENCODING 8758
SWIDTH 265 0
DWIDTH 9 0
BBX 9 18 2 0
BITMAP
0F80
0F80
1F00
1F00
1F00
0000
0000
0000
0000
0000
0000
0000
0000
7C00
7C00
7C00
F800
F800
ENDCHAR
STARTCHAR uni2259
ENCODING 8793
SWIDTH 636 0
DWIDTH 21 0
BBX 21 15 2 5
BITMAP
007C00
00FC00
01FE00
038E00
070300
000000
7FFFF8
7FFFF8
000000
000000
000000
000000
000000
FFFFF0
FFFFF0
ENDCHAR
STARTCHAR uni225A
ENCODING 8794
SWIDTH 636 0
DWIDTH 21 0
BBX 21 15 2 5
BITMAP
060700
030E00
03BC00
01F800
01F000
000000
7FFFF8
7FFFF8
000000
000000
000000
000000
000000
FFFFF0
FFFFF0
ENDCHAR
STARTCHAR notequal
ENCODING 8800
SWIDTH 636 0
DWIDTH 21 0
BBX 23 32 1 -6
BITMAP
00000E
00000C
000018
000038
000030
000060
0000E0
0000C0
000180
000380
000300
000700
3FFFFC
3FFFFC
001C00
001800
003000
007000
006000
7FFFF8
7FFFF8
018000
038000
030000
060000
0E0000
0C0000
1C0000
380000
300000
700000
E00000
ENDCHAR
STARTCHAR equivalence
ENCODING 8801
SWIDTH 636 0
DWIDTH 21 0
BBX 21 8 0 6
BITMAP
FFFFF8
FFFFF8
000000
FFFFF8
FFFFF8
000000
FFFFF8
FFFFF8
ENDCHAR
STARTCHAR uni2262
ENCODING 8802
SWIDTH 636 0
DWIDTH 21 0
BBX 23 32 -1 -6
BITMAP
00000E
00000C
000018
000038
000030
000060
0000E0
0000C0
000180
000380
000300
000700
7FFFFC
7FFFFC
001C00
7FFFFC
7FFFFC
007000
7FFFFC
7FFFFC
00C000
018000
038000
030000
060000
0E0000
0C0000
1C0000
380000
300000
700000
E00000
ENDCHAR
STARTCHAR lessequal
ENCODING 8804
SWIDTH 636 0
DWIDTH 21 0
BBX 22 24 3 -3
BITMAP
000004
00001C
00007C
0001F0
0007C0
001F00
007C00
03F000
0FC000
3E0000
F80000
3E0000
0F8000
07E000
01F000
007C00
003F00
000F80
0003E0
0000C0
000040
000000
FFFFFC
FFFFFC
ENDCHAR
STARTCHAR greaterequal
ENCODING 8805
SWIDTH 636 0
DWIDTH 21 0
BBX 22 24 1 -3
BITMAP
080000
0C0000
1F0000
07C000
03F000
00F800
003E00
001F80
0007C0
0001F0
00007C
0001F0
000FC0
003F00
00F800
03E000
0F8000
3E0000
F80000
E00000
800000
000000
FFFFFC
FFFFFC
ENDCHAR
STARTCHAR uni226E
ENCODING 8814
SWIDTH 636 0
DWIDTH 21 0
BBX 23 32 3 -5
BITMAP
00000E
00000C
000018
000038
000030
000060
0000E4
0000DC
0001FC
0003F0
0007C0
001F00
007E00
03FC00
0FDC00
3E1800
F83000
3E7000
0FE000
07E000
01F000
01FC00
03BF00
030F80
0603E0
0E00C0
0C0040
1C0000
380000
300000
700000
E00000
ENDCHAR
STARTCHAR uni226F
ENCODING 8815
SWIDTH 636 0
DWIDTH 21 0
BBX 23 32 1 -5
BITMAP
00000E
00000C
000018
000038
000030
000060
0800E0
0C00C0
1F0180
07C380
03F300
00FF00
003E00
001F80
001FC0
0019F0
00307C
0071F0
006FC0
00FF00
00F800
03E000
0F8000
3F0000
FE0000
EE0000
8C0000
1C0000
380000
300000
700000
E00000
ENDCHAR
STARTCHAR uni2270
ENCODING 8816
SWIDTH 636 0
DWIDTH 21 0
BBX 23 32 3 -7
BITMAP
00000E
00000C
000018
000038
000034
00007C
0000FC
0001F0
0007C0
001F80
007F00
03F700
0FC600
3E0C00
F81C00
3E1800
0FB000
07F000
01F000
00FC00
00FF00
018F80
0383E0
0300C0
060040
0E0000
FFFFFC
FFFFFC
380000
300000
700000
E00000
ENDCHAR
STARTCHAR uni2271
ENCODING 8817
SWIDTH 636 0
DWIDTH 21 0
BBX 23 32 1 -7
BITMAP
00000E
00000C
000018
000038
080030
0C0060
1F00E0
07C0C0
03F180
00FB80
003F00
001F80
0007C0
000DF0
001C7C
0019F0
003FC0
007F00
00F800
03E000
0FC000
3F8000
FB8000
E30000
860000
0E0000
FFFFFC
FFFFFC
380000
300000
700000
E00000
ENDCHAR
STARTCHAR fi
ENCODING -1
SWIDTH 662 0
DWIDTH 23 0
BBX 23 34 2 -7
BITMAP
001F80
007F80
00F3BE
00E3BE
01E33C
03E33C
03C000
07C000
07C000
3FFFFC
3FFFF8
0780F8
0F80F8
0F80F8
0F80F0
0F81F0
0F01F0
1F01F0
1F01F0
1F03E0
1F03E0
1E03E0
3E03E0
3E03E0
3E07E0
3E07F8
3C07F8
7C0000
7C0000
7C0000
7C0000
780000
F80000
F80000
ENDCHAR
STARTCHAR fl
ENCODING -1
SWIDTH 668 0
DWIDTH 23 0
BBX 23 34 2 -7
BITMAP
001FFE
003FFE
00F0FE
00E03C
01E07C
03E07C
03C07C
07C07C
07C078
1FFCF8
3FFCF8
0780F8
0F80F8
0F80F0
0F81F0
0F81F0
0F01F0
1F01F0
1F01E0
1F03E0
1F03E0
1E03E0
3E03E0
3E03E0
3E07C0
3E07F8
3C07F8
7C0000
7C0000
7C0000
7C0000
780000
F80000
F80000
ENDCHAR
ENDFONT
